<?xml version="1.0" encoding="UTF-8"?>
<svg id="Warstwa_1" data-name="Warstwa 1" xmlns="http://www.w3.org/2000/svg" viewBox="0 0 512 512">
  <defs>
    <style>
      .cls-1 {
        fill: #000;
      }

      .cls-1, .cls-2 {
        stroke-width: 0px;
      }

      .cls-2 {
        fill: #fff;
      }
    </style>
  </defs>
  <path class="cls-1" d="M256.85,395c76.77,0,139-62.23,139-139s-62.23-139-139-139-139,62.24-139,139,62.24,139,139,139Z"/>
  <path class="cls-2" d="M256.85,392.22c75.23,0,136.21-60.99,136.21-136.21s-60.98-136.22-136.21-136.22-136.22,60.99-136.22,136.22,60.99,136.21,136.22,136.21Z"/>
  <path class="cls-1" d="M256.85,356.13c55.3,0,100.13-44.83,100.13-100.13s-44.83-100.14-100.13-100.14-100.14,44.83-100.14,100.14,44.83,100.13,100.14,100.13h0ZM148.38,259.91l4.75,2.05-.09,7.96-27.35-11.43.1-8.19,27.61-10.54-.09,8-4.8,1.81-.12,10.33ZM155.73,213.61l3.45-8.31,5.59,2.33-6.34,15.23-25.38-10.56,2.88-6.93,19.79,8.23h0Z"/>
  <path class="cls-1" d="M164.24,172.05l3.39,3.1,5.55-6.08,4.47,4.08-5.55,6.08,7.97,7.28-5.06,5.54-20.29-18.54,11.18-12.24,4.47,4.08-6.12,6.7h0ZM202.16,162.33l.45,5.15-7.05,3.69-2.92-29.5,7.26-3.8,22.38,19.31-7.09,3.71-3.88-3.36-9.15,4.8ZM262.21,151.6l-9.31.74-7.89-9.98h-.07s.83,10.54.83,10.54l-7.48.59-2.17-27.39,11.18-.88c5.69-.45,10.21,1.78,10.67,7.64.3,3.78-1.65,7.23-5.68,8.24l9.94,10.51h0ZM308.53,148.65c-2.72,8.47-11.03,12.39-19.85,9.55-8.82-2.84-13.27-10.86-10.54-19.33,2.55-7.91,11.63-11.12,19.54-8.57,7.91,2.54,13.4,10.45,10.86,18.36h0ZM337.52,151.54l5.38,5.06-5.81,14.72,14.59-6.44,5.43,5.12-14.6,24.47-5.37-5.23,8.15-14.34-.05-.05-15.9,6.76-2.17-2.04,6.03-16.06-.05-.05-13.59,9.11-5.5-5.05,23.46-15.96h0ZM372.65,207.8l-4.24,1.76,3.24,7.81-5.59,2.32-3.24-7.81-4.38,1.81,3.42,8.24-5.59,2.31-6.29-15.17,25.38-10.53,6.29,15.17-5.59,2.31-3.42-8.23ZM375.69,268.08c-8.89.31-15.39-6.17-15.71-15.43-.31-9.26,5.72-16.17,14.62-16.48,8.3-.28,14.4,7.17,14.68,15.47.29,8.3-5.28,16.15-13.59,16.44Z"/>
  <path class="cls-2" d="M134.23,254.5v.08l8.71,3.2.08-6.24-8.79,2.96ZM200.2,147.3l-.06.03,1.31,9.19,5.53-2.9-6.77-6.32h0ZM244.57,137.79l.72-.06c2.44-.19,5.15-.84,4.92-3.83-.23-2.98-3.02-3.19-5.46-3l-.72.05.54,6.84h0ZM285.56,141.3c-1.44,4.21.81,8.79,5.02,10.23.07.03.15.05.23.07,4.22,1.42,8.79-.86,10.21-5.08.03-.08.05-.15.07-.23,1.16-3.61-1.27-8.03-5.54-9.41-4.27-1.37-8.83.8-9.99,4.41h0ZM374.83,243.98c-4.45.08-8,3.75-7.93,8.2,0,.08,0,.15,0,.23.1,4.45,3.78,7.97,8.23,7.87.08,0,.17,0,.25,0,3.79-.13,7.13-3.92,6.97-8.39-.15-4.48-3.74-8.03-7.53-7.9ZM258.02,353.54v-195.08c53.23.53,96.37,44,96.37,97.54s-43.11,97.01-96.56,97.54h.18ZM160.07,268.31c3.23,25.51,16.42,48.7,36.68,64.52v-64.51h-36.68ZM196.69,179.21l.04,59.55h-35.94c4.27-24.11,17.4-45.04,35.89-59.55h0ZM255.68,238.75h-29.38l.02-75.42c9.48-3.12,19.38-4.76,29.35-4.87v80.29h0ZM255.68,353.54c-9.99-.11-19.91-1.76-29.39-4.89v-80.34h29.39v85.23h0Z"/>
  <path class="cls-1" d="M285.42,199.59h35.47v-3.69h-35.47v3.69ZM285.42,192.81h35.47v-2.83h-35.47v2.83ZM288.26,188.39h0ZM295.65,188.39h0ZM303.03,188.39h0ZM310.43,188.39c1.64,0,2.96-1.33,2.96-2.96s-1.33-2.96-2.96-2.96c-1.64,0-2.96,1.33-2.96,2.96h0c0,1.64,1.33,2.96,2.96,2.96ZM317.82,188.39h0ZM297.5,332.78c-4.05,0-7.32-3.03-7.32-7.07s3.27-7.56,7.32-7.56h14.28c1.54,0,2.79-1.24,2.79-2.79,0-1.55-1.24-2.82-2.79-2.84h-22.91c-7.41,0-13.41-6.01-13.41-13.42s6-13.11,13.41-13.11l28.08-.02c1.73,0,3.14-.91,3.14-2.63,0-1.75-1.39-3.18-3.14-3.2h-28.32c-11.16.25-20.41-8.6-20.65-19.76-.25-11.16,8.6-20.41,19.76-20.65.3,0,.6,0,.9,0l27.22.02c2.11,0,3.83-1.84,3.83-3.95s-1.71-3.71-3.83-3.71h-30.67c1.48-6.39,5.67-7.38,9.36-7.37h14.29c1.63,0,2.96-1.32,2.96-2.95h0c0-1.64-1.32-2.72-2.96-2.72h-14.29c-6.15,0-9.11-5.42-9.36-8.37h14.78c1.23-3.94,3.69-5.91,6.4-5.91h15.77c5.42,0,7.63-3.45,8.13-4.93,3.69,1.72,16.99,12.32,16.99,30.05s-15.76,26.85-25.62,26.92h-33.01c-1.73,0-3.13,1.4-3.13,3.13s1.4,3.13,3.13,3.13l31.04-.02c9.81,0,17.77,8.27,17.77,18.08s-7.95,17.52-17.77,17.52l-29.56-.03c-1.64,0-2.96,1.33-2.96,2.96s1.33,2.96,2.96,2.96l22.42.02c5.29,0,9.58,4.29,9.58,9.58s-4.29,9.52-9.58,9.52l-13.55.04c-1.25,0-2.26,1.02-2.26,2.27,0,1.25,1.01,2.26,2.26,2.26h10.41c3.63.01,7.7,5.37-.12,8.33.06-1.54-.18-3.76-3.45-3.76-3.25,0-8.3,0-8.3,0h0Z"/>
  <path class="cls-1" d="M287.7,221.89c-5.79,2.71-7.2,10.83-6.9,13.67l-8.12,5.6c-1.08,1.17-2.89,1.24-4.06.17-1.17-1.08-1.24-2.89-.17-4.06.05-.06.11-.11.17-.17l5.23-3.64c2.58-1.72,2.09-4.55,1.72-6.89-.36-2.34-2.83-1.23-3.57-.37-1.1,1.1-2.62,1.79-4.31,1.79-3.37,0-6.1-2.61-6.1-5.98,0-3.37,2.73-6.1,6.1-6.1,1.62,0,3.16.64,4.31,1.78.74.86,3.21,1.97,3.57-.37.37-2.34.86-5.17-1.72-6.9l-5.23-3.63c-1.12-1.12-1.12-2.94,0-4.06s2.94-1.12,4.06,0h0l8.12,5.6c-.49,2.35,1.11,10.85,6.9,13.56h0Z"/>
</svg>