<?xml version="1.0" encoding="UTF-8"?>
<svg xmlns="http://www.w3.org/2000/svg" xmlns:xlink="http://www.w3.org/1999/xlink" viewBox="0 0 350 350">
  <defs>
    <style>
      .cls-1 {
        fill: #57add9;
      }

      .cls-1, .cls-2, .cls-3, .cls-4, .cls-5, .cls-6, .cls-7, .cls-8 {
        fill-rule: evenodd;
      }

      .cls-2, .cls-9 {
        fill: #fff;
      }

      .cls-3 {
        fill: url(#radial-gradient);
      }

      .cls-10 {
        isolation: isolate;
      }

      .cls-5 {
        fill: #ffe600;
      }

      .cls-11 {
        fill: url(#radial-gradient-2);
        mix-blend-mode: soft-light;
        opacity: .25;
      }

      .cls-12, .cls-7 {
        fill: #ffd500;
      }

      .cls-6 {
        fill: #c00;
      }

      .cls-8 {
        fill: #690;
      }
    </style>
    <radialGradient id="radial-gradient" cx="174.96" cy="175.04" fx="174.96" fy="175.04" r="153.5" gradientUnits="userSpaceOnUse">
      <stop offset="0" stop-color="#2d8be6"/>
      <stop offset="1" stop-color="#0d1433"/>
    </radialGradient>
    <radialGradient id="radial-gradient-2" cx="174.96" cy="175.04" fx="174.96" fy="175.04" r="160" gradientTransform="translate(175.02 -72.45) rotate(45)" gradientUnits="userSpaceOnUse">
      <stop offset="0" stop-color="#bfbfbf"/>
      <stop offset="1" stop-color="#000"/>
    </radialGradient>
  </defs>
  <g class="cls-10">
    <g id="Layer_1" data-name="Layer 1">
      <rect class="cls-9" width="350" height="350"/>
      <g>
        <circle class="cls-12" cx="175" cy="175" r="160"/>
        <path class="cls-2" d="M167.22,70.32c-54.38,3.96-97.26,49.33-97.26,104.72s42.88,100.75,97.26,104.72V70.32Z"/>
        <path class="cls-1" d="M174.96,70.04c-.75,0-1.5.01-2.24.03v209.94c.74.02,1.49.03,2.24.03,57.99,0,105-47.01,105-105s-47.01-105-105-105Z"/>
        <path class="cls-3" d="M174.96,21.54C90.19,21.54,21.46,90.26,21.46,175.04s68.72,153.5,153.5,153.5,153.5-68.72,153.5-153.5S259.74,21.54,174.96,21.54ZM174.96,286.54c-61.58,0-111.5-49.92-111.5-111.5s49.92-111.5,111.5-111.5,111.5,49.92,111.5,111.5-49.92,111.5-111.5,111.5Z"/>
        <polygon class="cls-4" points="189.12 165.48 187.28 168.24 185.6 171.8 184.6 175.64 184.28 179.6 184.6 183.56 185.6 187.4 187.28 191 189.52 194.32 192.28 197.12 195.52 199.44 199.04 201.24 201.8 202 200.64 202.24 197.76 203.72 195.2 205.72 193.08 208.12 191.48 210.96 190.52 214.04 190.2 217.28 190.52 220.48 191.48 223.56 193.08 226.36 195.2 228.88 197.76 230.84 200.64 232.28 203.8 233.08 206.84 233.24 208.84 233.24 208.44 233.4 206.6 235.08 205.2 237.2 204.36 239.56 204.04 242 204.36 244.48 205.2 246.84 206.6 248.96 208.44 250.64 210.68 251.8 213.12 252.44 215.36 252.48 223.96 252.48 224.4 252.48 224.44 252.48 224.44 252.56 224.44 252.56 224.44 252.56 220.24 261.32 227.96 255.48 228.88 254.92 230.84 253.44 232.84 251.64 234 249.6 234.52 248.28 234.68 246.92 234.64 245.56 234.2 244.36 233.56 243.2 235.84 242.56 237.96 241.6 239.8 240.12 241.4 238.4 242.56 236.36 243.52 233.72 243.84 231 243.52 228.24 242.56 225.56 241.08 223.24 239.12 221.24 237.08 219.84 240.2 219.8 243.48 219.2 246.6 218.04 249.48 216.44 252.04 214.36 254.28 211.92 256.08 209.16 257.36 206.08 258.2 202.88 258.44 199.64 258.2 196.28 257.36 193.08 256.08 190.04 254.28 187.28 252.04 184.84 249.48 182.72 246.6 181.12 243.92 180.16 245.72 179.84 249.28 178.76 252.68 177.04 255.12 175 258.12 172.28 260.56 169 262.52 165.48 263.88 161.72 264.72 157.88 265.24 154.4 265.36 150.88 265.08 147.36 264.52 143.8 263.64 140.28 262.36 136.8 260.8 133.56 259 130.4 256.96 127.32 254.72 124.44 252.24 121.84 248.12 117.72 242.52 124.08 219.2 124.08 218.04 125.8 216.96 127.6 216.64 128.6 203.96 128.6 204.04 127.48 200.44 125.8 198.72 124.76 197.12 123.64 195.96 122.8 194.76 121.96 193.56 121.4 192.12 120.8 190.16 120.68 188.24 121 186.52 121.76 184.92 123 183.8 124.64 183.24 126.56 183.36 128.6 184.12 130.48 185.4 132 187.28 133.16 189 133.92 187.84 133.68 185.56 133.72 183.36 134.32 181.32 135.4 179.64 136.92 178.36 138.84 177.56 140.96 177.28 143.28 177.6 145.52 178.36 147.68 179.64 149.56 181.4 151.08 183.44 152.16 185.6 152.76 187.92 152.8 188.6 152.6 186.64 154.04 185.04 156.2 184.28 157.92 184 159.96 184.52 161.96 185.68 163.64 187.28 164.84 189.12 165.48 189.12 165.48 189.12 165.48"/>
        <polygon class="cls-6" points="208 143 205.84 141.28 204.12 139.24 202.76 136.88 201.88 134.24 201.56 131.56 201.72 128.88 199.44 127.8 197.52 126.68 195.8 125.48 194.68 124.6 193.68 123.96 192.64 123.44 191.64 123.04 190.2 122.92 188.88 123.16 187.64 123.68 186.56 124.52 185.88 125.6 185.48 126.84 185.56 128.12 186.04 129.24 186.96 130.28 188.28 131.16 191.8 132.64 193.88 133.36 194.24 134.88 194.52 136.44 194.68 138.04 194.76 139.56 193.28 139.56 192.28 138.16 190.92 137.08 189.32 136.28 187.64 135.92 185.88 135.96 184.2 136.44 182.68 137.24 181.32 138.4 180.36 139.88 179.8 141.56 179.52 143.28 179.8 145 180.44 146.68 181.4 148.08 182.68 149.24 184.2 150.04 185.92 150.52 187.64 150.56 189.4 150.2 191 149.36 192.32 148.28 193.36 146.84 194.76 146.92 194.68 148.96 194.44 150.96 194.04 152.24 192.96 152.8 190.48 154.08 188.24 155.64 186.96 157.36 186.44 158.52 186.32 159.8 186.64 161 187.32 162.08 188.28 162.84 189.52 163.24 190.8 163.16 192 162.72 193.56 161.52 195.4 160.04 197.44 158.76 199.64 157.72 201.92 157.04 201.72 154.08 202.04 151.48 202.88 148.96 204.24 146.68 205.88 144.68 208 143 208 143 208 143"/>
        <polygon class="cls-8" points="248.28 121 243.48 126.32 220.36 126.32 219.92 127 219 128.48 218.32 130.84 203.96 130.84 203.92 133.6 204.68 136.16 206.2 138.48 208.28 140.2 210.76 141.28 213.44 141.6 220.16 141.6 220.16 143.8 213.44 143.8 210.76 144.36 208.4 145.72 206.36 147.56 204.92 149.92 204.24 152.56 204.16 155.32 222.52 155.32 223.76 155.32 224.32 155.56 224.76 155.88 224.92 156.6 224.76 157.36 224.28 158.04 223.56 158.52 222.8 158.64 221.52 158.68 206.92 158.68 203.32 159.16 199.88 160.12 196.68 161.72 193.72 163.8 191.24 166.36 189.2 169.32 187.72 172.6 186.84 176 186.52 179.6 186.84 183.16 187.72 186.64 189.2 189.88 191.24 192.84 193.72 195.4 196.68 197.52 199.88 199.12 203.32 200.12 206.92 200.52 234.76 200.52 235.4 200.6 235.96 200.92 236.36 201.4 236.48 202.04 236.36 202.64 235.96 203.2 235.4 203.52 234.76 203.52 206.92 203.52 204.12 203.72 201.4 204.44 198.92 205.64 196.76 207.32 194.96 209.4 193.6 211.84 192.76 214.52 192.44 217.28 192.76 220.04 193.6 222.68 194.96 225.08 196.76 227.2 198.92 228.92 201.4 230.16 204.12 230.84 206.92 231 229.2 231 229.76 231.04 230.28 231.36 230.6 231.8 230.72 232.4 230.6 232.96 230.28 233.4 229.76 233.72 229.2 233.8 215.36 233.8 213.44 233.88 211.52 234.32 209.8 235.28 208.32 236.6 207.24 238.2 206.52 240.08 206.28 242 206.52 243.96 207.24 245.84 208.32 247.44 209.8 248.76 211.52 249.72 213.44 250.2 215.36 250.24 224 250.24 224.96 250.24 225.8 250.64 226.44 251.32 226.68 252.24 226.68 253.12 226.24 253.96 226.68 253.64 227.64 253.08 229.44 251.72 231.04 250.24 231.96 248.64 232.32 247.68 232.44 246.68 232.28 245.64 231.88 244.68 231.16 243.84 230.36 243.28 229.32 242.96 228.28 242.88 217.4 242.88 217.16 242.76 216.92 242.64 216.72 242.32 216.64 242 216.72 241.72 216.92 241.4 217.16 241.28 217.4 241.16 231.36 241.16 233.68 240.92 235.8 240.12 237.72 238.92 239.36 237.32 240.6 235.4 241.28 233.24 241.56 231 241.28 228.68 240.6 226.56 239.36 224.64 237.72 223 235.8 221.76 233.68 221.08 231.36 220.8 209.88 220.8 209.28 220.76 208.84 220.56 208.4 220.16 208.12 219.72 208.08 219.2 208.12 218.68 208.4 218.2 208.84 217.88 209.28 217.6 209.88 217.6 237.08 217.6 240 217.56 242.88 217.04 245.64 216 248.2 214.6 250.52 212.76 252.48 210.56 254.04 208.08 255.24 205.4 255.96 202.52 256.2 199.64 255.96 196.68 255.24 193.8 254.04 191.12 252.48 188.6 250.52 186.44 248.2 184.64 245.64 183.16 242.88 182.16 240 181.64 237.08 181.56 209.48 181.56 208.92 181.56 208.4 181.32 207.96 180.92 207.68 180.44 207.56 179.92 207.68 179.32 207.96 178.84 208.4 178.44 208.92 178.2 209.48 178.2 238.52 178.2 241.88 178.2 245.2 177.68 248.4 176.64 251.4 175.12 253.64 173.36 256.44 170.72 258.68 167.8 260.48 164.52 261.76 161.08 262.52 157.48 263 154.2 263.12 150.88 262.84 147.64 262.36 144.24 261.44 140.92 260.28 137.72 258.76 134.56 257.08 131.56 255.12 128.68 253 125.92 250.64 123.36 248.28 121 248.28 121 248.28 121"/>
        <polygon class="cls-5" points="200.72 120.76 238.84 120.76 238.84 116.96 200.72 116.96 200.72 120.76 200.72 120.76 200.72 120.76"/>
        <polygon class="cls-6" points="200.72 116.32 238.84 116.32 238.84 112.6 200.72 112.6 200.72 116.32 200.72 116.32 200.72 116.32"/>
        <polygon class="cls-5" points="200.52 111.8 238.72 111.8 238.72 108.08 200.52 108.08 200.52 111.8 200.52 111.8 200.52 111.8"/>
        <polygon class="cls-5" points="238.92 102.44 238.8 101.68 238.52 100.92 238.08 100.28 237.52 99.68 236.8 99.32 236.04 99.12 235.28 99.04 234.52 99.16 233.72 99.48 233.08 99.96 232.6 100.6 232.28 101.28 232.08 102.04 232.08 102.88 232.28 103.64 232.6 104.36 233.08 104.92 233.72 105.44 234.52 105.76 235.28 105.88 236.04 105.84 236.8 105.64 237.52 105.2 238.08 104.68 238.52 103.96 238.8 103.28 238.92 102.44 238.92 102.44 238.92 102.44"/>
        <polygon class="cls-5" points="231 102.44 230.92 101.68 230.68 100.92 230.2 100.28 229.64 99.68 228.92 99.32 228.16 99.12 227.4 99.04 226.56 99.16 225.88 99.48 225.24 99.96 224.72 100.6 224.32 101.28 224.2 102.04 224.2 102.88 224.32 103.64 224.72 104.36 225.24 104.92 225.88 105.44 226.56 105.76 227.4 105.88 228.16 105.84 228.92 105.64 229.64 105.2 230.2 104.68 230.68 103.96 230.92 103.28 231 102.44 231 102.44 231 102.44"/>
        <polygon class="cls-5" points="223.12 102.44 223.04 101.68 222.72 100.92 222.36 100.28 221.76 99.68 221.08 99.32 220.28 99.12 219.48 99.04 218.68 99.16 218 99.48 217.36 99.96 216.84 100.6 216.44 101.28 216.28 102.04 216.28 102.88 216.44 103.64 216.84 104.36 217.36 104.92 218 105.44 218.68 105.76 219.48 105.88 220.28 105.84 221.08 105.64 221.76 105.2 222.36 104.68 222.72 103.96 223.04 103.28 223.12 102.44 223.12 102.44 223.12 102.44"/>
        <polygon class="cls-5" points="215.24 102.44 215.12 101.68 214.84 100.92 214.4 100.28 213.84 99.68 213.2 99.32 212.44 99.12 211.6 99.04 210.84 99.16 210.12 99.48 209.48 99.96 208.96 100.6 208.6 101.28 208.4 102.04 208.4 102.88 208.6 103.64 208.96 104.36 209.48 104.92 210.12 105.44 210.84 105.76 211.6 105.88 212.44 105.84 213.2 105.64 213.84 105.2 214.4 104.68 214.84 103.96 215.12 103.28 215.24 102.44 215.24 102.44 215.24 102.44"/>
        <polygon class="cls-5" points="207.36 102.44 207.24 101.68 207 100.92 206.52 100.28 205.96 99.68 205.24 99.32 204.48 99.12 203.72 99.04 202.96 99.16 202.2 99.48 201.56 99.96 201.04 100.6 200.72 101.28 200.52 102.04 200.52 102.88 200.72 103.64 201.04 104.36 201.56 104.92 202.2 105.44 202.96 105.76 203.72 105.88 204.48 105.84 205.24 105.64 205.96 105.2 206.52 104.68 207 103.96 207.24 103.28 207.36 102.44 207.36 102.44 207.36 102.44"/>
        <g>
          <polygon class="cls-2" points="262.08 56.24 268.56 62.04 262.48 77.4 276.92 69.56 283.4 75.32 267.8 100.52 261.76 95.16 271.76 79.92 255.24 89.32 251.96 86.44 258.88 68.52 245.32 80.44 239.24 75 262.08 56.24 262.08 56.24 262.08 56.24"/>
          <polygon class="cls-2" points="68.08 74.92 72.88 78.96 67 86 70.56 89 75.56 83.04 80.56 87.2 75.64 93.08 84.64 100.64 79.52 106.8 57.08 88.12 68.08 74.92 68.08 74.92 68.08 74.92"/>
          <polygon class="cls-2" points="42.68 112.76 62.76 122.28 66.6 114.28 67.56 114.76 72.8 117.28 65.56 132.52 39.2 119.96 42.68 112.76 42.68 112.76 42.68 112.76"/>
          <polygon class="cls-2" points="290.2 127.48 284.16 130.48 276.24 114.72 302.36 101.6 310.2 117.28 304.64 120.12 300.36 111.52 296.12 113.72 299.72 120.88 294.04 123.76 290.36 116.6 285.84 118.88 290.2 127.48 290.2 127.48 290.2 127.48"/>
          <path class="cls-2" d="M233.08,48.48l-.36-1.84-.6-1.8-.8-1.72-1.04-1.48-1.2-1.4-1.36-1.24-1.52-1.12-1.76-1.04-1.84-.76-1.92-.64-2-.4-1.44-.08-.52-.04-1.92.08-1.8.24-1.72.44-1.68.64-1.48.92-1.32,1-1.28,1.16-1.16,1.4-1.04,1.56-.76,1.64-.64,1.72-.36,1.68-.2,1.72-.08,1.72.28,1.8.44,1.8.64,1.68.88,1.6,1.04,1.44,1.2,1.28,1.36,1.24,1.6,1.08,1.8.96,1.84.72,1.8.56,1.84.32,1.24.08.64.04,1.92-.04,1.92-.32,1.76-.52,1.76-.76,1.6-.96,1.44-1.16,1.28-1.36,1.04-1.32.84-1.56.68-1.6.6-1.72.36-1.84.08-1.92-.08-1.88ZM225.04,50.52l-.2,1.36-.4,1.28-.56,1.2-.76,1.12-.96.96-1.08.8-1.24.6-1.28.32-1.32.12-1.36-.08-1.28-.36-1.28-.52-1.08-.76-.96-.92-.84-1.08-.56-1.2-.4-1.24-.2-1.32.12-1.36.28-1.28.52-1.32.76-1.28.88-1.12,1.04-.88,1.16-.72,1.2-.48,1.36-.28h1.32l1.4.28,1.28.44,1.24.68,1,.92.84,1,.72,1.24.36,1.28.28,1.32v1.28Z"/>
          <path class="cls-2" d="M180.48,46.04l1.04-.36,1.08-.6.96-.68.84-.84.68-1.04.52-1,.4-1.04.24-1.28.12-1.28-.04-1.2-.28-1.28-.44-1.28-.64-1.16-.76-1.04-.88-.88-1.12-.76-1.12-.64-1.44-.44-1.4-.4-2.12-.12h-.76l-10.32-.12-.32,29.16,7.8.08.12-10.76,7.32,10.88,9.6.12-9.08-12.04ZM178.76,38.76l-.24.96-.4.76-.52.64-.64.44-.68.28-.72.04h-.2l-2.6-.04.08-6.68,2.52.08h.52l.84.2.68.36.6.52.52.84.24.84v.76Z"/>
          <path class="cls-2" d="M321.16,156.32l-.32-1.96-.52-1.92-.68-1.88-.92-1.64-1-1.56-1.24-1.4-1.32-1.16-1.44-.96-1.52-.76-1.6-.56-1.72-.48-1.88-.16h-1.84l-1.8.16-1.64.4-1.68.56-1.52.8-1.56.96-1.4,1.2-1.2,1.36-1.04,1.52-.84,1.52-.64,1.68-.52,1.72-.24,2-.08,1.96.16,2,.32,1.84.48,1.8.8,1.72.88,1.68,1.08,1.6,1.28,1.4,1.4,1.24,1.6.96,1.76.8,1.64.6,1.72.32,1.76.04h.24l1.48-.04,1.84-.28,1.8-.48,1.8-.8,1.6-.88,1.52-1.16,1.36-1.32,1.16-1.48.88-1.6.72-1.68.48-1.72.32-1.92.16-2-.08-2.04ZM314.12,158.88l-.32,1.36-.56,1.2-.8,1.16-.96.96-1.08.76-1.2.64-1.24.4-1.32.2h-1.36l-1.32-.2-1.28-.4-1.16-.64-1.08-.84-.92-1-.68-1.16-.52-1.2-.28-1.36-.04-1.36.2-1.28.36-1.28.64-1.2.76-1.08.96-.92,1.16-.68,1.24-.52,1.28-.32,1.4-.12h.12l1.4.12,1.36.32,1.2.52,1.16.68,1.04.92.8,1,.6,1.28.36,1.36.2,1.36-.12,1.32Z"/>
          <path class="cls-2" d="M59.8,152.48l1.16-8.24-30.44,7.36-1.24,9,27.48,14.56,1.08-8.08-4.92-2.56,1.44-10.76,5.44-1.28ZM47.28,161.84l-9.92-4.8,10.8-2.04-.88,6.84Z"/>
          <path class="cls-2" d="M92.08,54.56l-7.44,5.4,8.52,29.88,6.64-4.8-1.6-5.4,8.8-6.4,4.72,3.08,6.72-4.84-26.36-16.92ZM101.56,69.92l-5.28,3.8-3.36-10.44,8.64,6.16.32.24-.32.24Z"/>
        </g>
        <path class="cls-7" d="M167.22,156.04h-27.46v-79.95c-11.31,4.02-21.73,9.93-30.88,17.35v62.6h-37.2c-1.13,6.16-1.72,12.51-1.72,19,0,4.14.24,8.22.71,12.24h38.21v69.36c9.15,7.42,19.57,13.32,30.88,17.35v-86.71h27.46v-31.24Z"/>
        <path class="cls-6" d="M167.22,161.04h-32.46v-83.02c-7.43,3.08-14.43,6.99-20.88,11.61v71.41h-42.99c-.61,4.58-.93,9.25-.93,14,0,2.43.09,4.85.25,7.24h43.67v78.17c6.45,4.62,13.45,8.53,20.88,11.61v-89.78h32.46v-21.24Z"/>
        <circle class="cls-11" cx="174.96" cy="175.04" r="160" transform="translate(-72.53 174.98) rotate(-45)"/>
      </g>
    </g>
  </g>
</svg>