<?xml version="1.0" encoding="UTF-8"?>
<svg id="Warstwa_1" data-name="Warstwa 1" xmlns="http://www.w3.org/2000/svg" viewBox="0 0 512 512">
  <defs>
    <style>
      .cls-1 {
        fill: #000;
      }

      .cls-1, .cls-2 {
        stroke-width: 0px;
      }

      .cls-2 {
        fill: #fff;
      }
    </style>
  </defs>
  <path class="cls-1" d="M255.28,399c38.46,0,74.62-14.98,101.82-42.18,27.2-27.2,42.18-63.36,42.18-101.82s-14.98-74.62-42.18-101.82c-27.2-27.2-63.36-42.18-101.82-42.18-79.4,0-144,64.6-144,144,0,38.46,14.98,74.62,42.18,101.82,27.2,27.2,63.36,42.18,101.82,42.18Z"/>
  <path class="cls-2" d="M116.26,255c0-37.13,14.46-72.04,40.72-98.3,26.26-26.26,61.17-40.72,98.3-40.72s72.04,14.46,98.3,40.72c26.26,26.26,40.72,61.17,40.72,98.3,0,76.65-62.36,139.02-139.02,139.02-37.13,0-72.04-14.46-98.3-40.72-26.26-26.26-40.72-61.17-40.72-98.3Z"/>
  <path class="cls-1" d="M255.28,121.71c-73.61,0-133.29,59.68-133.29,133.29s59.68,133.29,133.29,133.29,133.29-59.68,133.29-133.29-59.68-133.29-133.29-133.29h0Z"/>
  <path class="cls-2" d="M255.28,340.14c-47.02,0-85.14-38.12-85.14-85.14s38.12-85.14,85.14-85.14,85.14,38.12,85.14,85.14-38.12,85.14-85.14,85.14Z"/>
  <path class="cls-1" d="M175.61,255h79.66v-79.66c-44,0-79.66,35.67-79.66,79.66ZM255.28,255v79.66c44,0,79.66-35.67,79.66-79.66h-79.66Z"/>
  <path class="cls-2" d="M192.71,173.77c-2.82-2.74-7.18-3.57-11.28-1.03.78-2.03.46-4.1.05-5.24-1.76-3.22-2.38-3.62-3.83-4.84-4.71-3.95-9.66-.58-13.2,3.64l-17.12,20.4,26.91,22.58,18.05-21.51c4.12-4.92,4.76-9.79.43-14h0ZM259.74,164.07l9.24-24.5v24.5h7.02v-35.08h-10.55l-9.6,25.12h.1l-9.6-25.12h-10.55v35.08h7.02v-24.5l9.24,24.5h7.67ZM354.17,178.67l-13.22,18.72,20.5-9.73,5.43,6.7-32.27,15.64-6.37-7.93,12.69-18.56-.08-.09-20.79,8.56-6.43-7.88,22.01-28.31,5.43,6.7-13.78,18.03,21.06-9.04,5.82,7.19h0Z"/>
  <path class="cls-1" d="M168.18,171.35c1.19-1.42,3.88-1.36,5.61.09,1.9,1.6,1.91,3.86.63,5.39l-10.17,12.12-6.36-5.34,10.28-12.25ZM186.27,185.64l-10.72,12.77-6.72-5.64,10.81-12.88c1.22-1.45,3.94-1.88,5.78-.34,2.08,1.74,2.28,4.38.86,6.08h0Z"/>
</svg>