<?xml version="1.0" encoding="UTF-8"?>
<svg id="Warstwa_1" data-name="Warstwa 1" xmlns="http://www.w3.org/2000/svg" xmlns:xlink="http://www.w3.org/1999/xlink" viewBox="0 0 512 512">
  <defs>
    <style>
      .cls-1 {
        fill: url(#New_Gradient_Swatch_3);
      }

      .cls-1, .cls-2, .cls-3, .cls-4, .cls-5, .cls-6, .cls-7, .cls-8, .cls-9, .cls-10, .cls-11 {
        stroke-width: 0px;
      }

      .cls-2 {
        fill: url(#New_Gradient_Swatch_2);
      }

      .cls-3 {
        fill: #0d0f11;
      }

      .cls-4 {
        fill: url(#linear-gradient);
      }

      .cls-5 {
        fill: url(#radial-gradient);
      }

      .cls-6 {
        fill: url(#radial-gradient-2);
      }

      .cls-7 {
        fill: url(#radial-gradient-3);
      }

      .cls-8 {
        fill: url(#linear-gradient-4);
      }

      .cls-9 {
        fill: url(#linear-gradient-2);
      }

      .cls-10 {
        fill: url(#linear-gradient-3);
      }

      .cls-11 {
        fill: #b1b1b1;
      }
    </style>
    <linearGradient id="linear-gradient" x1="151.22" y1="150.71" x2="358.42" y2="357.91" gradientUnits="userSpaceOnUse">
      <stop offset=".12" stop-color="#e3e3e2"/>
      <stop offset=".19" stop-color="#d7d7d6"/>
      <stop offset=".33" stop-color="#bab9b9"/>
      <stop offset=".45" stop-color="#9c9b9b"/>
      <stop offset=".58" stop-color="#9c9b9b"/>
      <stop offset=".9" stop-color="#d9d9d9"/>
    </linearGradient>
    <radialGradient id="radial-gradient" cx="174.91" cy="96.43" fx="174.91" fy="96.43" r="240.35" gradientUnits="userSpaceOnUse">
      <stop offset="0" stop-color="#d8dde7"/>
      <stop offset=".15" stop-color="#b6bac3"/>
      <stop offset=".57" stop-color="#5b5f64"/>
      <stop offset=".86" stop-color="#232528"/>
      <stop offset="1" stop-color="#0d0f11"/>
    </radialGradient>
    <linearGradient id="linear-gradient-2" x1="300.06" y1="167.79" x2="300.06" y2="253.75" gradientUnits="userSpaceOnUse">
      <stop offset=".74" stop-color="#fff"/>
      <stop offset="1" stop-color="#ececec"/>
    </linearGradient>
    <radialGradient id="radial-gradient-2" cx="253.71" cy="253.11" fx="253.71" fy="253.11" r="85.46" gradientUnits="userSpaceOnUse">
      <stop offset=".34" stop-color="#2e91d0"/>
      <stop offset=".8" stop-color="#83c9f0"/>
    </radialGradient>
    <linearGradient id="New_Gradient_Swatch_2" data-name="New Gradient Swatch 2" x1="210.97" y1="256.54" x2="210.97" y2="342.38" gradientUnits="userSpaceOnUse">
      <stop offset=".47" stop-color="#fff"/>
      <stop offset=".99" stop-color="#d9d9d9"/>
    </linearGradient>
    <radialGradient id="radial-gradient-3" cx="256.48" cy="255.87" fx="256.48" fy="255.87" r="86.62" gradientUnits="userSpaceOnUse">
      <stop offset=".41" stop-color="#2e91d0"/>
      <stop offset=".86" stop-color="#1d669a"/>
    </radialGradient>
    <linearGradient id="New_Gradient_Swatch_3" data-name="New Gradient Swatch 3" x1="234.71" y1="158.06" x2="277.37" y2="123.07" gradientUnits="userSpaceOnUse">
      <stop offset=".49" stop-color="#fff"/>
      <stop offset=".62" stop-color="#f5f5f4"/>
      <stop offset=".85" stop-color="#dadada"/>
      <stop offset="1" stop-color="#c6c6c5"/>
    </linearGradient>
    <linearGradient id="linear-gradient-3" x1="141.48" y1="179.82" x2="192.18" y2="179.82" gradientUnits="userSpaceOnUse">
      <stop offset=".64" stop-color="#fff"/>
      <stop offset=".74" stop-color="#f5f5f4"/>
      <stop offset=".9" stop-color="#dadada"/>
      <stop offset="1" stop-color="#c6c6c5"/>
    </linearGradient>
    <linearGradient id="linear-gradient-4" x1="320.05" y1="178.37" x2="371.19" y2="178.37" gradientUnits="userSpaceOnUse">
      <stop offset=".23" stop-color="#fff"/>
      <stop offset=".43" stop-color="#f5f5f4"/>
      <stop offset=".78" stop-color="#dadada"/>
      <stop offset="1" stop-color="#c6c6c5"/>
    </linearGradient>
  </defs>
  <path class="cls-4" d="M255.51,111c-80.46,0-145.71,64.47-145.71,144s65.25,144,145.71,144,145.72-64.47,145.72-144-65.24-144-145.72-144h0Z"/>
  <path class="cls-3" d="M395.69,255c0,77.41-62.76,140.17-140.18,140.17s-140.17-62.76-140.17-140.17,62.75-140.17,140.17-140.17,140.18,62.75,140.18,140.17Z"/>
  <path class="cls-5" d="M395.03,255c0,77.06-62.45,139.52-139.52,139.52s-139.52-62.45-139.52-139.52,62.46-139.53,139.52-139.53,139.52,62.47,139.52,139.53Z"/>
  <path class="cls-3" d="M349.02,255c0,50.95-41.87,92.25-93.52,92.25s-93.51-41.31-93.51-92.25,41.87-92.28,93.51-92.28,93.52,41.31,93.52,92.28Z"/>
  <path class="cls-11" d="M346.63,255c0,50.07-40.79,90.66-91.12,90.66s-91.11-40.59-91.11-90.66,40.79-90.68,91.11-90.68,91.12,40.6,91.12,90.68Z"/>
  <path class="cls-9" d="M257.07,253.43h85.99c-.84-47.12-38.86-85.13-85.99-85.96v85.96Z"/>
  <path class="cls-6" d="M253.96,253.43v-85.96c-47.12.82-85.14,38.83-85.97,85.95h85.97Z"/>
  <path class="cls-2" d="M253.96,256.54h-85.97c.81,47.13,38.84,85.18,85.97,86v-86Z"/>
  <path class="cls-7" d="M257.07,256.54v86c47.14-.83,85.17-38.87,85.99-86h-85.99Z"/>
  <g>
    <polygon class="cls-3" points="261.12 159 270.44 133.35 270.8 159.31 279.54 160.69 278.94 123.62 266.84 122.24 257.05 148.57 257.15 148.57 247.34 122.24 235.22 123.62 234.63 160.69 243.38 159.31 243.74 133.35 253.07 159 261.12 159"/>
    <polygon class="cls-3" points="361.54 174.45 348.97 192.8 368.71 183.07 372.98 190.59 341.45 205.11 336.69 197.5 348.76 179.33 348.69 179.25 328.64 187.82 321.84 181.35 342.02 153.6 348.6 158.94 335.49 176.61 355.77 167.56 361.54 174.45"/>
    <path class="cls-3" d="M190.29,169.19c-2.97-2.89-7.54-3.75-11.82-1.08.8-2.14.47-4.3.05-5.49-1.85-3.39-2.5-3.81-4.02-5.08-4.95-4.14-10.13-.62-13.85,3.83l-17.94,21.37,28.2,23.66,18.93-22.55c4.31-5.14,4.99-10.25.45-14.66h0ZM153.79,179.49h0l10.77-12.85c1.25-1.48,4.07-1.43,5.89.11,2.01,1.66,2.02,4.04.66,5.64l-10.65,12.71-6.67-5.61h0ZM183.54,181.63h0l-11.23,13.39-7.07-5.91,11.33-13.5c1.28-1.53,4.12-1.96,6.05-.35,2.19,1.83,2.41,4.59.91,6.38Z"/>
  </g>
  <polygon class="cls-1" points="259.33 157.77 268.65 132.12 269.01 158.08 277.75 159.46 277.16 122.4 265.05 121.02 255.26 147.35 255.36 147.35 245.56 121.02 233.44 122.4 232.85 159.46 241.6 158.08 241.96 132.12 251.29 157.77 259.33 157.77"/>
  <path class="cls-10" d="M189.07,167.96c-2.97-2.89-7.54-3.75-11.82-1.08.8-2.14.47-4.3.05-5.49-1.85-3.39-2.5-3.81-4.02-5.08-4.95-4.14-10.13-.62-13.85,3.83l-17.94,21.37,28.2,23.66,18.93-22.55c4.31-5.14,4.99-10.25.45-14.66h0ZM152.56,178.26h0l10.77-12.85c1.25-1.48,4.07-1.43,5.89.11,2.01,1.66,2.02,4.04.66,5.64l-10.65,12.71-6.67-5.61h0ZM182.31,180.41h0l-11.23,13.39-7.07-5.91,11.33-13.5c1.28-1.53,4.12-1.96,6.05-.35,2.19,1.83,2.41,4.59.91,6.38Z"/>
  <polygon class="cls-8" points="360.18 173.98 347.18 191.81 366.92 182.09 371.19 189.6 339.66 204.13 334.9 196.52 346.97 178.35 346.9 178.27 326.85 186.84 320.05 180.37 340.24 152.62 346.82 157.96 333.7 175.62 354.41 167.09 360.18 173.98"/>
</svg>