<?xml version="1.0" encoding="UTF-8"?>
<svg id="Warstwa_1" data-name="Warstwa 1" xmlns="http://www.w3.org/2000/svg" viewBox="0 0 512 512">
  <defs>
    <style>
      .cls-1 {
        fill: #fff;
      }

      .cls-1, .cls-2 {
        fill-rule: evenodd;
        stroke-width: 0px;
      }

      .cls-2 {
        fill: #000;
      }
    </style>
  </defs>
  <path class="cls-2" d="M61.69,393.33c-22.44,0-40.69-18.36-40.69-41.12s18.25-41.12,40.69-41.12c14.82,0,27.81,7.94,35,19.97l-14.39,8.48c-4.08-6.76-12.02-11.7-20.61-11.7-12.88,0-24.16,11.38-24.16,24.37s11.27,24.37,24.16,24.37c8.59,0,16.64-4.83,20.61-11.92l14.49,8.59c-7.19,12.02-20.18,20.07-35.11,20.07h0ZM120.84,391.4h-17.39v-78.15h17.39v78.15h0ZM167.97,391.43h-17.39v-61.65h-24.69v-16.53h66.78v16.53h-24.69v61.65h0ZM214.35,349.1h18.79c6.55,0,12.24-2.68,12.24-10.31s-5.26-10.63-12.24-10.63h-18.79v20.93h0ZM214.35,363.38v28.02h-16.85v-78.15h38.11c16.75,0,26.73,9.34,26.73,25.34,0,12.78-6.44,20.83-17.07,23.62l20.5,29.2h-19.75l-18.14-28.02h-13.53ZM308.82,393.76c-22.76,0-41.22-18.68-41.22-41.22s18.47-41.22,41.22-41.22,41.76,18.47,41.76,41.22-18.89,41.22-41.76,41.22h0ZM308.82,328.59c-13.31,0-23.94,10.84-23.94,24.16s10.84,23.73,23.94,23.73,23.94-10.63,23.94-23.73-10.52-24.16-23.94-24.16h0ZM381.07,304.44c0,3.76-3.44,6.76-7.19,6.76s-6.66-3.01-6.66-6.76,3.01-6.87,6.87-6.87,6.98,3.11,6.98,6.87h0ZM406.08,304.44c0,3.76-3.33,6.76-7.19,6.76s-6.55-3.01-6.55-6.76,3.01-6.87,6.76-6.87,6.98,3.11,6.98,6.87h0ZM373.98,328.81v14.71h37.25v14.28h-37.25v17.39h42.19v16.21h-58.94s0-70.64,0-70.53v-7.62h58.94v15.57h-42.19ZM439.36,339.97v51.42h-16.96v-78.15h20.5l31.03,52.82v-52.82h17.07v78.15h-20.93l-30.7-51.42h0Z"/>
  <polygon class="cls-2" points="334.33 273.97 334.33 117.24 177.6 117.24 177.6 273.97 334.33 273.97 334.33 273.97"/>
  <polygon class="cls-1" points="182.83 268.75 255.96 206.05 329.11 268.75 255.96 172.4 182.83 268.75 182.83 268.75"/>
  <polygon class="cls-1" points="255.96 122.47 182.83 218.81 255.96 156.12 329.12 218.81 255.96 122.47 255.96 122.47"/>
</svg>