<?xml version="1.0" encoding="UTF-8"?>
<svg id="Warstwa_1" data-name="Warstwa 1" xmlns="http://www.w3.org/2000/svg" xmlns:xlink="http://www.w3.org/1999/xlink" viewBox="0 0 512 512">
  <defs>
    <style>
      .cls-1 {
        stroke-width: 2px;
      }

      .cls-1, .cls-2 {
        fill: #1d1d1b;
        stroke: #fff;
        stroke-miterlimit: 10;
      }

      .cls-3 {
        fill: none;
      }

      .cls-3, .cls-4, .cls-5, .cls-6, .cls-7, .cls-8, .cls-9, .cls-10, .cls-11, .cls-12, .cls-13, .cls-14, .cls-15, .cls-16, .cls-17, .cls-18, .cls-19 {
        stroke-width: 0px;
      }

      .cls-4 {
        fill: #333;
      }

      .cls-5 {
        fill: url(#linear-gradient);
      }

      .cls-6 {
        fill: url(#linear-gradient-10);
      }

      .cls-7 {
        fill: #c6c6c5;
      }

      .cls-8 {
        fill: url(#linear-gradient-4);
      }

      .cls-9 {
        fill: url(#linear-gradient-2);
      }

      .cls-10 {
        fill: url(#linear-gradient-3);
      }

      .cls-11 {
        fill: url(#linear-gradient-8);
      }

      .cls-12 {
        fill: url(#linear-gradient-9);
      }

      .cls-13 {
        fill: url(#linear-gradient-7);
      }

      .cls-14 {
        fill: url(#linear-gradient-5);
      }

      .cls-15 {
        fill: url(#linear-gradient-6);
      }

      .cls-16 {
        fill: #b3b3b3;
      }

      .cls-17 {
        fill: #fff;
      }

      .cls-18 {
        fill: url(#Nouvelle_nuance_de_dégradé_13);
      }

      .cls-19 {
        fill: url(#Nouvelle_nuance_de_dégradé_2);
      }
    </style>
    <linearGradient id="Nouvelle_nuance_de_dégradé_13" data-name="Nouvelle nuance de dégradé 13" x1="256.32" y1="337.81" x2="256.32" y2="260.7" gradientUnits="userSpaceOnUse">
      <stop offset="0" stop-color="#333"/>
      <stop offset=".91" stop-color="#333"/>
      <stop offset=".93" stop-color="#232323"/>
      <stop offset="1" stop-color="#000"/>
    </linearGradient>
    <linearGradient id="Nouvelle_nuance_de_dégradé_2" data-name="Nouvelle nuance de dégradé 2" x1="256.35" y1="109.78" x2="256.35" y2="265.66" gradientUnits="userSpaceOnUse">
      <stop offset="0" stop-color="#333"/>
      <stop offset=".04" stop-color="#2c2c2c"/>
      <stop offset=".06" stop-color="#252525"/>
      <stop offset=".11" stop-color="#141414"/>
      <stop offset=".18" stop-color="#080808"/>
      <stop offset=".28" stop-color="#010101"/>
      <stop offset=".54" stop-color="#000"/>
      <stop offset="1" stop-color="#121212"/>
    </linearGradient>
    <linearGradient id="linear-gradient" x1="339.49" y1="183.58" x2="339.49" y2="164.96" gradientUnits="userSpaceOnUse">
      <stop offset="0" stop-color="#1a1a1a"/>
      <stop offset=".04" stop-color="#5d5d5d"/>
      <stop offset=".07" stop-color="#979697"/>
      <stop offset=".1" stop-color="#c4c2c4"/>
      <stop offset=".12" stop-color="#e4e2e4"/>
      <stop offset=".14" stop-color="#f7f6f7"/>
      <stop offset=".16" stop-color="#fffdff"/>
      <stop offset=".19" stop-color="#f0eff1"/>
      <stop offset=".25" stop-color="#dddddf"/>
      <stop offset=".31" stop-color="#d2d3d5"/>
      <stop offset=".37" stop-color="#cfd0d2"/>
      <stop offset=".68" stop-color="#cdced0"/>
      <stop offset=".79" stop-color="#c6c7c9"/>
      <stop offset=".86" stop-color="#bbbbbe"/>
      <stop offset=".93" stop-color="#abaaad"/>
      <stop offset=".98" stop-color="#969498"/>
      <stop offset="1" stop-color="#8d8b8f"/>
    </linearGradient>
    <linearGradient id="linear-gradient-2" x1="222.81" x2="222.81" xlink:href="#linear-gradient"/>
    <linearGradient id="linear-gradient-3" x1="218.27" y1="175.94" x2="215.56" y2="170.34" gradientUnits="userSpaceOnUse">
      <stop offset="0" stop-color="#fff"/>
      <stop offset=".2" stop-color="#f6f6f6"/>
      <stop offset=".52" stop-color="#e1e1e1"/>
      <stop offset=".9" stop-color="#bdbdbd"/>
      <stop offset="1" stop-color="#b3b3b3"/>
    </linearGradient>
    <linearGradient id="linear-gradient-4" x1="334.94" y1="175.86" x2="332.26" y2="170.24" xlink:href="#linear-gradient-3"/>
    <linearGradient id="linear-gradient-5" x1="167.54" y1="177.87" x2="181.51" y2="183.56" xlink:href="#linear-gradient-3"/>
    <linearGradient id="linear-gradient-6" x1="170.89" y1="178.91" x2="168.71" y2="174.8" xlink:href="#linear-gradient-3"/>
    <linearGradient id="linear-gradient-7" x1="215.96" y1="178.33" x2="226.28" y2="181.17" xlink:href="#linear-gradient-3"/>
    <linearGradient id="linear-gradient-8" x1="332.38" y1="178.36" x2="342.39" y2="181.31" xlink:href="#linear-gradient-3"/>
    <linearGradient id="linear-gradient-9" x1="268.15" y1="172.63" x2="268.15" y2="187.71" xlink:href="#linear-gradient-3"/>
    <linearGradient id="linear-gradient-10" x1="274.24" y1="183.1" x2="274.24" y2="169.64" xlink:href="#linear-gradient-3"/>
  </defs>
  <g>
    <path class="cls-3" d="M180.69,262.52c2.01,6.09,14.26,36.07,16.36,40.95,4.61,10.83,9.46,21.12,17.09,28.03,5.56,5.05,13.47,9.68,31.67,10.36,3.5.14,8,.14,10.5.14s7,0,10.5-.14c18.2-.69,26.11-5.31,31.67-10.36,7.64-6.92,12.48-17.2,17.09-28.03,2.1-4.88,14.35-34.86,16.36-40.95-24.96,1.23-52.68,2.13-75.63,2.13s-50.67-.9-75.63-2.13Z"/>
    <path class="cls-4" d="M105.07,112.36l-6.69.76s-2.78.48-2.78.48c-4.5,1.21-7.47,5.64-6.9,10.32,0,0,1.24,7.09,1.24,7.09,2.18,12.07,4.6,24.22,7.19,36.1,2.53,11.62,5.36,23.59,8.4,35.57,0,0,5.68,21.45,5.68,21.45l8.55,29.65,9.27,29.52c3.49,10.67,14.36,41.83,16.38,46.96,8.96,22.68,18.45,40.57,35.69,54.19,17.56,13.87,36.54,18.55,75.23,18.55s57.62-4.68,75.17-18.55c17.24-13.63,26.74-31.52,35.69-54.19,2.02-5.1,12.89-36.26,16.38-46.96l9.27-29.53,8.55-29.65,5.67-21.45c3.02-11.89,5.85-23.86,8.41-35.57,2.6-11.93,5.02-24.08,7.19-36.1l1.24-7.1c.05-.38.07-.76.07-1.13,0-4.23-2.84-8.06-6.97-9.17,0,0-2.78-.48-2.78-.48,0,0-6.69-.76-6.69-.76-22.76-2.01-93.77-4.36-151.21-4.36s-128.48,2.34-151.24,4.36ZM183.7,381.15c-16.5-13.04-25.68-30.39-34.38-52.44-1.96-4.95-12.92-36.39-16.3-46.72l-9.24-29.43s-8.52-29.55-8.52-29.55l-5.66-21.37c-3.03-11.94-5.85-23.86-8.37-35.43-2.58-11.83-4.99-23.93-7.16-35.95l-1.21-6.89c-.31-2.57,1.33-5.04,3.83-5.71,0,0,2.28-.38,2.28-.38l6.47-.73c22.67-2.01,93.52-4.34,150.87-4.34s128.16,2.33,150.84,4.34l6.47.73,2.28.38c2.49.67,4.14,3.14,3.82,5.75,0-.03-1.2,6.84-1.2,6.84-2.16,11.97-4.57,24.06-7.16,35.95-2.54,11.66-5.36,23.58-8.37,35.43l-5.65,21.37-8.51,29.55-9.24,29.43c-3.39,10.36-14.35,41.8-16.3,46.72-8.7,22.04-17.88,39.39-34.38,52.44-14.82,11.7-30.11,17.64-72.57,17.64s-58.14-6.2-72.62-17.65ZM417,113.6l-.09-.03s.09.03.09.03ZM417,113.6h0,0Z"/>
    <path class="cls-1" d="M416.45,115.63c-.53-.14-1.66-.31-2.53-.43-1.99-.28-4.17-.53-6.58-.75-22.14-1.96-92.33-4.35-151.02-4.35s-128.92,2.39-151.06,4.35c-2.41.21-4.59.47-6.58.75-.87.13-2,.29-2.53.43-3.67.98-5.79,4.55-5.36,8.03.03.2.92,5.3,1.22,6.96,2.18,12.05,4.57,24.06,7.18,36.02,2.59,11.88,5.39,23.72,8.39,35.5,1.82,7.15,3.71,14.29,5.67,21.41,1.44,5.25,5.87,20.76,8.53,29.6,2.97,9.86,6.05,19.69,9.25,29.48,3.49,10.67,14.38,41.87,16.34,46.84,8.94,22.65,18.44,40.2,35.04,53.32,16.07,12.69,33.14,18.1,73.93,18.1s57.8-5.4,73.87-18.1c16.59-13.12,26.09-30.67,35.04-53.32,1.97-4.97,12.86-36.17,16.34-46.84,3.2-9.79,6.29-19.62,9.26-29.48,2.66-8.84,7.09-24.35,8.53-29.6,1.95-7.12,3.85-14.26,5.66-21.41,3-11.79,5.8-23.62,8.39-35.5,2.61-11.96,5-23.98,7.18-36.02.3-1.66,1.2-6.77,1.22-6.96.42-3.48-1.69-7.05-5.37-8.03ZM315.58,303.47c-4.61,10.83-9.46,21.12-17.09,28.03-5.56,5.05-13.47,9.68-31.67,10.36-3.5.14-8,.14-10.5.14s-7,0-10.5-.14c-18.2-.69-26.11-5.31-31.67-10.36-7.64-6.92-12.48-17.2-17.09-28.03-2.1-4.88-14.35-34.86-16.36-40.95,24.95,1.23,52.68,2.13,75.63,2.13s50.67-.9,75.63-2.13c-2.01,6.09-14.26,36.07-16.36,40.95Z"/>
    <path class="cls-18" d="M178.69,263.18c2.06,6.25,14.28,36.14,16.42,41.12,4.49,10.54,9.55,21.45,17.62,28.76,5.49,4.98,13.7,10.18,33,10.91,0,0,10.58.14,10.58.14l10.58-.14c19.3-.73,27.51-5.92,33-10.91,8.07-7.31,13.13-18.21,17.62-28.76,2.14-4.98,14.36-34.86,16.42-41.12l.96-2.91-3.06.15c-27.85,1.37-54.67,2.13-75.52,2.13s-47.67-.76-75.52-2.13l-3.06-.15.96,2.91ZM328.9,264.77c-3.58,9.57-13.41,33.6-15.25,37.87h0c-4.31,10.12-9.14,20.57-16.57,27.3-5.18,4.7-12.44,9.14-30.34,9.82,0,0-10.42.14-10.42.14l-10.42-.14c-17.95-.68-25.41-5.34-30.34-9.82-7.44-6.74-12.27-17.18-16.57-27.3-1.84-4.28-11.67-28.32-15.25-37.88,26.78,1.28,52.45,1.98,72.58,1.98s45.8-.71,72.58-1.98ZM317.52,304.3h0s0,0,0,0Z"/>
    <path class="cls-1" d="M332.61,263.3l-.27.22-1.03.76c-.32.9-.64,1.78-.75,2.09-.58,1.53-1.16,3.05-1.74,4.57-1.22,3.17-2.46,6.34-3.71,9.5-2.51,6.33-5.09,12.62-7.75,18.89-2.63,6.21-5.23,12.47-8.49,18.39-3.02,5.49-6.66,10.72-11.49,14.76-4.9,4.09-10.81,6.6-17.03,7.9-6.55,1.38-13.3,1.57-19.98,1.62-1.34,0-2.69.02-4.04.02-1.35,0-2.69-.02-4.04-.02-6.68-.04-13.43-.24-19.98-1.62-6.22-1.31-12.13-3.81-17.03-7.9-4.83-4.04-8.48-9.27-11.49-14.76-3.25-5.92-5.85-12.18-8.49-18.39-2.65-6.27-5.23-12.57-7.75-18.89-1.25-3.16-2.49-6.32-3.71-9.5-.59-1.53-1.17-3.05-1.75-4.57-.11-.31-.43-1.19-.75-2.09l-1.03-.76-.27-.22c-6.19-4.98-31.72-35.09-47.26-71.08-13.1-30.34-23.82-66.62-26.35-75.58,1.7,9.65,4.69,20.23,7.61,30.52.71,2.51,1.39,4.89,2.05,7.27,3.73,13.41,7.71,27.09,11.84,40.67,8.04,26.47,16.34,53.45,26.6,80.32,5.44,14.24,10.51,26.79,15.51,38.37,4.42,10.24,10.04,22.02,18.22,31.66,8.32,9.8,17.53,16.09,28.97,19.77,9.95,3.2,21.65,4.56,39.1,4.56s29.15-1.37,39.11-4.56c11.45-3.68,20.65-9.97,28.97-19.77,8.18-9.64,13.8-21.42,18.22-31.66,5-11.58,10.07-24.13,15.5-38.37,10.26-26.88,18.56-53.86,26.6-80.32,4.13-13.59,8.11-27.27,11.83-40.67.57-2.05,1.17-4.18,1.75-6.24,2.93-10.39,5.93-21.08,7.81-31.23-2.76,9.66-13.8,46.54-26.78,76.59-15.54,35.99-40.53,64.77-46.73,69.75Z"/>
    <path class="cls-2" d="M405.77,114.32c-49.77-3.03-99.6-4.21-149.46-4.22-49.86.01-99.69,1.19-149.46,4.22,0,0,7.16,32.79,18.89,64.31,0,.02.01.03.02.04,0,0-.01,0-.02,0,1.82,4.91,3.76,9.78,5.8,14.5,15.25,35.31,42.23,63.49,49.14,69.38,1.8.08,4.46.22,6.26.31,4.83.23,9.66.44,14.5.63,9.51.39,19.03.7,28.55.9,8.77.19,17.54.26,26.31.26,8.77,0,17.55-.07,26.31-.26,9.52-.21,19.04-.52,28.55-.9,4.83-.19,9.67-.4,14.5-.63,1.8-.08,4.47-.23,6.26-.31,6.92-5.88,33.9-34.06,49.14-69.38,8.13-18.83,14.65-40.2,18.95-55.93-.02,0-.03.01-.05.02.02-.02.03-.04.05-.06,3.69-13.52,5.74-22.88,5.74-22.88Z"/>
    <path class="cls-19" d="M405.6,114.29c-.12.55-9.75,44.22-24.68,78.78-15.45,35.79-42.96,64.36-48.98,69.47,0,0-.02.04-.03.07-.22.58-.84,2.33-.84,2.33l1.49-1.11s.28-.22.28-.22c7.59-6.11,34.39-35.33,49.36-69.98,14.76-34.2,24.39-77.36,24.79-79.18v-.04c-.44-.04-.91-.08-1.39-.12ZM131.71,193.08c-14.94-34.59-24.57-78.31-24.68-78.78-.46.04-.9.07-1.32.11v.05c.4,1.81,9.9,44.83,24.72,79.18,14.96,34.66,41.71,63.77,49.3,69.88l.27.22s1.11.82,1.51,1.11c0,0-.59-1.66-.83-2.31-6.06-5.19-33.52-33.65-48.98-69.45Z"/>
  </g>
  <g>
    <g>
      <path class="cls-17" d="M349.67,187.63l-.75,1.21c.3.61,3.1,6.39,3.1,6.39l.76-1.21c-.3-.61-3.1-6.38-3.1-6.38Z"/>
      <path class="cls-17" d="M326.44,187.63s-2.74,5.77-3.04,6.38h-11.05l-1.86,1.22h.93s12.74-.01,12.74-.01c0,0,2.75-5.77,3.04-6.39h21.71l.75-1.21h-23.23Z"/>
      <path class="cls-7" d="M326.44,187.63s-2.74,5.77-3.04,6.38h-11.05l-1.86,1.22h.93s12.74-.01,12.74-.01c0,0,2.75-5.77,3.04-6.39h21.71l.75-1.21h-23.23Z"/>
      <path class="cls-17" d="M360.55,184.11c-2.75-6.08-5.01-10.95-6.71-14.47-3.29-6.84-4.26-8.17-4.7-8.58-1.04-1.06-2.62-1.89-4.66-2.45-1.99-.54-4.15-.82-6.43-.82v1.21c2.17,0,4.23.26,6.11.78,1.84.5,3.23,1.22,4.14,2.15.34.32,1.35,1.78,4.45,8.23,1.69,3.51,3.95,8.37,6.69,14.44,0,0,3.58,7.97,4.22,9.41h-10.9l-.76,1.21h13.52l-4.98-11.11Z"/>
      <path class="cls-17" d="M339.51,166.71s-.02-.05-.03-.08v-.03s.03.1.03.1Z"/>
      <path class="cls-5" d="M339.51,166.71s-.02-.05-.03-.08v-.03s.03.1.03.1Z"/>
      <path class="cls-17" d="M233,187.63l-.76,1.21c.29.61,3.1,6.39,3.1,6.39l.76-1.21c-.29-.61-3.1-6.38-3.1-6.38Z"/>
      <path class="cls-17" d="M209.76,187.63s-2.74,5.77-3.04,6.38h-11.06l-1.86,1.22h.93s12.74-.01,12.74-.01c0,0,2.74-5.77,3.04-6.39h21.71l.76-1.21h-23.23Z"/>
      <path class="cls-7" d="M209.76,187.63s-2.74,5.77-3.04,6.38h-11.06l-1.86,1.22h.93s12.74-.01,12.74-.01c0,0,2.74-5.77,3.04-6.39h21.71l.76-1.21h-23.23Z"/>
      <path class="cls-17" d="M243.88,184.11c-2.75-6.08-5.01-10.95-6.71-14.47-3.29-6.84-4.25-8.17-4.69-8.58-1.05-1.06-2.62-1.89-4.67-2.45-1.98-.54-4.14-.82-6.43-.82v1.21c2.18,0,4.23.26,6.11.78,1.84.5,3.23,1.22,4.14,2.15.34.32,1.35,1.78,4.45,8.23,1.69,3.51,3.94,8.37,6.69,14.44,0,0,3.58,7.97,4.22,9.41h-10.9l-.76,1.21h13.52l-4.98-11.11Z"/>
      <path class="cls-7" d="M220.78,167.31s.16-.26.49-.26v-1.2c-.69.02-1.18.26-1.47.7l-7.5,15.76,1.91-1.21c.73-1.53,6.57-13.79,6.57-13.79Z"/>
      <path class="cls-17" d="M222.83,166.71s-.01-.05-.02-.08l-.02-.03.04.1Z"/>
      <path class="cls-9" d="M222.83,166.71s-.01-.05-.02-.08l-.02-.03.04.1Z"/>
      <path class="cls-10" d="M222.81,166.63s.02.06.02.08l-.04-.1.02.03c-.12-.32-.45-.79-1.43-.79-.04,0-.07,0-.11.01v1.2s.07,0,.11,0c.26,0,.44.25.44.25,0,0,5.93,12.27,6.68,13.81h-14.28l-1.91,1.21h18.12l-7.61-15.68Z"/>
      <path class="cls-7" d="M337.43,167.31s.17-.26.49-.26v-1.2c-.69.02-1.19.26-1.47.7l-7.5,15.76,1.91-1.21c.73-1.53,6.57-13.79,6.57-13.79Z"/>
      <path class="cls-8" d="M339.46,166.63s.02.06.02.08l-.04-.1v.03c-.1-.32-.43-.79-1.42-.79-.04,0-.07,0-.11.01v1.2s.07,0,.11,0c.26,0,.44.25.44.25,0,0,5.94,12.27,6.68,13.81h-14.28l-1.91,1.21h18.12l-7.61-15.68Z"/>
      <path class="cls-17" d="M295.74,159.16h10.24l1.21-1.21h-12.66v37.26l1.21-1.21v-34.85Z"/>
      <path class="cls-16" d="M307.19,157.95l-1.21,1.21v34.85h-10.24l-1.21,1.21h12.66v-37.26Z"/>
      <path class="cls-14" d="M149.85,159.16h25.68c5.75,0,10.41,1.87,13.83,5.55.39.42.75.86,1.09,1.31l.86-.86c-.33-.43-.69-.85-1.07-1.26-3.66-3.94-8.61-5.94-14.71-5.94h-26.89v37.26l1.21-1.21v-34.85Z"/>
      <path class="cls-7" d="M161.3,166.78h12.34c2.4,0,4.27.79,5.71,2.39l.86-.85c-1.67-1.82-3.87-2.74-6.57-2.74h-13.55v21.82l1.21-1.21v-19.4Z"/>
      <path class="cls-7" d="M190.35,189.5c3.22-3.38,4.84-7.62,4.84-12.61,0-4.49-1.31-8.43-3.88-11.74l-.86.86c2.35,3.07,3.54,6.72,3.54,10.88,0,4.67-1.52,8.63-4.52,11.78-3.37,3.54-8.06,5.34-13.94,5.34h-25.68l-1.21,1.21h26.89c6.23,0,11.22-1.92,14.82-5.72Z"/>
      <path class="cls-15" d="M180.67,183.83c1.55-2.07,2.33-4.64,2.33-7.6s-.76-5.34-2.25-7.29c-.17-.22-.35-.42-.54-.62l-.86.85c.15.16.29.32.43.51,1.33,1.74,2.01,3.95,2.01,6.56s-.7,5.01-2.09,6.88c-1.54,2.07-3.52,3.07-6.06,3.07h-12.34l-1.21,1.21h13.55c2.9,0,5.27-1.2,7.03-3.56Z"/>
      <path class="cls-13" d="M235.34,195.22h13.52l-4.98-11.11c-2.75-6.08-5.01-10.95-6.71-14.47-3.29-6.84-4.25-8.17-4.69-8.58-1.05-1.06-2.62-1.89-4.67-2.45-1.98-.54-4.14-.82-6.43-.82-.01,0-.03,0-.04,0-2.32,0-4.51.28-6.49.82-2.03.55-3.62,1.38-4.73,2.46-.41.44-1.31,1.78-4.61,8.59,0,0-6.78,14.47-6.78,14.47,0,0-4.91,11.1-4.91,11.1l1.86-1.22c.63-1.42,4.15-9.38,4.15-9.38l6.77-14.44c2.98-6.15,4.03-7.89,4.39-8.27.94-.91,2.35-1.64,4.19-2.14,1.88-.52,3.96-.78,6.17-.78h.04c2.18,0,4.23.26,6.11.78,1.84.5,3.23,1.22,4.14,2.15.34.32,1.35,1.78,4.45,8.23,1.69,3.51,3.94,8.37,6.69,14.44,0,0,3.58,7.97,4.22,9.41h-10.9l-.76,1.21Z"/>
      <path class="cls-11" d="M352.01,195.22h13.52l-4.98-11.11c-2.75-6.08-5.01-10.95-6.71-14.47-3.29-6.84-4.26-8.17-4.7-8.58-1.04-1.06-2.62-1.89-4.66-2.45-1.99-.54-4.15-.82-6.43-.82-.02,0-.03,0-.04,0-2.33,0-4.51.28-6.5.82-2.03.55-3.62,1.38-4.73,2.46-.41.44-1.31,1.78-4.61,8.59,0,0-6.78,14.47-6.78,14.47,0,0-4.91,11.1-4.91,11.1l1.86-1.22c.62-1.42,4.15-9.38,4.15-9.38l6.76-14.44c2.98-6.15,4.03-7.89,4.39-8.27.94-.91,2.36-1.64,4.19-2.14,1.88-.52,3.95-.78,6.17-.78h.04c2.17,0,4.23.26,6.11.78,1.84.5,3.23,1.22,4.14,2.15.34.32,1.35,1.78,4.45,8.23,1.69,3.51,3.95,8.37,6.69,14.44,0,0,3.58,7.97,4.22,9.41h-10.9l-.76,1.21Z"/>
      <path class="cls-12" d="M287.99,194.01h-21.23c-5.86,0-10.54-1.8-13.9-5.34-1.14-1.2-2.07-2.51-2.78-3.93-1.17-2.34-1.76-4.96-1.76-7.85,0-4.76,1.55-8.86,4.63-12.19,3.41-3.68,8.06-5.55,13.82-5.55h21.23l1.2-1.21h-22.43c-6.11,0-11.05,1.99-14.71,5.94-3.29,3.55-4.95,7.93-4.95,13,0,3.23.7,6.15,2.08,8.74.74,1.38,1.66,2.69,2.8,3.87,3.6,3.79,8.57,5.72,14.78,5.72h22.43v-9.04l-1.2,1.21v6.62Z"/>
      <path class="cls-6" d="M262.55,169.68c1.49-1.95,3.48-2.9,6.11-2.9h20.54v-8.82l-1.2,1.21v6.41h-19.33c-2.98,0-5.36,1.13-7.06,3.36-1.52,1.97-2.3,4.43-2.3,7.29,0,.24.02.46.03.69.11,2.65.88,4.97,2.3,6.9,1.74,2.37,4.1,3.56,7.03,3.56h19.33l1.2-1.21h-20.54c-2.57,0-4.54-1-6.06-3.07-1.39-1.88-2.09-4.2-2.09-6.88,0-.11,0-.21,0-.31.06-2.46.73-4.56,2.04-6.24Z"/>
    </g>
    <g>
      <path class="cls-17" d="M189.35,164.71c-3.42-3.68-8.07-5.55-13.82-5.55h-25.68v34.85h25.68c5.89,0,10.57-1.8,13.94-5.34,3-3.14,4.52-7.11,4.52-11.78s-1.56-8.86-4.63-12.18ZM180.66,183.83c-1.76,2.36-4.13,3.56-7.03,3.56h-13.55v-21.82h13.55c3,0,5.39,1.14,7.1,3.37,1.5,1.96,2.26,4.41,2.26,7.29s-.79,5.52-2.33,7.6Z"/>
      <path class="cls-17" d="M252.84,188.67c-3.02-3.16-4.55-7.13-4.55-11.78s1.56-8.86,4.63-12.19c3.41-3.68,8.06-5.55,13.81-5.55h21.22v6.41h-19.33c-2.97,0-5.35,1.14-7.06,3.37-1.52,1.97-2.29,4.42-2.29,7.29s.78,5.5,2.32,7.6c1.73,2.37,4.1,3.56,7.03,3.56h19.33v6.62h-21.22c-5.86,0-10.54-1.8-13.9-5.34Z"/>
      <path class="cls-17" d="M305.96,159.16v34.85h-10.24v-34.85h10.24Z"/>
      <path class="cls-17" d="M359.42,184.61c-2.75-6.07-4.99-10.92-6.69-14.44-3.1-6.46-4.11-7.91-4.45-8.23-.91-.93-2.3-1.65-4.14-2.15-1.89-.52-3.96-.78-6.15-.78s-4.3.26-6.17.78c-1.83.5-3.25,1.23-4.19,2.14-.35.38-1.4,2.13-4.39,8.27l-6.77,14.44s-3.52,7.97-4.14,9.38h11.05c.29-.62,3.03-6.38,3.03-6.38h23.23s2.8,5.77,3.1,6.38h10.9c-.64-1.43-4.22-9.41-4.22-9.41ZM328.94,182.31l7.5-15.76c.3-.47.82-.71,1.57-.71.98,0,1.32.46,1.44.79l7.61,15.68h-18.12Z"/>
      <path class="cls-17" d="M242.76,184.61c-2.75-6.07-5-10.92-6.69-14.44-3.1-6.46-4.1-7.91-4.45-8.23-.91-.93-2.3-1.65-4.14-2.15-1.9-.52-3.97-.78-6.16-.78s-4.29.26-6.17.78c-1.83.5-3.25,1.23-4.18,2.14-.36.38-1.41,2.13-4.39,8.27l-6.76,14.44s-3.53,7.97-4.15,9.38h11.05c.29-.62,3.03-6.38,3.03-6.38h23.23s2.81,5.77,3.1,6.38h10.89c-.64-1.43-4.22-9.41-4.22-9.41ZM212.29,182.31l7.5-15.76c.3-.47.83-.71,1.57-.71.98,0,1.32.46,1.43.79l7.61,15.68h-18.11Z"/>
    </g>
    <path class="cls-3" d="M222.8,166.63c-.11-.33-.45-.79-1.43-.79-.75,0-1.28.24-1.58.71l-7.48,15.7h0l-.03.06h18.11l-.78-1.62c1.21-.12,2.4-.27,3.61-.4-1.2.13-2.4.27-3.61.4l-6.82-14.06Z"/>
    <path class="cls-3" d="M338.02,165.84c-.75,0-1.28.24-1.57.71l-7.5,15.76h18.12l-7.61-15.68c-.12-.33-.45-.79-1.44-.79Z"/>
    <path class="cls-3" d="M160.09,187.39h13.55c2.9,0,5.13-1.14,6.9-3.4.05-.06.09-.1.13-.16,1.54-2.08,2.33-4.64,2.33-7.6s-.76-5.33-2.25-7.29c-1.72-2.23-4.11-3.37-7.1-3.37h-13.54v18.78c-3.44,0-6.85-.01-10.25-.05,3.39.04,6.8.06,10.24.05v3.04Z"/>
    <path class="cls-3" d="M338.02,165.84c-.75,0-1.28.24-1.57.71l-7.5,15.76h18.12l-7.61-15.68c-.12-.33-.45-.79-1.44-.79Z"/>
    <path class="cls-3" d="M222.8,166.63c-.11-.33-.45-.79-1.43-.79-.75,0-1.28.24-1.58.71l-7.48,15.7h0l-.03.06h18.11l-.78-1.62c1.21-.12,2.4-.27,3.61-.4-1.2.13-2.4.27-3.61.4l-6.82-14.06Z"/>
    <path class="cls-3" d="M160.09,187.39h13.55c2.9,0,5.13-1.14,6.9-3.4.05-.06.09-.1.13-.16,1.54-2.08,2.33-4.64,2.33-7.6s-.76-5.33-2.25-7.29c-1.72-2.23-4.11-3.37-7.1-3.37h-13.54v18.78c-3.44,0-6.85-.01-10.25-.05,3.39.04,6.8.06,10.24.05v3.04Z"/>
  </g>
</svg>