<?xml version="1.0" encoding="UTF-8"?>
<svg id="Warstwa_1" data-name="Warstwa 1" xmlns="http://www.w3.org/2000/svg" viewBox="0 0 512 512">
  <defs>
    <style>
      .cls-1 {
        fill: #000;
        stroke-width: 0px;
      }
    </style>
  </defs>
  <path class="cls-1" d="M21.09,110l9.36,289h45.49l-.99-119.84h38.14v-37.36h-38.14l.14-94.04h49.8l-.27-37.76H21.09ZM142.59,110l5.76,289h46.97l.95-289h-53.68ZM362.79,110v36.45h37.1l-1.07,252.55h45.44l9.65-252.59h36.8l-.28-36.41h-127.65ZM267.1,243.76l.51-98.16h26.23c11.89,21.86,19.53,50.77,25.52,98.16h-52.26ZM225.2,398.99h43.48l.49-119.5h52.1c4.09,21.09,5.1,86.2,5.34,119.5h42.18c3.99-147.54-8.37-230.93-42.53-288.99h-105.04l3.98,288.99Z"/>
</svg>