<?xml version="1.0" encoding="UTF-8"?>
<svg id="Warstwa_1" data-name="Warstwa 1" xmlns="http://www.w3.org/2000/svg" xmlns:xlink="http://www.w3.org/1999/xlink" viewBox="0 0 512 512">
  <defs>
    <style>
      .cls-1 {
        clip-path: url(#clippath);
      }

      .cls-2 {
        fill: none;
      }

      .cls-2, .cls-3, .cls-4, .cls-5, .cls-6, .cls-7, .cls-8, .cls-9, .cls-10, .cls-11 {
        stroke-width: 0px;
      }

      .cls-3 {
        fill: #1a1a1a;
      }

      .cls-4 {
        fill: #6d0115;
      }

      .cls-5 {
        fill: #bdbcbc;
      }

      .cls-6 {
        fill: url(#Gradient_bez_nazwy_6-3);
      }

      .cls-7 {
        fill: url(#Gradient_bez_nazwy_6-2);
      }

      .cls-8 {
        fill: url(#Gradient_bez_nazwy_6-4);
      }

      .cls-9 {
        fill: url(#Gradient_bez_nazwy_11);
      }

      .cls-12 {
        fill: url(#Gradient_bez_nazwy_2);
        stroke: #6d0115;
        stroke-miterlimit: 33.9;
        stroke-width: 16.95px;
      }

      .cls-10 {
        fill: #231f20;
      }

      .cls-11 {
        fill: url(#Gradient_bez_nazwy_6);
      }
    </style>
    <clipPath id="clippath">
      <path class="cls-2" d="M384.05,234.23c.05.49.11.96.16,1.45,1.59,15.84,2.32,11.6-.16-1.45ZM147.22,167.79s12.6-11.62,21.6-20.19c0,0-12,6.73-21.6,20.19ZM143.86,322.03c7.14,14.39,14.16,23.76,14.16,23.76,0,0-6.69-10.09-14.16-23.76ZM377.61,183.69l-2.35-6.83,20.94,7.44-20.26-10.38,20.58-12.21-22.61,9.27,3.62-22.61-7.34,21.84-5.32-1.5c-11.16-16.59-26.49-24.9-45.79-34.15-35.86-17.21-83.66-12.64-83.66-12.64,0,0,56.43.72,99.59,26.3,8.92,5.28,16.35,12.61,22.52,20.89l-9.32.51,10.68,1.36c1.01,1.42,1.98,2.86,2.91,4.32l-12.4,7.16,13.37-5.61c1.37,2.23,2.68,4.49,3.92,6.8l-5.29,16.55,6.25-14.73c9.26,17.91,14.14,36.95,16.39,48.76-2.59-24.72-7.12-42.34-13.51-55.56l.47-1.1s23.4,30.58,19.2,80.74c-4.2,50.16-16.2,67.9-28.2,80.13l-.6-6.12s-17.4,52-103.79,50.77c-86.4-1.22-93-29.36-93-29.36l-4.8-2.45s-20.4-15.9-33-58.11c-12.6-42.21-.6-76.46-.6-76.46,0,0-6.6,28.14-1.8,56.89,2.49,14.9,11.41,33.72,19.44,48.42-5.89-11.88-11.87-27.2-14.04-43.52-4.8-36.09-3.6-60.56,2.4-78.91,6-18.35,9.6-26.3,9.6-26.3,0,0-25.2,29.36-25.8,91.75-.6,62.39,52.2,105.21,75.59,114.39,23.4,9.17,97.2,21.41,141.59-9.79,44.4-31.2,41.4-39.15,55.8-67.9,14.4-28.75,8.4-86.86-11.4-118.05h0ZM367.1,172.25c-.05-.08-.09-.16-.14-.24l.45.06-.31.18ZM369.16,175.93c-.25-.48-.5-.97-.76-1.43l1.41-.59-.65,2.03h0ZM158.02,173.3c3.6-6.12,22.2-17.13,22.2-17.13,0,0-10.2,6.12-21.6,19.58-11.4,13.46,4.2-1.22,25.2-15.29,21-14.07,50.4-12.84,50.4-12.84,0,0-9.6-7.34-46.2,4.28l35.4-15.29s-54,11.62-69.6,33.64c-15.6,22.02.6,9.17,4.2,3.06h0ZM338.62,171.36c6.62,6.87,11.39,12.94,11.39,12.94,0,0-1.95-6.18-11.39-12.94ZM133.42,261.38c6.6,64.84,34.2,92.37,34.2,92.37,0,0,21,20.8,86.39,23.85,65.39,3.06,86.4-22.63,88.2-26.91,1.8-4.28-8.4,2.44-11.4,1.22-3-1.22,9.6-23.86,9.6-23.86-6.6,24.47,3.6-3.67,10.2-.61,6.6,3.06-13.2,11.01-6.6,17.13,6.6,6.12,20.39-37.31,29.4-56.89,9-19.57,6-39.76,5.4-52.6-.6-12.85-3.6-18.35-3.6-18.35l-1.8,30.59s1.2,4.28-8.4-17.13l-7.8-20.8c-5.4,95.42-27,131.52-27,131.52,0,0-7.8,23.85-70.8,24.47-62.99.61-72-15.91-72-15.91-20.4-26.91-32.4-84.41-29.4-122.33,3-37.93,0-48.33,27-59.95,27-11.62,67.8-12.85,67.8-12.85,49-1.38,73.64,8.31,85.81,17.03-1.57-1.63-3.17-3.23-4.81-4.79-9-8.56-92.4-26.3-136.19-9.18-43.8,17.13-46.8,33.64-43.8,83.8,3,50.16,18.6,91.75,29.4,107.66,10.8,15.9,49.2,20.8,49.2,20.8-52.2-1.22-58.2-28.75-61.2-33.65-3-4.89-12-14.68-13.8-6.73-1.8,7.95-17.93-40.67-14.93-43.12,3-2.45,21.53,24.77,21.53,24.77,0,0-6.6-13.46-13.2-51.38-6.6-37.92,3.6-56.89-3-58.11-6.6-1.22,8.21,55.96-10.69,58.5-5.39.73-.92-50.58,1.49-60.97,2.4-10.4,5.01-13.44,5.01-13.44,0,0-16.8,11.01-10.2,75.85h0Z"/>
    </clipPath>
    <linearGradient id="Gradient_bez_nazwy_11" data-name="Gradient bez nazwy 11" x1="-2283.47" y1="162.91" x2="-2217.7" y2="100.04" gradientTransform="translate(4857.4 48.67) scale(2.08)" gradientUnits="userSpaceOnUse">
      <stop offset="0" stop-color="#8c8c8c"/>
      <stop offset=".5" stop-color="#464646"/>
      <stop offset=".75" stop-color="#fff"/>
      <stop offset="1" stop-color="#fff"/>
    </linearGradient>
    <radialGradient id="Gradient_bez_nazwy_2" data-name="Gradient bez nazwy 2" cx="-2196.08" cy="-125.36" fx="-2196.08" fy="-125.36" r="11.37" gradientTransform="translate(18867.02 1394.9) scale(8.47 9.06)" gradientUnits="userSpaceOnUse">
      <stop offset="0" stop-color="#e60a47"/>
      <stop offset="1" stop-color="#7c0626"/>
    </radialGradient>
    <radialGradient id="Gradient_bez_nazwy_6" data-name="Gradient bez nazwy 6" cx="-1734.7" cy="114.42" fx="-1734.7" fy="114.42" r="6.38" gradientTransform="translate(28800.44 -1374.94) scale(16.45 14.27)" gradientUnits="userSpaceOnUse">
      <stop offset="0" stop-color="#d3d1d2"/>
      <stop offset=".5" stop-color="#c9c7c8"/>
      <stop offset="1" stop-color="#8d8b8c"/>
    </radialGradient>
    <radialGradient id="Gradient_bez_nazwy_6-2" data-name="Gradient bez nazwy 6" cx="-1734.7" fx="-1734.7" r="6.38" xlink:href="#Gradient_bez_nazwy_6"/>
    <radialGradient id="Gradient_bez_nazwy_6-3" data-name="Gradient bez nazwy 6" cx="-1734.7" fx="-1734.7" r="6.38" xlink:href="#Gradient_bez_nazwy_6"/>
    <radialGradient id="Gradient_bez_nazwy_6-4" data-name="Gradient bez nazwy 6" cx="-1734.7" cy="114.42" fx="-1734.7" fy="114.42" r="6.38" xlink:href="#Gradient_bez_nazwy_6"/>
  </defs>
  <path class="cls-10" d="M401.15,256c0,80.08-64.92,145-145,145s-145-64.92-145-145,64.92-145,145-145,145,64.92,145,145"/>
  <path class="cls-5" d="M396.06,256c0,77.28-62.64,139.91-139.91,139.91s-139.91-62.64-139.91-139.91c0-77.27,62.64-139.91,139.92-139.91s139.91,62.64,139.91,139.91"/>
  <path class="cls-10" d="M143.62,185.53c0,.12-15.52,2.48-15.51,2.55.08.39-.8,79.86,13.37,75.86,9.33-4.39,4.31-56.17,4.31-49.21,0,9.71.94,25.63,4.67,50.64,4.2,28.17,2.43,31.68,4.39,37.75-4.55-4.42-11.64-6.41-11.64-6.41l10.04,33.95,7.4-.08s.11-2.28.2-2.39c.2,0,7.31.53,12.19,9.46,28.26,51.72,102.65,31.83,83.18,32.95l30.65-3.69c-89.78,15.36-106.62-26.04-111.14-34.3-2.83-4.14-10.96-8.49-16.07-6.01,0,0,12.48.5,11.92-2.81,3.9,3.79-9.69-6.13-9.69-6.13l.68,2.15c2.11.21,1.16-2.06,3.38-2.44l-2.76-1.26c-.35-.43,1.53-2.68-5.2-47.85-3.7-24.82-2.95-44.14-2.95-53.76s-.61-9.97-.59-10.04l-5.47-3.57-1.05-.21c-1.51-.31-3-.79-3.65-1.15.34-.5.53-1.17.53-2.27s-.11-2.45-.26-4.24c-.2-2.4-.1-10.98-.43-8.11-17.43,151.29,6.7-16.93,3.73-13.7l1.7-1.92c8.21-9.48,36.9-31.61,110.91-33.35,78.27-1.83,78.63,26.76,78.89,27.17l20.28,10.04c-.27-.43-26.6-44.14-106.09-42.28-74.91,1.75-97.14,27.41-105.51,37.07l-1.66,1.88c-3.44,3.75-7.39,3.79-7.39,9.32,0,2.95-3.31,6.89-3.11,9.33,9.66,16.97,6.33,8.58,7.73-2.94h0ZM357.66,178.25c-1.71.73-1.45,3.5-1.09,7.34.26,2.86.56,6.09,0,8.35l1.95.49c.65-2.59.33-6.01.05-9.03-.18-1.92-.45-4.82-.04-5.34.05.07.61,21.62,5.06,26.76,7.06,8.18,3.54,3.47,3.54,17.72,0,7.02,5.25,15.21,5.05,18.08-2.62-3.31-3.36-11.84-4.03-19.48-.78-8.9-1.45-16.59-4.61-19.14,3.9-3.42-9.66-21.35-8.73-9.21.64,4.25-1.44-9.54-4.46-14.23-9.24-14.38-28.38-31.18-94.88-33.48-60.96-2.12-91.18,22.91-98.94,30.54l1.01-1.74-9.91-5.11-2.8,29.66,4.24-6.69s6.84-12.41,6.97-12.7c1.07-1.26,29.96-34.34,99.36-31.93,73.98,2.57,87.49,23.58,93.26,32.56,2.78,4.33,3.51,9.16,4.16,13.43.85,5.62,1.65,10.92,7.96,10.08.58-.08,1.06.05,1.5.41,2.5,2.01,3.19,10.01,3.87,17.74.88,10.23,1.73,19.88,6.43,22.25l1.31.66.14-1.47c.18-1.88,4.23-46.08-8.29-60.58-4.93-5.71-6.74-6.5-8.07-5.92h0ZM384.42,214.89c-1.27-5.88-3.17-11.6-5.67-17.07,1.42,3.28,3.69,9.12,5.67,17.07ZM378.75,197.83c-.28-.66-.58-1.32-.88-1.97.33.66.59,1.31.88,1.97ZM372.45,183.19c16.54,15.95,13.57,57.1,13.57,57.1l-8.05-9.35v39.87l-5.57,11.21c-9.91,52.96-33.42,99.69-125.64,97.2-92.21-2.49-106.45-51.71-115.11-98.44-8.66-46.73,3.71-97.82,3.71-97.82-27.23,80.99,4.95,142.05,4.95,142.05,0,0,15.47,57.32,110.78,56.7,95.31-.62,110.16-53.58,110.16-53.58l1.73,13.37s22.14-20.25,28.94-62.62c3.45-21.45-9.88-86.43-19.49-95.7h0ZM377.87,195.85c-.32-.67-.52-1.04-.52-1.04.18.35.35.7.52,1.04"/>
  <g class="cls-1">
    <path class="cls-9" d="M384.05,234.23c.11.16,0,0,0,0ZM147.22,167.79s12.6-11.62,21.6-20.19c0,0-12,6.73-21.6,20.19ZM143.86,322.03c7.14,14.39,14.16,23.76,14.16,23.76,0,0-6.69-10.09-14.16-23.76ZM377.61,183.69l-2.35-6.83,20.94,7.44-20.26-10.38,20.58-12.21-22.61,9.27,3.62-22.61-7.34,21.84-5.32-1.5c-11.16-16.59-26.49-24.9-45.79-34.15-35.86-17.21-83.66-12.64-83.66-12.64,0,0,56.43.72,99.59,26.3,8.92,5.28,16.35,12.61,22.52,20.89l-9.32.51,10.68,1.36c1.01,1.42,1.98,2.86,2.91,4.32l-12.4,7.16,13.37-5.61c1.37,2.23,2.68,4.49,3.92,6.8l-5.29,16.55,6.25-14.73c9.26,17.91,14.14,36.95,16.39,48.76-2.59-24.72-7.12-42.34-13.51-55.56l.47-1.1s23.4,30.58,19.2,80.74c-4.2,50.16-16.2,67.9-28.2,80.13l-.6-6.12s-17.4,52-103.79,50.77c-86.4-1.22-93-29.36-93-29.36l-4.8-2.45s-20.4-15.9-33-58.11c-12.6-42.21-.6-76.46-.6-76.46,0,0-6.6,28.14-1.8,56.89,2.49,14.9,11.41,33.72,19.44,48.42-5.89-11.88-11.87-27.2-14.04-43.52-4.8-36.09-3.6-60.56,2.4-78.91,6-18.35,9.6-26.3,9.6-26.3,0,0-25.2,29.36-25.8,91.75-.6,62.39,52.2,105.21,75.59,114.39,23.4,9.17,97.2,21.41,141.59-9.79,44.4-31.2,41.4-39.15,55.8-67.9,14.4-28.75,8.4-86.86-11.4-118.05h0ZM367.1,172.25c-.05-.08-.09-.16-.14-.24l.45.06-.31.18ZM369.16,175.94c-.25-.48-.5-.97-.76-1.43l1.41-.59-.65,2.03h0ZM158.02,173.3c3.6-6.12,22.2-17.13,22.2-17.13,0,0-10.2,6.12-21.6,19.58-11.4,13.46,4.2-1.22,25.2-15.29,21-14.07,50.4-12.84,50.4-12.84,0,0-9.6-7.34-46.2,4.28l35.4-15.29s-54,11.62-69.6,33.64c-15.6,22.02.6,9.17,4.2,3.06h0ZM338.62,171.36c6.62,6.87,11.39,12.94,11.39,12.94,0,0-1.95-6.18-11.39-12.94ZM133.42,261.38c6.6,64.84,34.2,92.37,34.2,92.37,0,0,21,20.8,86.39,23.85,65.39,3.06,86.4-22.63,88.2-26.91,1.8-4.28-8.4,2.44-11.4,1.22-3-1.22,9.6-23.86,9.6-23.86-6.6,24.47,3.6-3.67,10.2-.61,6.6,3.06-13.2,11.01-6.6,17.13,6.6,6.12,20.39-37.31,29.4-56.89,9-19.57,6-39.76,5.4-52.6-.6-12.85-3.6-18.35-3.6-18.35l-1.8,30.59s1.2,4.28-8.4-17.13l-7.8-20.8c-5.4,95.42-27,131.52-27,131.52,0,0-7.8,23.85-70.8,24.47-62.99.61-72-15.91-72-15.91-20.4-26.91-32.4-84.41-29.4-122.33,3-37.93,0-48.33,27-59.95,27-11.62,67.8-12.85,67.8-12.85,49-1.38,73.64,8.31,85.81,17.03-1.57-1.63-3.17-3.23-4.81-4.79-9-8.56-92.4-26.3-136.19-9.18-43.8,17.13-46.8,33.64-43.8,83.8,3,50.16,18.6,91.75,29.4,107.66,10.8,15.9,49.2,20.8,49.2,20.8-52.2-1.22-58.2-28.75-61.2-33.65-3-4.89-12-14.68-13.8-6.73-1.8,7.95-17.93-40.67-14.93-43.12,3-2.45,21.53,24.77,21.53,24.77,0,0-6.6-13.46-13.2-51.38-6.6-37.92,3.6-56.89-3-58.11s8.21,55.96-10.69,58.5c-5.39.73-.92-50.58,1.49-60.97,2.4-10.4,5.01-13.44,5.01-13.44,0,0-16.8,11.01-10.2,75.85"/>
  </g>
  <path class="cls-12" d="M265.06,361.34c.1,0,15.04-.74,28.06-3.67,11.32-2.55,21.34-7.42,21.44-7.47l.04-.02.04-.02c.06-.02,5.64-2.43,9.07-5.71,3.48-3.33,5.06-7.68,5.08-7.72.07-.19,6.16-16.43,10.77-33.77,4.24-15.96,7.15-33.61,7.18-33.78.05-.23,3.56-18.06,4.55-37.03.83-15.94-.82-34.04-.84-34.22,0-.14-.86-10.85-5.16-17.86-3.87-6.3-11.33-9.39-11.4-9.42l-.06-.03-.06-.03c-.09-.04-8.75-4.38-25.19-7.96-13.11-2.85-31.33-4.89-46.42-5.18-17.25-.34-35.77.86-49.53,3.22-16.51,2.82-27.23,7.01-27.34,7.06l-.09.03-.09.02c-.11.03-10.8,2.96-16.42,10.1-5.71,7.25-6.64,19.17-6.65,19.29v.07c-.02.12-1.22,10.4-1.22,22.99,0,2.26.04,4.59.13,6.95.64,16.77,3.58,35.36,3.6,35.55.03.18,4.01,22.01,8.54,40.4,3.36,13.63,7.73,25.7,7.77,25.82l.03.09.02.09c.02.06,1.51,6.18,3.93,10.45,2.11,3.72,5.22,5.9,5.25,5.92l.05.04.05.04s2.14,1.72,5.38,3.5c3.74,2.04,8.74,4.24,8.95,4.33.35.14,11.39,4.36,25.93,6.28,15.19,2.01,34.43,1.68,34.62,1.68Z"/>
  <path class="cls-4" d="M199.13,349.65c-.66-.3-1.02-.48-1.02-.48-.04-.02-.23-.1-.53-.24l-.11-.65c-2.61-14.36-6.58-40.61-7.88-72.61-1.61-37.63-1.55-83.76-1.39-106.1v-1.62c.44-.15.89-.3,1.36-.45v1.62c-.15,22.15-.22,68.62,1.4,106.49,1.32,32.56,5.42,59.13,8.01,73.25l.16.78h0Z"/>
  <path class="cls-4" d="M203.43,351.5c-.53-.21-1.02-.42-1.48-.61l-.13-1.01c-1.9-13.53-5.25-41.11-6.85-76.39-1.69-37.5-1.39-84.64-1.12-106.07v-1.2c.45-.13.9-.26,1.37-.38v1.33c-.26,21.28-.58,68.64,1.12,106.27,1.63,36.08,5.11,64.08,6.97,77.2l.12.86ZM235.6,160.41c.34,41.54,1.34,161.38,1.63,196.1l.03,2.93c-.44-.05-.9-.1-1.36-.15l-.03-2.79c-.29-34.69-1.28-154.22-1.63-195.91l-.03-1.22c.46-.04.92-.08,1.38-.11l.02,1.15ZM253.41,159.87l.65,197.63v2.77c-.47,0-.93,0-1.37.01v-3.15c-.14-41.24-.53-161.97-.65-197.71v-.93s1.33-.02,1.33-.02l.04,1.39h0ZM260.25,160.05l-.98,197.45v2.67c-.48.01-.94.02-1.39.03l.02-2.17c.17-35.07.78-157.89.98-198.25l-.03-1.3c.48,0,.95,0,1.43.02l-.02,1.55ZM278.73,356.79c.98-16.25,2.84-50.69,3.6-89.67.78-39.72.43-84.93.19-106.16l-.08-1.37c.55.05,1.1.1,1.65.15l.08,1.75c.24,21.47.57,66.26-.2,105.66-.76,38.65-2.59,72.85-3.57,89.29l-.14,2.35c-.58.07-1.07.13-1.66.2l.13-2.2ZM325.45,340.68c-.65.88-1.37,1.7-2.15,2.46l.66-3.49c2.86-14.81,6.55-37.72,8.4-64.61,2.19-31.98,2.47-75.7,2.43-100.54l.03-2.38c.53.29,1.07.61,1.61.94v3.17c.04,25.13-.28,67.63-2.43,98.92-1.81,26.41-5.4,48.99-8.25,63.87l-.3,1.66ZM341.25,287.04c1.31-10.29,2.32-20.61,3.03-30.96,1.65-24.39,1.7-52.01,1.49-69.6l-.04-2.93c.67,1.5,1.23,3.05,1.69,4.63l.03,2.73c.15,17.6-.01,42.81-1.53,65.28-.31,4.61-.69,9.22-1.13,13.83l-.5,4.94c-1.21,6.1-2.5,12.19-3.86,18.27l.82-6.18h0Z"/>
  <path class="cls-4" d="M319.63,346.03c-.52.35-1.14.76-1.85,1.18l.5-2.8c2.74-15.08,7.01-42.46,8.68-74.28,1.84-34.95,1.85-76.5,1.69-97.76l-.06-3.01c.47.17,1.02.37,1.63.61l.08,2.81c.15,21.41.13,62.68-1.7,97.44-1.63,30.94-5.7,57.7-8.46,73.09l-.52,2.73h0ZM299.45,352.94c1.3-14.06,3.67-43.15,4.81-78.25,1.28-39.4,1.29-86.1,1.19-108.66l-.05-3.21c.57.12,1.14.24,1.69.36v3.11c.1,22.67.09,69.18-1.19,108.46-1.13,34.87-3.48,63.82-4.79,78.02l-.17,1.73c-.54.16-1.09.33-1.69.49l.19-2.04ZM293.77,354.27c1.42-11.94,3.75-35.07,4.72-65.16,1.4-43.78,1.23-99,1.05-124.55l-.03-2.84c.54.09,1.08.19,1.61.28l.06,2.97c.18,25.74.35,80.62-1.05,124.19-.95,29.63-3.22,52.53-4.65,64.68l-.27,2.2c-.55.13-1.13.28-1.71.41l.27-2.18h0ZM289.17,355.24c1.11-12.62,3.03-37.62,3.94-68.03,1.26-42.5.93-96.32.63-124.38l-.03-2.01c.56.07,1.11.15,1.66.23l.03,2.68c.3,28.32.6,81.45-.64,123.51-.89,29.94-2.76,54.64-3.88,67.48l-.2,2.33c-.57.12-1.1.23-1.68.34l.19-2.17h0ZM283.83,356.31c.94-14.74,2.73-45.54,3.51-78.58,1.04-43.92,1.09-92.91,1.04-115.84l-.05-1.73c.56.06,1.11.12,1.66.19l.03,1.95c.04,23.11-.01,71.8-1.04,115.47-.77,32.64-2.52,63.1-3.47,78.07l-.14,2.21c-.59.1-1.06.18-1.66.27l.13-2.02h0ZM278.18,161.13c-.07,23.47-.31,76.71-1.07,122.13-.42,24.4-1.12,48.79-2.11,73.17l-.13,2.91c-.46.04-.93.08-1.39.12l.14-2.58c.58-14.09,1.59-41.84,2.13-73.63.77-45.64,1-99.19,1.07-122.47v-1.61c.47.03.93.06,1.39.1l-.03,1.87h0ZM271.41,160.05c.19,20.71.47,61.25.22,99.45-.28,41.35-1.17,80.83-1.59,97.83l-.05,2.38c-.47.03-.93.06-1.39.08l.06-2.02c.42-16.72,1.33-56.55,1.61-98.28.25-37.97-.03-78.26-.22-99.07v-1.63c.44.02.9.04,1.35.06v1.21s.01,0,.01,0ZM266.04,159.96c.28,23.76.67,66.27.48,106.37-.18,37.31-.98,73.04-1.46,91.71l-.04,1.93-1.38.06.06-2.26c.48-18.73,1.27-54.3,1.45-91.44.19-39.9-.19-82.19-.48-106.01l-.03-1.73,1.38.04.02,1.34h0ZM217.66,356.2c-.48-.12-.95-.24-1.42-.37l-.08-.89c-1.15-12.4-3.46-40.3-4.42-73.04-1.22-41.77-.82-93.97-.52-118.56v-1.08c.45-.08.9-.16,1.37-.23v1.09c-.3,24.47-.71,76.86.52,118.74.97,33.17,3.33,61.35,4.46,73.46l.09.87h0ZM208.38,353.38c-.49-.18-.98-.35-1.45-.52l-.11-1.03c-2.09-17.46-6.14-55.17-7.42-95.19-1.09-33.85-.15-71.63.48-90.64l.02-1.39c.45-.11.91-.22,1.38-.33l-.02,1.2c-.63,18.79-1.6,56.96-.5,91.12,1.3,40.58,5.45,78.79,7.51,95.85l.11.92h0ZM169.42,283.79c-1.67-8.14-2.65-14.09-2.67-14.19l-.23-3.57c-.96-12.18-1.83-25.82-2.03-37.46-.24-13.76-.14-27.51.02-37.8l-.06-1.31c.41-1.63.92-3.22,1.53-4.79l-.12,7.31c-.15,10.14-.23,23.35,0,36.56.25,14.72,1.58,32.67,2.81,46.78l.75,8.46h0ZM181.32,327.23c-.95-2.78-2.03-6.06-3.16-9.65l-.83-4.81c-2.13-12.61-4.03-26.01-4.56-36.3-2.79-34.21-2.93-73.7-2.76-94.72l.03-3.87c.43-.47.88-.92,1.34-1.34v3.66c-.19,20.55-.11,61.14,2.75,96.18.62,12,3.1,28.24,5.65,42.52l1.54,8.33ZM188.05,334.42c-2.81-13.87-6.28-34.32-8.08-57.71-2.79-36.29-2.69-78.99-2.42-100.12l.03-4.36c-.4.21-.88.46-1.4.77v3.64c-.27,21.17-.36,63.87,2.42,100.17,1.79,23.29,5.24,43.69,8.05,57.6l1.75,8.25c.3.34.62.68.96,1,.25.23.51.47.77.69l-2.09-9.95h0ZM212.82,354.09c-1.27-11.44-3.52-34.61-4.45-62.57-1.53-46-1.64-103.42-1.61-127.27v-1.16c-.48.09-.94.19-1.4.28l.03,1.01c-.03,23.94.08,81.25,1.61,127.18.91,27.34,3.08,50.11,4.37,61.84l.11,1.01c.47.15.94.3,1.43.45l-.08-.78h0Z"/>
  <path class="cls-4" d="M183.72,169.57c-.51.19-.97.38-1.39.55l-.03,2.06c-.46,21.47-1.06,64.39.64,92.6,2.42,40,7.43,68.35,9.91,80.53l.23,1.2c.53.33,1.12.68,1.62.96l-.31-1.47c-2.39-11.54-7.6-40.27-10.08-81.3-1.72-28.39-1.09-71.75-.63-93.02l.04-2.16M218.49,161.13l-1.38.2.02,1.15c-.24,22.36-.54,66.58.18,105.3.69,36.82,2.95,70.39,4.22,87.01l.16,2.31c.47.09.93.19,1.4.28l-.15-2.04c-1.26-16.37-3.57-50.31-4.27-87.58-.73-38.76-.42-83.05-.18-105.37v-1.26s0,0,0,0ZM224.3,160.37c-.47.06-.93.11-1.4.17v1.12c-.36,18.23-.88,55.96-.12,93.52.83,42.71,3.07,83.04,4.15,100.75l.12,2.14c.47.08.94.15,1.41.22l-.16-2.34c-1.08-17.65-3.32-58.03-4.15-100.8-.77-37.62-.24-75.4.12-93.58l.03-1.2h0ZM229.9,159.77c-.46.04-.91.09-1.37.14v1.13c-.16,19.57-.37,60.71.1,100.62.46,38.7,1.62,76.97,2.21,94.49l.08,2.51c.46.06.92.13,1.38.19l-.09-2.71c-.58-17.5-1.75-55.78-2.21-94.5-.47-40.09-.26-81.43-.1-100.87v-1s0,0,0,0ZM241.78,158.84c-.48.03-.95.05-1.43.08l.03.76c.24,35.87,1.05,158.17,1.31,197.81l.02,2.37c.48.04.94.08,1.38.11l-.03-2.4c-.26-39.56-1.07-162.19-1.31-197.99l.03-.76h0ZM247.54,158.58c-.46.01-.93.03-1.4.05l.03,1.32.36,196.99-.02,3.27c.36.02.61.04.76.04.08,0,.29,0,.63,0v-3.41c-.07-36.83-.29-158.97-.36-196.91v-1.37s0,0,0,0ZM304.1,351.08c1.98-16.65,5.57-51.06,7.09-92.32,1.13-30.72.23-71.93-.36-92.53l-.11-2.22c.58.14,1.13.27,1.68.41l.08,2.28c.59,20.79,1.47,61.61.34,92.12-1.52,41.21-5.1,75.6-7.09,92.33l-.24,1.91c-.57.2-1.15.39-1.73.57l.32-2.54h0Z"/>
  <path class="cls-4" d="M310.96,348.7c1.6-14.49,4.41-43.14,6.1-78.88,1.63-34.31,1.54-78.61,1.34-102.1l-.03-1.71c-.53-.15-1.08-.31-1.66-.47l.05,2.03c.2,23.43.29,67.82-1.34,102.18-1.71,36.17-4.57,65.06-6.15,79.34l-.31,2.59c.49-.23,1.07-.49,1.71-.79l.29-2.19h0ZM316,345.52c1.94-12.97,4.57-34.18,6.07-61.28,2.22-40.3,2.63-91.71,2.69-114.7l-.03-1.53c-.46-.16-1.01-.34-1.63-.55l.02,1.54c-.06,22.7-.45,74.56-2.69,115.14-1.56,28.2-4.35,50-6.3,62.74l-.38,2.5c.6-.3,1.2-.61,1.8-.92l.45-2.95h0ZM330.38,328.71s1.47-4.06,3.29-9.88l.69-4.52c2.24-14.99,4.61-33.69,6.17-53.95,2.09-26.97,1.63-59.82,1.05-79.6l-.13-3.73c-.55-.56-1.12-1.09-1.72-1.59l.13,3.04c.61,19.4,1.19,53.77-.98,81.76-1.82,23.53-4.72,44.94-7.24,60.87l-1.27,7.6h0Z"/>
  <g>
    <path class="cls-3" d="M214.32,269.75v-14.23h-12.21l.05-35.82h15.94l-.09-14.38h-33.13l2.99,110.09h14.56l-.32-45.65h12.21ZM223.76,205.31l1.84,110.09h15.03l.3-110.09h-17.18ZM320.3,315.4l3.09-96.22h11.78l-.09-13.87h-40.85v13.89h11.87l-.34,96.21h14.54ZM263.61,256.26l.17-37.4h8.39c3.8,8.33,6.25,19.34,8.17,37.4h-16.72ZM250.2,315.4h13.92l.16-45.52h16.67c1.31,8.03,1.63,32.84,1.71,45.53h13.5c1.27-56.21-2.68-87.98-13.61-110.09h-33.61l1.27,110.09h0Z"/>
    <g>
      <path class="cls-11" d="M216.1,253.55h-12.24l.05-35.82h15.98l-.09-14.39h-33.21l3,110.09h14.59l-.32-45.65h12.24v-14.23Z"/>
      <path class="cls-7" d="M242.79,203.34h-17.22l1.85,110.09h15.07l.31-110.09Z"/>
      <path class="cls-6" d="M307.77,313.43h14.58l3.1-96.22h11.81l-.09-13.87h-40.95v13.89h11.9l-.34,96.21Z"/>
      <path class="cls-8" d="M265.51,254.29l.16-37.4h8.41c3.81,8.33,6.26,19.34,8.19,37.4h-16.76ZM252.07,313.43h13.95l.16-45.52h16.72c1.31,8.04,1.64,32.84,1.71,45.52h13.53c1.28-56.21-2.69-87.98-13.65-110.09h-33.7l1.28,110.09Z"/>
    </g>
  </g>
</svg>