<?xml version="1.0" encoding="UTF-8"?>
<svg id="Warstwa_1" data-name="Warstwa 1" xmlns="http://www.w3.org/2000/svg" viewBox="0 0 512 512">
  <defs>
    <style>
      .cls-1 {
        fill: #000;
      }

      .cls-1, .cls-2 {
        stroke-width: 0px;
      }

      .cls-2 {
        fill: #fff;
      }
    </style>
  </defs>
  <path class="cls-1" d="M256,166.88c-130.43,0-235,39.1-235,88.11s105.43,88.14,235,88.14,235-39.54,235-88.14-105.41-88.11-235-88.11"/>
  <g>
    <path class="cls-2" d="M348.57,273.65c.06.42.59.8,1.09.99.21.06.29.19.08.63-1.47,3.11-2.8,4.92-4.62,7.65-1.68,2.52-3.59,4.48-5.89,6.37-3.49,2.88-8.3,5.99-12.3,3.91-1.77-.92-2.52-3.41-2.5-5.4.08-5.65,2.61-11.43,7.23-17.13,5.65-6.94,11.9-10.55,15.97-8.6,4.25,2.04,2.9,6.94,1.01,10.78-.13.25-.16.53-.08.8M394.06,229.72c.29-.55,0-.95-.69-.95h-11.88c-.88,0-1.35.13-1.74.95-1.37,2.61-17.97,27.47-21.06,32.31-.5.74-1.16.63-1.22-.21-.32-2.86-2.8-6.16-6.71-7.74-2.82-1.14-5.89-1.5-8.89-1.05-5.47.76-10.32,3.64-14.61,6.87-6.43,4.9-11.98,11.25-19.17,15.95-3.93,2.54-9.29,4.77-12.89,1.45-3.24-3.01-2.88-9.71,2.1-14.88.53-.55,1.16-.08,1.05.4-.55,2.29.18,4.7,1.89,6.31,2.17,1.93,5.25,2.17,7.92.84,3.03-1.58,5.09-4.55,5.51-7.95.71-4.94-2.72-9.52-7.66-10.23-.22-.03-.44-.05-.66-.07-4.12-.29-8.09,1.14-11.96,4.33-1.82,1.47-3.41,3.22-4.71,5.17-.42.59-1.03.63-1.01-.21.19-6.77-2.61-10.57-8.2-10.7-4.33-.11-8.98,2.25-12.59,5.13-3.95,3.17-7.42,7.4-11.14,11.35-.44.5-.84.48-.99-.46.02-4.2-1.12-8.33-3.3-11.92-.8-1.16-2.34-1.53-3.57-.86-.61.32-2.69,1.26-4.2,2.5-.76.63-1.05,1.51-.71,2.67,2,6.68,1.56,14.29-1.16,20.73-2.5,5.89-7.34,11.2-13.03,12.99-3.74,1.2-7.65.61-10.07-2.73-3.3-4.58-1.98-12.55,2.96-19.19,4.37-5.84,10.68-9.54,16.96-11.94.74-.27.9-.76.69-1.39l-1.11-3.07c-.59-1.56-2.21-1.79-4.16-1.58-4.58.53-8.7,2.1-12.78,4.27-10.66,5.72-16.02,16.77-18.35,22.7-.79,2.22-1.92,4.3-3.34,6.18-1.68,2.1-3.78,4.04-7.65,7.42-.43.39-.56,1.02-.32,1.56.79,1.44,1.79,2.76,2.96,3.91.63.32,1.37-.13,1.66-.34,2.69-1.83,5.93-4.73,7.5-6.71.55-.67,1.14-.38,1.43.63,1.45,5.33,5.45,9.59,10.68,11.37,9.77,3.3,19.93-1.47,27.58-9.8,4.86-5.25,6.62-8.68,8.49-10.97,3.15-3.93,9.4-12.7,16.82-18.31,2.73-2.08,5.95-3.66,7.57-2.61,1.3.84,1.72,2.8-.36,6.6-7.57,13.83-18.71,30.06-20.77,34.01-.38.67-.04,1.22.67,1.22h11.48c.61-.04.88-.32,1.18-.74,5.8-9.1,11.27-17.76,17.13-26.69.34-.55.63-.13.63.11.15,2.06.63,4.9,1.89,6.77,1.85,3.11,5.21,5,8.83,4.96,2.47.03,4.91-.48,7.15-1.51,2.44-.9,4.41-2.08,5.89-3.15.88-.61,1.05.42,1.01.57-1.35,7.21.32,15.76,7.5,19.34,8.58,4.2,18.01-1.72,23.46-7.1.53-.53,1.09-.46,1.16.65.13,2.06,1.05,4.48,2.73,6.2,4.54,4.56,13.73,2.73,22.93-4.39,5.93-4.56,12.11-11.01,17.7-17.85.21-.25.38-.67-.04-1.11-.84-.88-2.08-1.89-2.92-2.69-.38-.34-.95-.23-1.26,0-5.74,5.47-10.91,11.67-18.35,16.82-2.52,1.74-6.52,3.15-8.32.74-.71-.95-.63-2.25.06-3.99,2.17-5.4,36.57-57.8,38.38-60.89"/>
    <path class="cls-2" d="M232.12,236.05c.15.78.46.92.82.84,1.96-.53,3.66-1.76,4.79-3.45,1.05-1.51,1.53-3.7.5-4.58-.92-.78-2.42-.57-3.53.42-1.92,1.69-2.89,4.22-2.59,6.77M144.41,303.5c-12.82.08-24.13-7.84-25.43-21.59-.75-7.15,1.31-14.31,5.74-19.97,3.83-4.98,10.3-9.1,15.76-10.11,1.77-.34,4.16-.13,5.15,1.05,1.56,1.81,1.11,3.78-.44,4.58-4.18,2.12-9.21,5.78-11.69,10.76-2.33,4.32-2.08,9.57.65,13.64,5.15,7.78,19.53,7.99,32.87-4.41,3.32-3.05,6.26-5.97,9.27-9.42,5.89-6.73,7.84-9.19,15.66-20.03.08-.13.13-.29.08-.36-.06-.15-.17-.17-.4-.21-5.21.17-9.77,1.72-14.19,5.02-1.26.92-3.11.8-3.91-.42-.88-1.39-.25-3.19,1.22-4.2,7.1-4.96,14.88-5.84,22.83-7.19,0,0,.55,0,1.01-.57,3.26-4.2,5.72-7.97,9.19-12.19,3.51-4.29,8.03-8.24,11.48-11.2,4.83-4.14,7.92-5.53,11.06-7.25.84-.42-.11-.95-.36-.95-17.55-3.3-35.78-7.57-53.2-1.11-12.07,4.5-17.36,14.08-14.82,20.47,1.81,4.54,7.78,5.25,13.37,2.52,4.62-2.25,8.93-5.93,11.98-10.64,1.68-2.63,5.28-.74,3.34,3.83-5.11,11.98-14.84,21.48-26.69,21.88-10.11.34-16.63-7.1-16.61-16.27.04-18.08,20.18-29.97,41.3-31.76,25.48-2.1,49.61,4.69,74.89,7.76,19.38,2.33,37.96,2.4,57.45-2.1,2.31-.48,3.91.99,3.78,3.3-.21,3.36-2.82,6.6-9.23,10.09-7.29,4.01-14.92,5.23-22.91,5.3-19.25.17-37.2-7.36-55.81-11.39.02.82.25,1.79-.42,2.31-10.3,7.57-19.61,15.28-25.85,26.11-.21.25-.08.5.27.46,5.42-.27,10.28-.42,15.34-.84.86-.06.9-.27.84-.92-.55-4.06.9-8.13,3.91-10.91,3.36-3.01,7.57-3.36,10.36-1.18,3.15,2.46,2.88,6.92,1.16,10.24-1.57,2.95-4.27,5.15-7.48,6.07,0,0-.59.13-.5.65.11.84,3.93,2.96,4.25,3.53.32.55.15,1.37-.42,2-.46.55-1.13.88-1.85.88-.65,0-1.05-.23-1.89-.69-2-1.07-3.79-2.51-5.25-4.25-.5-.61-.76-.63-1.95-.55-5.47.32-14,1.14-19.76,1.85-1.41.17-1.62.44-1.89.92-9.21,15.18-19.04,31.55-29.85,42.52-11.56,11.75-21.19,14.84-31.4,14.92"/>
    <path class="cls-2" d="M256,181.29c-120,0-217.26,33.15-217.26,73.74s97.26,73.74,217.26,73.74,217.26-33.17,217.26-73.74-97.28-73.74-217.26-73.74M256,335.45c-124.37,0-225.18-36.01-225.18-80.42s100.81-80.42,225.18-80.42,225.16,35.99,225.16,80.42-100.81,80.42-225.16,80.42"/>
  </g>
</svg>