<?xml version="1.0" encoding="UTF-8"?>
<svg id="Warstwa_1" data-name="Warstwa 1" xmlns="http://www.w3.org/2000/svg" viewBox="0 0 512 512">
  <defs>
    <style>
      .cls-1 {
        fill: #004f9e;
        fill-rule: evenodd;
        stroke-width: 0px;
      }
    </style>
  </defs>
  <polygon class="cls-1" points="21 307.85 39.19 307.85 39.19 327.86 71.69 327.86 71.69 307.85 89.66 307.85 89.66 363.99 71.69 363.99 71.69 340.36 38.96 340.36 38.96 363.77 21 363.77 21 307.85 21 307.85"/>
  <polygon class="cls-1" points="91.7 307.85 109.43 307.85 128.07 329.45 146.49 307.85 163.99 307.85 136.94 342.17 136.94 363.99 118.98 363.99 118.98 340.58 91.7 307.85 91.7 307.85"/>
  <path class="cls-1" d="M166.26,307.85h17.96v43.42h28.87c4.55,0,7.5-4.54,7.5-9.32v-34.1h17.96v44.78c0,7.04-7.95,11.14-12.5,11.14h-59.79v-55.92h0Z"/>
  <path class="cls-1" d="M242.42,307.85h59.79c7.05,0,12.73,4.31,12.73,13.08v42.95l-17.96.11v-34.1c0-4.77-1.59-7.61-7.73-7.61h-27.05v41.83h-19.78v-56.27h0Z"/>
  <path class="cls-1" d="M320.4,307.85h52.28c10.46,0,18.53,8.41,18.53,14.89v25.8c-.12,4.54-6.48,15.45-14.44,15.45h-56.38v-56.14h0ZM338.69,351.5h27.59c3.97,0,7.05-2.96,7.05-6.6v-16.37c0-3.98-3.27-6.36-7.47-6.36h-27.17v29.32h0Z"/>
  <path class="cls-1" d="M413.37,307.62h56.04v56.38h-20.01v-14.54h-34.44v14.54h-20.23v-36.6c-.45-12.27,10.46-19.78,18.64-19.78h0ZM414.73,327.63v9.08h34.55v-14.33h-29.1c-3.4,0-5.45,2.05-5.45,5.24h0Z"/>
  <polygon class="cls-1" points="473.04 307.74 491 307.74 491 365.7 473.04 365.7 473.04 307.74 473.04 307.74"/>
  <path class="cls-1" d="M257.09,145.3c-74.52,0-134.94,29.83-134.94,66.61s60.41,66.62,134.94,66.62,134.93-29.83,134.93-66.62-60.41-66.61-134.93-66.61h0ZM244.29,160.13c15.4-5.44,61.16,0,78.93,8.54,5.69,5.46-25.37,22.98-62.34,30.58-52.86,10.66-27.74-30.11-16.59-39.12h0ZM153.51,239.06c-11.62-8.28-34.37-31.99,3.32-56.64,19.91-11.61,31.05-14.23,44.79-17.07,6.64-1.43,11.38.24,5.45,5.22-12.56,13.04-38.63,56.17-41,65.66-1.9,6.41-5.69,8.06-12.56,2.84h0ZM262.07,266.56c-22.28,2.36-71.82-4.98-72.77-11.37.95-15.42,78.69-41.02,92.68-26.79,5.93,11.14-5.45,37.45-19.91,38.16h0ZM375.37,221.75c-5.69,13.04-24.89,27.74-65.18,37.7-6.17,1.41-8.3-2.38-4.27-5.93,6.64-4.03,38.64-57.59,42.67-68.27,2.37-5.46,6.87-3.32,9.72-1.19,12.8,8.3,22.52,21.81,17.06,37.68h0Z"/>
</svg>