<?xml version="1.0" encoding="UTF-8"?>
<svg id="Warstwa_1" data-name="Warstwa 1" xmlns="http://www.w3.org/2000/svg" viewBox="0 0 512 512">
  <defs>
    <style>
      .cls-1 {
        fill: #000;
      }

      .cls-1, .cls-2 {
        stroke-width: 0px;
      }

      .cls-2 {
        fill: #0056a3;
      }
    </style>
  </defs>
  <rect class="cls-1" x="21.36" y="218.59" width="20.86" height="72.83" rx=".71" ry=".71"/>
  <path class="cls-1" d="M112.94,276.71l36.14-57.07c.41-.65,1.13-1.05,1.9-1.05h19.33c1.11,0,1.79,1.22,1.21,2.17l-37.9,61.14c-9.73,15.7-32.66,15.44-42.04-.47l-35.76-60.69c-.56-.95.12-2.14,1.22-2.14h19.34c.8,0,1.54.43,1.95,1.12l33.19,56.97c.31.54,1.09.55,1.42.03Z"/>
  <path class="cls-1" d="M200.9,272.47v-35.86c0-.39.31-.7.7-.7h64.39c.39,0,.7-.31.7-.7v-15.9c0-.39-.31-.7-.7-.7h-61.88c-13.43,0-24.42,9.99-24.42,23.42v27.04c0,12.38,10.04,21.42,22.42,21.42h63.88c.39,0,.7-.31.7-.7v-15.9c0-.39-.31-.7-.7-.7h-64.39c-.39,0-.7-.31-.7-.7Z"/>
  <path class="cls-1" d="M307.3,272.47v-35.86c0-.39.31-.7.7-.7h64.39c.39,0,.7-.31.7-.7v-15.9c0-.39-.31-.7-.7-.7h-61.88c-13.43,0-24.42,9.99-24.42,23.42v27.04c0,12.38,10.04,21.42,22.42,21.42h63.88c.39,0,.7-.31.7-.7v-15.9c0-.39-.31-.7-.7-.7h-64.39c-.39,0-.7-.31-.7-.7Z"/>
  <path class="cls-1" d="M465.23,218.59h-50.79c-12.38,0-24.42,10.04-24.42,22.42v27.04c0,12.38,12.04,22.42,24.42,22.42h50.79c12.38,0,24.42-10.04,24.42-22.42v-27.04c0-12.38-12.04-22.42-24.42-22.42ZM467.73,273.17h-55.79c-.39,0-.71-.32-.71-.71v-35.85c0-.39.32-.71.71-.71h55.79c.39,0,.71.32.71.71v35.85c0,.39-.32.71-.71.71Z"/>
  <rect class="cls-2" x="211.36" y="246.43" width="55.33" height="16.21" rx=".71" ry=".71"/>
</svg>