<?xml version="1.0" encoding="UTF-8"?>
<svg id="Warstwa_1" data-name="Warstwa 1" xmlns="http://www.w3.org/2000/svg" viewBox="0 0 512 512">
  <defs>
    <style>
      .cls-1 {
        fill: #000;
        fill-rule: evenodd;
        stroke-width: 0px;
      }
    </style>
  </defs>
  <path class="cls-1" d="M138.78,259.79c0,43.24-19.92,59.75-59.75,59.75s-58.04-22.19-58.04-56.33v-21.62h43.81v17.64c0,11.95,0,23.33,13.09,23.33s11.95-15.36,11.95-22.19v-100.71h48.93v100.15h0v-.02Z"/>
  <path class="cls-1" d="M182.6,246.14c1.71-11.95,8.53-18.78,19.92-18.78,10.24,0,17.64,8.54,17.64,18.78h-37.56ZM258.28,268.9c0-44.38-18.21-69.42-59.18-69.42-33,0-54.62,26.74-54.62,59.75,0,38.12,25.04,59.75,58.04,59.75,23.9,0,45.52-11.38,53.49-35.85h-36.99c-3.41,5.12-10.24,7.97-16.5,7.97-12.52,0-19.35-9.1-20.48-22.19h76.25-.01Z"/>
  <path class="cls-1" d="M299.24,246.14c1.71-11.95,8.54-18.78,19.91-18.78,10.24,0,17.64,8.54,17.64,18.78h-37.55ZM374.92,268.9c0-44.38-18.21-69.42-59.18-69.42-33,0-54.62,26.74-54.62,59.75,0,38.12,25.04,59.75,58.04,59.75,23.33,0,45.52-11.38,53.49-35.85h-36.99c-3.41,5.12-10.24,7.97-16.5,7.97-12.52,0-19.35-9.1-20.48-22.19h76.25-.01Z"/>
  <path class="cls-1" d="M417.03,259.22c0-13.66,2.84-27.88,17.07-27.88s17.64,14.23,17.64,27.88-3.41,27.88-17.64,27.88-17.07-14.79-17.07-27.88h0ZM378.91,352.54h39.26v-48.94h.57c5.69,9.67,16.5,15.36,28.45,15.36,34.71,0,43.81-32.43,43.81-59.18,0-28.45-13.66-60.32-43.24-60.32-19.35,0-25.61,7.97-30.73,15.36h0v-12.52h-38.12v150.22h0v.02Z"/>
  <path class="cls-1" d="M473.36,332.63c0-5.12,3.41-8.54,7.97-8.54s7.97,3.41,7.97,8.54c0,4.55-3.41,7.97-7.97,7.97s-7.97-3.41-7.97-7.97h0ZM471.08,332.63c0,5.12,4.55,9.67,10.24,9.67,5.12,0,9.67-4.55,9.67-9.67,0-5.69-4.55-9.67-9.67-9.67-5.69,0-10.24,3.98-10.24,9.67h0ZM477.34,338.32h1.71v-5.12h2.28l2.85,5.12h2.28l-3.41-5.12c1.71,0,2.85-1.14,2.85-3.41,0-1.71-1.14-2.84-3.98-2.84h-4.55v11.38h-.03ZM479.05,328.07h2.85c1.14,0,2.28.57,2.28,1.71,0,1.71-1.71,2.28-2.85,2.28h-2.28v-3.98h0Z"/>
</svg>