<?xml version="1.0" encoding="UTF-8"?>
<svg id="Warstwa_1" data-name="Warstwa 1" xmlns="http://www.w3.org/2000/svg" viewBox="0 0 512 512">
  <defs>
    <style>
      .cls-1 {
        fill: #c72128;
        stroke-width: 0px;
      }
    </style>
  </defs>
  <path class="cls-1" d="M491,210.52v62.58c0,5.27-2.69,10.11-7.2,12.8l-40.54,24.84c-.75.43-1.61-.11-1.61-.97v-71.94c0-.86-.97-1.4-1.61-.86l-107.96,70.22c-1.94,1.29-4.19,1.94-6.45,1.94h-71.61c-4.73,0-8.6-3.87-8.6-8.6v-88.92c0-.86-.97-1.4-1.61-.97l-71.83,43.33c-.65.32-.65,1.18-.22,1.72l52.04,51.94c.54.54.11,1.51-.65,1.51h-48.17c-2.58,0-5.05-.97-6.88-2.8l-30.75-30.65c-.32-.32-.86-.43-1.29-.11l-53.01,32.04c-1.61.97-3.55,1.51-5.48,1.51H29.6c-4.73,0-8.6-3.87-8.6-8.6v-61.72c0-5.27,2.8-10.22,7.31-12.9l40.86-24.62c.75-.43,1.61.11,1.61.97v81.83c0,.86.97,1.4,1.61.97l135.16-81.61c1.61-.97,3.55-1.51,5.48-1.51h72.04c4.73,0,8.6,3.87,8.6,8.6v88.17c0,.86.97,1.4,1.61.86l148.82-95.91c1.72-1.08,3.76-1.72,5.81-1.72h32.37c4.84,0,8.71,3.76,8.71,8.6Z"/>
</svg>