<?xml version="1.0" encoding="UTF-8"?>
<svg id="Warstwa_1" data-name="Warstwa 1" xmlns="http://www.w3.org/2000/svg" viewBox="0 0 512 512">
  <defs>
    <style>
      .cls-1 {
        fill: #000;
        fill-rule: evenodd;
        stroke-width: 0px;
      }
    </style>
  </defs>
  <path class="cls-1" d="M260.45,160.81c-9.54,11.76-36.73,49.72-39.83,54.64-5.97,9.42-6.49,13.98-6.67,17.02-.17,2.99-.17,8.37,4.68,12.76,8.13,7.25,19.54,6.08,29.66,6.08h83.36c3.57,0,4.62-1.05,6.55-3.63,6.67-10.18,9.65-21.24,9.65-31.12,0-21.18-13.75-47.85-48.56-59.91l-3.92,5.62c27.61,13.1,39.02,30.24,39.02,54.23.18,6.44-1.52,13.4-5.74,19.83h-81.08c-4.85,0-5.56-5.5-3.8-8.6,6.95-12.37,14.71-24.27,23.22-35.62,8.19-10.94,16.26-21.18,24.75-31.88,2.28-2.98.76-5.85-3.8-6.79-9.48-1.99-19.36-3.39-31.36-3.39-66.51,0-90.85,38.2-90.85,66.51,0,30.71,24.51,66.34,91.03,66.34,36.91,0,61.08-11.88,75.06-27.15h-14.1c-12.23,11.29-33.23,19.31-60.96,19.31-56.34,0-77.1-31.65-77.1-58.91.41-24.34,22.7-57.92,78.51-59.03,2.11-.06,3.75,1.87,2.28,3.69h0ZM460.52,336.14c3.33.47,5.91,3.1,5.91,6.2,0,3.5-3.16,6.31-7.02,6.31h-71.48v-46.74h-21.06v46.86h-38.73c-10.47,0-12.63-6.38-12.63-12.23v-34.92h-34.92c-3.45,2.34-6.79,4.92-10.36,7.08l-20.71,12.75-26.91-19.65h-41.89v11.76h15.15v-6.44l35.63,25.57-24.34,15.26h-26.44v11.76h30.59c3.28-2.22,6.38-4.56,9.77-6.61l21.29-12.93,27.03,19.31h30.78l-40.66-30.6,20.89-13.63c4.45-2.93,9.13-5.38,13.69-8.07v30.77c0,12.99,3.33,22,29.48,22l147.71-.35c11.41.17,18.72-7.72,18.72-17.26s-8.43-17.26-18.72-17.26h-53.35c.7-6.49,6.31-11.93,11.99-11.93h54l-.17-11.29h-57.27c-18.14,0-32.64,15.03-33.05,32.53-.06,1.23.76,1.99,2.11,1.99l64.99-.24h0ZM180.71,335.96v-11.99h10.41v11.99h-10.41ZM180.71,301.8h-39.55c-10.7,0-18.95,2.81-25.04,7.6-10.94,8.66-14.45,17.78-14.33,21.88h14.27c-6.26,4.68-10.47,10.29-12.69,16.79h-46.8c-8.42,0-13.87-5.96-13.87-11.76v-34.92h-20.71v36.27c0,13.04,12.4,22.05,32.29,22.05h126.42v-11.76h-50.19c.23-5.96,6.61-11.99,12.4-11.99h37.79v-11.99h-50.78c-.7-3.51,5.85-10.41,10.88-10.41h39.9v-11.76h0Z"/>
</svg>