<?xml version="1.0" encoding="UTF-8"?>
<svg id="Warstwa_1" data-name="Warstwa 1" xmlns="http://www.w3.org/2000/svg" viewBox="0 0 512 512">
  <defs>
    <style>
      .cls-1 {
        fill: #1d1d1b;
        fill-rule: evenodd;
        stroke-width: 0px;
      }
    </style>
  </defs>
  <path class="cls-1" d="M465.63,374.13c.72-7.1,1.09-16.1,1.09-23.39,0-116.65-94.57-211.23-211.22-211.23S44.28,234.08,44.28,350.74c0,7.94.44,15.69,1.29,23.41l-23.36-.03c-.8-7.89-1.21-15.28-1.21-23.38,0-129.51,104.99-234.5,234.5-234.5s234.5,104.99,234.5,234.5c0,7.89-.39,15.69-1.15,23.38l-23.22.02h0Z"/>
  <polygon class="cls-1" points="119.72 368.84 144.41 343.33 144.41 374.19 178.56 374.19 178.56 305.06 144.41 305.06 119.72 334.69 95.03 305.06 60.88 305.06 60.88 374.19 95.03 374.19 95.03 343.33 119.72 368.84 119.72 368.84"/>
  <polygon class="cls-1" points="331.21 305.06 331.21 374.19 365.36 374.19 365.36 337.98 411.03 374.19 447.24 374.19 447.24 305.06 413.09 305.06 413.09 342.1 365.36 305.06 331.21 305.06 331.21 305.06"/>
  <polygon class="cls-1" points="191.31 374.19 234.93 305.06 274.84 305.06 318.86 374.19 282.66 374.19 255.09 330.58 241.51 352.79 268.67 352.79 278.54 368.02 231.64 368.02 227.52 374.19 191.31 374.19 191.31 374.19"/>
</svg>