<?xml version="1.0" encoding="UTF-8"?>
<svg id="Warstwa_1" data-name="Warstwa 1" xmlns="http://www.w3.org/2000/svg" viewBox="0 0 512 512">
  <defs>
    <style>
      .cls-1 {
        fill: #1d1d1b;
        fill-rule: evenodd;
        stroke-width: 0px;
      }
    </style>
  </defs>
  <path class="cls-1" d="M172.34,292.82c-7.63-4.69-10.06-10.65-21.67-15.43-11.56-15.14-16.04-33.97-16.04-52.81,0-13.75,2.39-27.51,6.16-39.85h0l11.65,23.2h0c-.7,5.16-1,10.74-1,16.7,0,76.86,50.99,92.37,104.76,92.19,53.78.18,104.76-15.33,104.76-92.19,0-7.88-.54-15.13-1.56-21.77h0l8.33-17.16h0c4.39,10.93,6.77,24.92,6.49,39.01-.45,22.71-7.82,45.67-24.86,56.47h0l-2.76,4.1-2.95,3.74-3.15,3.48-3.33,3.22-3.51,2.96-3.68,2.72-3.83,2.49-3.98,2.26-4.12,2.04-4.25,1.83-4.37,1.63-4.48,1.44-4.57,1.26-4.67,1.08-4.74.93-4.82.77-4.88.63-4.94.48-4.99.36-5.02.24-5.05.13h-10.13l-5.05-.13-5.02-.24-4.99-.36-4.93-.48-4.88-.63-4.82-.77-4.75-.93-4.66-1.08-4.57-1.26-4.47-1.44-4.37-1.63-4.25-1.83-4.12-2.04-3.99-2.26-3.84-2.49-3.68-2.72-3.51-2.96-2.89-2.89h0ZM140.84,154.42l-1.6-1.6h0c-13.73,16.65-22.37,39.79-22.37,71.8,0,96.9,79.1,112.62,139.33,112.62s139.33-15.71,139.33-112.62c0-32.01-8.64-55.15-22.37-71.8h0l-1.59,1.54h0c-.29,8.47-1.76,17.25-2.97,25.53,6.01,12.96,8.86,28.35,9.26,44.72.88,48.14-23.58,98.71-121.66,102-61.65-.49-100.4-19.5-116.23-59.23-10.48-6.66-15.6-18.93-20.46-30.83h0l-.25-3.21-.23-8.74.23-8.73.66-8.26,1.09-7.81,1.48-7.36,1.87-6.93,2.23-6.51,2.57-6.1,2.9-5.72,3.21-5.34,3-4.18h0c1.14,8.16,2.56,19,5.09,21.08,31.2,26.2,86.12,22.82,112.54,75.62,28.71-58.55,79.41-51.16,110.61-77.36h0l2.9-25.09h0c-36.39,39.33-85.84,25.99-113.52,84.82-29.82-57.76-78.59-43.5-115.07-82.33h0ZM165.29,168.47c18.72-28.96,54.16-36.16,90.92-36.04,36.13-.12,71,6.84,90.04,34.92h0l22.51-17.05h0s1.33-1.02,1.33-1.02h0c-28.25-30.72-74.99-37.28-113.88-37.28s-87.6,6.84-115.64,39.25h0l.53.43h0s.78.63.78.63l.39.32h0c6.05,5.92,12.74,12.14,19.53,15.69,1.1.48,2.34.68,3.5.15h0ZM366.69,148.88l-10.15,6.38h0c-30.09-26.47-62.15-32.94-100.33-32.68-38.57-.26-72.41,6.6-102.11,34.85h0l-10.41-6.38,2.92-3.11,4.29-3.97,4.51-3.67,4.72-3.37,4.92-3.09,5.1-2.81,5.26-2.55,5.41-2.29,5.54-2.06,5.65-1.82,5.74-1.61,5.81-1.4,5.86-1.2,5.91-1.02,5.92-.84,5.93-.68,5.91-.53,5.88-.39,5.82-.27,5.75-.15,5.66-.05,5.66.05,5.75.15,5.83.27,5.88.39,5.91.53,5.93.68,5.93.84,5.9,1.02,5.87,1.2,5.81,1.4,5.74,1.61,5.64,1.82,5.54,2.06,5.4,2.29,5.26,2.55,5.1,2.81,4.93,3.09,4.72,3.37,4.51,3.67,4.28,3.98.88.93h0ZM255.91,272.2c-12.88-27.64-26.94-40.12-48.44-49.04h0l-53.79-18.13-7.43-20.51h0c13.24,10.15,32.72,17.03,51.31,24.21,28.66,10.95,44.25,24.87,58.35,53.35h0v10.1h0ZM255.91,272.2c12.88-27.64,26.95-41.9,48.44-50.82h0l53.2-19.02,7.4-19.85h0c-13.24,10.15-34.17,17.86-52.77,25.04-28.66,10.95-42.17,26.06-56.27,54.54h0v10.1h0ZM349.66,185.29l3.29-1.72,3.2-1.83,3.1-1.97,3-2.12,2.22-1.77,2.08-17.98-2.65,2.45-3.66,3.06-3.72,2.81-3.77,2.59-3.81,2.38-3.84,2.2-3.87,2.05-3.88,1.92-7.79,3.53h0c-6.42,2.73-12.86,5.37-19.28,8.13h0l-7.5,3.46-3.68,1.86-3.38,1.85h0c-8.8,7.5-13.21,14.77-15.01,22.46h0l2.39-1.95,3.65-2.7,3.71-2.49,3.74-2.3,3.78-2.12,3.8-1.97,3.81-1.83,3.82-1.71,7.64-3.14h0c7.41-2.87,14.88-5.58,22.24-8.52h0l3.53-1.47,3.46-1.54,3.38-1.62h0ZM285.36,202.92l-.39.28-3.36,2.68-3.28,2.91-3.21,3.17-.9,1h0c-3.07,5.78-4.43,11.07-4.29,16.19h0l2.61-2.89,3.45-3.44,1.54-1.38h0c.86-6.09,3.47-12.2,7.84-18.5h0ZM207.64,193.81l-.04-.02-7.56-3.3h0c-6.42-2.62-12.88-5.13-19.32-7.75h0l-7.78-3.39-3.88-1.85-3.86-1.98-3.83-2.15-3.8-2.32-3.77-2.53-3.72-2.75-3.67-3-3.6-3.27-2.48-2.5h0c.46,3.14.92,6.27,1.42,9.39h0l.58,3.19.64,2.87.68,2.36.68,1.6.6.79,2.74,2.17,3.03,2.15,3.16,2.02,3.28,1.9,3.39,1.8,3.49,1.71,3.58,1.64,7.39,3.12h0c7.77,3.1,15.6,6.05,23.35,9.19h0l7.92,3.42,3.94,1.85,3.92,1.97,3.87,2.09,3.84,2.25,2.06,1.31h0c-4.54-7.54-10.27-14.78-16.24-22.01h0Z"/>
  <path class="cls-1" d="M223.98,386.84h-15.58l-.59-.02-.58-.12-.54-.23-.49-.32-.43-.4-.34-.47-.26-.53-.16-.57-.05-.58.05-.59.16-.56.26-.53.34-.47.43-.4.49-.32.54-.23.58-.12.59-.02h15.58v6.48h0ZM278.64,350.95h-35.29v14.31h17.81l17.48-14.31h0ZM254.76,400h35.29v-14.62h-16.36l-18.93,14.62h0ZM310,385.45v-19.98h12.35l1.02.03,1.03.09,1.01.17,1,.21.68.24.62.33.56.44.49.51.41.71.33.84.28.92.22,1.01.16,1.07.17,1.12.05,1.18v1.23l-.05,1.18-.11,1.12-.11,1.12-.22,1.07-.27,1.01-.27.91-.37.8-.43.65-.42.53-.44.42-.6.32-.66.26-.71.21-.76.16-.84.08-.88.03h-.9s-12.35.02-12.35.02h0ZM380.95,380.31v6.54h-15.19l-.68-.02-.66-.16-.61-.28-.53-.4-.44-.51-.33-.58-.21-.65-.07-.67.07-.67.21-.64.32-.59.44-.51.54-.4.61-.28.65-.16.68-.02h15.2ZM293.36,400h37.43l1.41-.08,1.39-.21,1.38-.33,1.34-.45,1.29-.58,1.23-.69,1.16-.81,1.14-.95,1.04-1.05.94-1.15.67-1,.6-1.04.51-1.08.42-1.12.34-1.16.29,1.04.36,1.01.43.98.5.95.56.92.63.87.69.82.75.78.8.72.84.67.89.6.93.54.96.47,1,.4,1.02.33,1.05.26,1.05.19,1.07.11,1.08.03h36.82v-33.22l-.03-1.14-.12-1.13-.2-1.11-.28-1.1-.36-1.08-.43-1.04-.51-1.01-.59-.97-.65-.92-.73-.87-.78-.83-.84-.77-.89-.7-.94-.63-.98-.56-1.03-.48-1.05-.41-1.09-.32-1.1-.26-1.12-.17-1.13-.09h-33.92v13.26h27.35l.71.03.67.26.54.46.36.61.14.7-.1.71-.32.64-.51.49-.64.3-.71.08h-15.62l-1.13.04-1.12.12-1.12.21-1.09.28-1.07.36-1.04.44-1,.52-.96.59-.91.66-.87.73-.81.8-.75.84-.69.89-.62.95-.15-3.9-.08-1.13-.08-1.18-.09-1.47-.16-1.45-.23-1.45-.29-1.43-.32-1.18-.38-1.16-.44-1.14-.49-1.12-.6-1.01-.67-.96-.75-.9-.8-.82-.85-.75-.89-.7-.94-.63-.98-.57-1.02-.5-1.06-.42-1.1-.39-1.14-.31-1.15-.26-1.16-.18h-46.28l-44.75,35.63v-20.06l-.06-1.29-.17-1.27-.26-1.26-.36-1.24-.47-1.2-.56-1.15-.65-1.11-.74-1.05-.82-.98-.89-.92-.97-.84-1.04-.76-1.09-.68-1.14-.58-1.19-.49-1.23-.39-1.25-.29-1.27-.2-1.29-.09-1.29.02h-32.28v13.48h30.3s.44.11.44.11l.41.19.35.27.3.33.23.39.14.42.04.45-.04.45-.14.42-.23.39-.3.33-.35.28-.41.19-.44.1h-.45s-18.08.03-18.08.03l-1.26.05-1.25.16-1.24.25-1.21.35-1.17.44-1.14.54-1.09.63-1.03.72-.98.79-.9.87-.84.93-.77,1.01-.68,1.06-.59,1.11v-10.34l-.03-1.83-.24-1.81-.45-1.77-.64-1.71-.84-1.62-1.02-1.51-1.19-1.38-1.35-1.24-1.47-1.08-1.58-.89-1.69-.72-1.75-.51-1.8-.3-1.83-.1h-58.16v49.02h16.62v-34.23h12.18v34.23h16.19v-34.23h7.84l.77.07.74.21.7.33.62.45.53.56.42.64.29.71.17.75.03.78v29.74h16.95v-8.69l.58,1.11.67,1.06.75,1.01.84.93.91.87.98.79,1.04.71,1.09.62,1.14.52,1.18.43,1.22.33,1.24.23,1.25.13,1.26.02,44.47.02,45.69-36.2v36.2h0Z"/>
</svg>