<?xml version="1.0" encoding="UTF-8"?>
<svg id="Warstwa_1" data-name="Warstwa 1" xmlns="http://www.w3.org/2000/svg" viewBox="0 0 512 512">
  <defs>
    <style>
      .cls-1 {
        fill: #000;
        fill-rule: evenodd;
        stroke-width: 0px;
      }
    </style>
  </defs>
  <polygon class="cls-1" points="255.73 264.99 168.81 264.99 125.73 340.64 212.9 340.64 255.73 264.99 255.73 264.99 255.73 264.99"/>
  <polygon class="cls-1" points="299.89 187.39 256.43 111 212.85 187.39 256.43 263.91 299.89 187.39 299.89 187.39 299.89 187.39"/>
  <polygon class="cls-1" points="299.84 340.64 387.01 340.64 343.93 264.99 257.01 264.99 299.84 340.64 299.84 340.64 299.84 340.64"/>
  <polygon class="cls-1" points="295.98 399.91 302.49 399.91 302.49 365.13 295.98 365.13 295.98 399.91 295.98 399.91 295.98 399.91"/>
  <polygon class="cls-1" points="368.98 399.91 375.48 399.91 375.48 365.13 368.98 365.13 368.98 399.91 368.98 399.91 368.98 399.91"/>
  <polygon class="cls-1" points="173.64 399.91 180.15 399.91 180.15 365.13 173.64 365.13 173.64 399.91 173.64 399.91 173.64 399.91"/>
  <polygon class="cls-1" points="205.03 365.13 184.9 365.13 184.9 371.03 191.61 371.03 191.61 399.91 198.32 399.91 198.32 371.03 205.03 371.03 205.03 365.13 205.03 365.13 205.03 365.13"/>
  <polygon class="cls-1" points="355.94 378.35 341.29 378.35 341.29 365.13 334.78 365.13 334.78 399.91 341.29 399.91 341.29 384.25 355.94 384.25 355.94 399.91 362.45 399.91 362.45 365.13 355.94 365.13 355.94 378.35 355.94 378.35 355.94 378.35"/>
  <polygon class="cls-1" points="152.63 380.69 146.53 365.13 139.01 365.13 139.01 399.91 145.51 399.91 145.51 378.35 152.63 395.64 159.54 378.15 159.54 399.91 166.05 399.91 166.05 365.13 158.73 365.13 152.63 380.69 152.63 380.69 152.63 380.69"/>
  <path class="cls-1" d="M260.17,365.14h-6.45v24.81h0c0,2.7-3.02,4.89-5.72,4.89s-5.72-2.19-5.72-4.89h0v-24.81h-6.57l.1,24.5h0c0,6.27,5.92,11.36,12.19,11.36s12.19-5.09,12.19-11.36h0l-.02-24.5h0Z"/>
  <path class="cls-1" d="M285.27,381.1c.91-.61,4.37-2.64,4.37-7.02,0-6.1-4.88-8.85-8.13-8.95h-15.07v34.77h13.34c5.29,0,10.98-2.54,10.98-9.25,0-5.8-2.74-8.03-5.49-9.56h0ZM280.09,394.01h-7.14v-22.98h6.84c1.83,0,3.25,1.53,3.25,3.36s-.71,3.97-3.15,3.97h-2.84v5.9h3.05c1.83,0,4.37,1.73,4.27,5.29-.09,3.05-2.54,4.47-4.27,4.47h0Z"/>
  <path class="cls-1" d="M207.63,388.62c-.05.36,0,.76.02,1.42,0,6,4.86,10.55,10.86,10.55s10.86-4.05,10.86-10.04c0-3.15-1.24-5.59-3.38-7.57-1.75-1.62-6.75-4.05-8.69-5.24-1.83-1.12-2.69-1.98-2.74-3.61,0-2.38,1.58-4.06,3.96-4.06s4.31,1.93,4.31,4.31c.04.61.06,1.22.06,1.63h5.77v-1.63h0c0-5.6-3.53-10.03-10.14-10.03-5.6,0-10.14,3.83-10.14,10.03.02,2.75,1.29,5.39,4.44,7.47,3.39,2.24,7.63,3.91,9.05,5.34.86.86,1.39,2.04,1.39,3.35,0,2.62-2.12,4.49-4.75,4.49s-4.73-2.3-5.05-4.49c-.07-.56-.24-1.52-.19-1.93h-5.64Z"/>
  <path class="cls-1" d="M317.54,377.74c-1.83-1.12-2.69-1.98-2.74-3.61,0-2.38,1.58-4.06,3.96-4.06s4.31,1.93,4.31,4.31c.04.61.06,1.22.06,1.63h5.77v-1.63h0c0-5.6-3.53-10.03-10.14-10.03-5.6,0-10.14,3.83-10.14,10.03.02,2.75,1.29,5.39,4.44,7.47,3.39,2.24,7.63,3.91,9.05,5.34.86.86,1.39,2.04,1.39,3.35,0,2.62-2.12,4.49-4.74,4.49s-4.73-2.3-5.05-4.49c-.07-.56-.24-1.52-.19-1.93h-5.64c-.05.36,0,.76.02,1.42,0,6,4.86,10.55,10.86,10.55s10.86-4.05,10.86-10.04c0-3.15-1.24-5.59-3.38-7.57-1.75-1.62-6.75-4.05-8.69-5.24h0Z"/>
</svg>