<?xml version="1.0" encoding="UTF-8"?>
<svg id="Warstwa_1" data-name="Warstwa 1" xmlns="http://www.w3.org/2000/svg" xmlns:xlink="http://www.w3.org/1999/xlink" viewBox="0 0 512 512">
  <defs>
    <style>
      .cls-1 {
        fill: #6f6f6e;
      }

      .cls-1, .cls-2, .cls-3, .cls-4, .cls-5, .cls-6, .cls-7, .cls-8, .cls-9, .cls-10, .cls-11 {
        stroke-width: 0px;
      }

      .cls-2 {
        fill: url(#linear-gradient);
      }

      .cls-3 {
        fill: url(#radial-gradient);
      }

      .cls-4 {
        fill: #a7a6a6;
      }

      .cls-5 {
        fill: url(#radial-gradient-2);
      }

      .cls-6 {
        fill: url(#radial-gradient-3);
      }

      .cls-7 {
        fill: url(#radial-gradient-4);
      }

      .cls-8 {
        fill: url(#radial-gradient-5);
      }

      .cls-9 {
        fill: url(#radial-gradient-6);
        fill-rule: evenodd;
      }

      .cls-10 {
        fill: #fff;
      }

      .cls-11 {
        fill: #4a4a49;
      }
    </style>
    <linearGradient id="linear-gradient" x1="255.77" y1="114.28" x2="255.77" y2="350.33" gradientUnits="userSpaceOnUse">
      <stop offset=".19" stop-color="#fff"/>
      <stop offset=".32" stop-color="#c8c8c7"/>
      <stop offset=".48" stop-color="#8b8b8a"/>
      <stop offset=".62" stop-color="#5c5c5a"/>
      <stop offset=".75" stop-color="#393937"/>
      <stop offset=".85" stop-color="#242422"/>
      <stop offset=".92" stop-color="#1d1d1b"/>
    </linearGradient>
    <radialGradient id="radial-gradient" cx="160.7" cy="51.7" fx="160.7" fy="51.7" r="236.16" gradientUnits="userSpaceOnUse">
      <stop offset=".2" stop-color="#fff"/>
      <stop offset=".4" stop-color="#fcfcfc"/>
      <stop offset=".51" stop-color="#f4f4f4"/>
      <stop offset=".61" stop-color="#e6e6e6"/>
      <stop offset=".69" stop-color="#d4d4d3"/>
      <stop offset="1" stop-color="#575756"/>
    </radialGradient>
    <radialGradient id="radial-gradient-2" cx="732.22" cy="429.96" fx="732.22" fy="429.96" r="491.84" gradientUnits="userSpaceOnUse">
      <stop offset=".2" stop-color="#fff"/>
      <stop offset=".3" stop-color="#f3f3f3"/>
      <stop offset=".59" stop-color="#d4d4d3"/>
      <stop offset="1" stop-color="#575756"/>
    </radialGradient>
    <radialGradient id="radial-gradient-3" cx="217.42" cy="321.43" fx="217.42" fy="321.43" r="150.99" xlink:href="#radial-gradient-2"/>
    <radialGradient id="radial-gradient-4" cx="339.27" cy="475.82" fx="339.27" fy="475.82" r="286.5" xlink:href="#radial-gradient-2"/>
    <radialGradient id="radial-gradient-5" cx="253.5" cy="139.87" fx="253.5" fy="139.87" r="227.67" gradientUnits="userSpaceOnUse">
      <stop offset=".2" stop-color="#fff"/>
      <stop offset=".42" stop-color="#fcfcfc"/>
      <stop offset=".54" stop-color="#f4f4f4"/>
      <stop offset=".64" stop-color="#e6e6e6"/>
      <stop offset=".73" stop-color="#d4d4d3"/>
      <stop offset="1" stop-color="#6f6f6e"/>
    </radialGradient>
    <radialGradient id="radial-gradient-6" cx="258.77" cy="162.67" fx="258.77" fy="162.67" r="153.35" gradientUnits="userSpaceOnUse">
      <stop offset=".11" stop-color="#6f6f6e"/>
      <stop offset=".24" stop-color="#6b6b6a"/>
      <stop offset=".35" stop-color="#626261"/>
      <stop offset=".44" stop-color="#515150"/>
      <stop offset=".53" stop-color="#3b3b39"/>
      <stop offset=".61" stop-color="#1d1d1b"/>
      <stop offset=".61" stop-color="#1d1d1b"/>
    </radialGradient>
  </defs>
  <path class="cls-2" d="M413.45,219.89c-3.13-.88-6.62-1.29-13.96-2.19-30.38-1.25-105.46-4.17-143.72-4.17s-113.34,2.92-143.72,4.17c-7.34.91-10.83,1.32-13.96,2.19-9.55,2.25-11.65,5.68-11.65,12.52v46.89c0,6.84,7.33,11.45,12.38,12.38s8.25,1.31,13.57,1.82c27.17,1.68,90.22,5.19,143.38,5.24,53.16-.05,116.2-3.56,143.38-5.24,5.32-.51,8.52-.88,13.57-1.82,5.05-.93,12.38-5.55,12.38-12.38v-46.89c0-6.84-2.1-10.27-11.65-12.52Z"/>
  <path class="cls-3" d="M133.93,221.73c14.95-52,64.07-90.16,122.37-90.16s107.16,37.95,122.25,89.74c.05.18.08.28.13.45,8.67-.97,16.43-2.48,21.92-3.94-.1-.33-.13-.4-.21-.73-17.15-61.7-75.16-107.09-144.09-107.09s-127.32,45.69-144.26,107.7c7.62,2.09,13.2,2.96,21.89,4.04Z"/>
  <path class="cls-5" d="M378.2,289.89c-.15.46-.32.97-.4,1.22-15.9,50.55-64.27,87.32-121.5,87.32s-106.36-37.34-121.87-88.49c-9.48,1.68-12.68,2.32-22.05,3.56,17.36,61.39,75.21,106.5,143.92,106.5s126.61-45.16,143.94-106.6c-8.25-1.01-13.11-1.78-22.04-3.51Z"/>
  <path class="cls-6" d="M136.98,221.62c3.6-1.48,7.08-3.86,12.51-5.38,16.18-42.04,57.89-71.97,106.81-71.97s90.38,29.75,106.66,71.58c.06.14.12.32.16.42,2.8.97,11.05,4.32,13.62,5.44.36,0,1.14.03,1.95.06-.05-.16-.09-.3-.14-.45-15.1-51.78-64.11-89.71-122.25-89.71s-107.41,38.14-122.36,90.13c.87,0,2.51-.08,3.05-.11Z"/>
  <path class="cls-10" d="M255.38,135.12c54.55,0,102.9,32.53,121.21,86.14.04.13.09.28.15.46.29,0,1.32.04,1.95.06-.05-.2-.1-.31-.14-.45-15.1-51.78-64.11-89.71-122.25-89.71s-107.41,38.14-122.36,90.13c1.17-.02,1.73-.02,3.05-.11,16.38-50.9,64.25-86.5,118.39-86.5Z"/>
  <path class="cls-7" d="M375.11,290.04c-3.91,2.19-8.79,4.29-12.69,5.52-.05.13-.27.68-.32.81-16.87,40.68-57.87,69.39-105.78,69.39s-89.42-29.06-106.1-70.14c-4.49-1.25-11.19-4.31-13.73-5.58-.95-.05-1.46-.07-2.04-.1,15.51,51.15,64.2,88.49,121.87,88.49s105.92-37,121.66-87.78c.03-.1.21-.66.24-.76-.9.04-2.29.15-3.09.15Z"/>
  <path class="cls-8" d="M410.73,223.28c-8.05-.98-13.53-.87-33.14-1.55-.89-.03-1.79-.06-2.71-.09-35.54-1.22-88.93-2.85-119.11-2.85s-83.57,1.63-119.12,2.85c-.92.03-1.82.06-2.71.09-19.6.68-25.09.57-33.14,1.55-8.04.99-14.37,4.51-14.37,10.5v43.48c0,5.99,7.62,10.85,14.37,10.85,0,0,85.93,5.3,154.97,5.36,69.04-.06,154.97-5.36,154.97-5.36,6.75,0,14.37-4.86,14.37-10.85v-43.48c0-5.99-6.32-9.52-14.37-10.5Z"/>
  <path class="cls-9" d="M324.58,242.54c-2.82-6.31-1.83-5.65-7.97-5.81-.5-.17-1.83-.17-3.65-.17s-2.16,0-3.65.17c-5.81,0-4.82-.33-6.81,3.82,0,0-9.97,22.42-14.29,31.73l-.17.33c-.83,1.66-.33,1.66,1,1.66h8.97c.66,0,.99-.33,1.16-.66,0,0,1.33-2.83,2.99-6.81h21.93c1.66,3.82,2.82,6.64,2.82,6.81.17.5.67.66,1.16.66h9.3c1.33,0,1.66.17,1.16-.99-1.67-3.99-12.46-27.25-13.96-30.73h0ZM305.48,258.82c2.82-6.64,5.65-13.12,5.65-13.29.17-.33.5-.5,1-.5.17-.17.66-.17,1.16-.17.34,0,.83,0,1,.17.33,0,.67.17.83.67.66,1.83,3.16,7.48,5.48,13.12h-15.12ZM185.87,236.23c.83,0,1,.33,1,.99v35.55c0,.83-.17,1.16-1.16,1.16h-8.64c-.99,0-1.16-.17-1.16-1.16v-35.55c0-.66.17-.99.83-.99h9.14ZM167.43,236.56c.99,0,1.16.33,1.16,1.16v35.38c0,1-.17,1.16-1.16,1.16h-10.13c-5.98,0-6.48,0-8.47-3.32-4.15-6.48-16.61-25.58-16.61-25.58v27.74c0,1-.17,1.16-1.16,1.16h-7.48c-.99,0-1.16-.16-1.16-1.16v-35.38c0-.83.17-1.16,1.16-1.16h8.64c6.48,0,7.31-.16,9.64,3.16,1.83,2.99,16.94,26.25,16.94,26.25v-28.24c0-.83.17-1.16,1.16-1.16h7.48ZM389.2,236.56c1,0,1.16.33,1.16,1.16v35.38c0,1-.17,1.16-1.16,1.16h-10.13c-5.98,0-6.48,0-8.47-3.32-4.15-6.48-16.61-25.58-16.61-25.58v27.74c0,1-.17,1.16-1.16,1.16h-7.48c-.99,0-1.16-.16-1.16-1.16v-35.38c0-.83.17-1.16,1.16-1.16h8.64c6.48,0,7.31-.16,9.63,3.16,1.99,2.99,16.94,26.25,16.94,26.25v-28.24c0-.83.17-1.16,1.16-1.16h7.47ZM223.91,251.01c6.64.66,11.46,1.83,12.79,8.14,0,.5.17,2.16.17,3.99,0,1.16,0,2.66-.33,3.99-1.16,5.98-5.65,7.14-12.62,7.14h-27.91c-1,0-1.16-.16-1.16-1.16v-5.98c0-1,.17-1.16,1.16-1.16h28.24c1.16,0,1.5-.33,1.66-1.16v-2.49c-.17-.67-.33-1.66-1.83-1.83-3.16-.17-12.46-1-18.77-1.66-8.14-.83-10.13-4.32-10.47-7.31-.17-1-.17-2.33-.17-3.49,0-1,0-2.49.17-3.65,1.16-5.32,5.15-7.81,12.13-7.81h27.08c1,0,1.33.17,1.33,1v6.15c0,.83-.33,1.16-1.33.99h-26.58c-1.16,0-1.66.5-1.83,1.66v1.5c0,.83.5,1.5,1.66,1.66,3.16.34,12.96,1.16,16.61,1.5h0ZM271.92,251.01c6.65.66,11.47,1.83,12.79,8.14,0,.5.17,2.16.17,3.99,0,1.16,0,2.66-.33,3.99-1.16,5.98-5.65,7.14-12.63,7.14h-27.91c-1,0-1.16-.16-1.16-1.16v-5.98c0-1,.17-1.16,1.16-1.16h28.24c1.16,0,1.49-.33,1.66-1.16v-2.49c-.17-.67-.5-1.66-1.83-1.83-3.16-.17-12.46-1-18.77-1.66-8.14-.83-9.97-4.32-10.47-7.31-.17-1-.17-2.33-.17-3.49,0-1,0-2.49.17-3.65,1.16-5.32,5.15-7.81,12.13-7.81h27.08c.99,0,1.33.17,1.33,1v6.15c0,.83-.34,1.16-1.33.99h-26.58c-1.16,0-1.66.5-1.83,1.66v1.5c0,.83.33,1.5,1.66,1.66,3.16.34,12.96,1.16,16.61,1.5h0Z"/>
  <path class="cls-10" d="M375.11,290.04c-16.86,50.02-64.29,84.87-117.86,84.87s-102.14-32.01-120.77-84.87c-.69-.03-1.36-.06-2.03-.1,15.51,51.15,64.21,88.49,121.88,88.49s106.4-37.36,121.89-88.54c-1.02.05-2.06.1-3.11.15Z"/>
  <path class="cls-4" d="M375.21,290.04s-.07,0-.11,0c-3.91,2.19-8.79,4.29-12.69,5.52-.05.13-.27.68-.32.81-5.34,12.87-13.1,24.55-22.72,34.49,15.07-11.02,27.38-24.95,35.84-40.83Z"/>
  <path class="cls-1" d="M176.5,334.1c-11.34-10.8-20.37-23.88-26.3-38.48-4.49-1.25-11.19-4.31-13.73-5.58,2.74,5.68,5.95,11.06,9.56,16.07,7.47,9.72,16.52,18.39,26.82,25.73,1.2.78,2.42,1.54,3.65,2.26Z"/>
  <path class="cls-11" d="M134.44,289.94h0s-.04,0-.04,0c-9.45,1.67-12.65,2.31-22.01,3.56.76,2.67,1.59,5.31,2.5,7.92l19.55-11.48Z"/>
</svg>