<?xml version="1.0" encoding="UTF-8"?>
<svg id="Warstwa_1" data-name="Warstwa 1" xmlns="http://www.w3.org/2000/svg" viewBox="0 0 512 512">
  <defs>
    <style>
      .cls-1 {
        fill: #000;
        stroke-width: 0px;
      }
    </style>
  </defs>
  <g id="Layer_1" data-name="Layer 1">
    <g id="Nissan_Badge" data-name="Nissan Badge">
      <path class="cls-1" d="M284.56,267.59c-.28.07-1.38.07-1.86.07h-35.48v8.25h36.1c.28,0,2.41,0,2.82-.07,7.36-.69,10.73-6.81,10.73-12.17s-3.51-11.42-10.18-12.03c-1.31-.14-2.41-.14-2.89-.14h-23.59c-1.03,0-2.2-.07-2.61-.21-1.86-.48-2.54-2.13-2.54-3.51,0-1.24.69-2.89,2.61-3.44.55-.14,1.17-.21,2.48-.21h34.04v-8.11h-34.59c-1.44,0-2.54.07-3.44.21-5.91.83-10.04,5.57-10.04,11.62,0,4.95,3.09,10.73,9.9,11.69,1.24.14,2.96.14,3.71.14h22.97c.41,0,1.44,0,1.65.07,2.61.34,3.51,2.27,3.51,3.99s-1.03,3.44-3.3,3.85Z"/>
      <path class="cls-1" d="M217.3,267.59c-.28.07-1.38.07-1.79.07h-35.55v8.25h36.1c.28,0,2.41,0,2.82-.07,7.36-.69,10.73-6.81,10.73-12.17s-3.51-11.42-10.18-12.03c-1.31-.14-2.41-.14-2.89-.14h-23.59c-1.03,0-2.2-.07-2.61-.21-1.86-.48-2.54-2.13-2.54-3.51,0-1.24.69-2.89,2.61-3.44.55-.14,1.17-.21,2.48-.21h34.04v-8.11h-34.59c-1.44,0-2.54.07-3.44.21-5.91.83-10.04,5.57-10.04,11.62,0,4.95,3.09,10.73,9.9,11.69,1.24.14,2.96.14,3.71.14h22.97c.41,0,1.44,0,1.65.07,2.61.34,3.51,2.27,3.51,3.99s-.96,3.44-3.3,3.85h0Z"/>
      <rect class="cls-1" x="152.52" y="235.75" width="8.94" height="40.37"/>
      <polygon class="cls-1" points="132.78 276.12 132.78 235.75 123.84 235.75 123.84 265.87 94.07 235.75 82.58 235.75 82.58 276.12 91.52 276.12 91.52 245.86 121.51 276.12 132.78 276.12"/>
      <polygon class="cls-1" points="420.31 235.75 420.31 265.87 390.53 235.75 379.05 235.75 379.05 276.12 387.99 276.12 387.99 245.86 417.9 276.12 429.18 276.12 429.18 235.75 420.31 235.75"/>
      <path class="cls-1" d="M332.49,235.75l-25.17,40.37h10.87l4.47-7.22h29.36l4.47,7.22h10.8l-25.17-40.37h-9.63ZM347.41,261.26h-20.15l10.11-16.23,10.04,16.23Z"/>
      <path class="cls-1" d="M132.3,212.85c18.02-52.61,67.67-87.96,123.65-87.96s105.7,35.35,123.65,87.96l.14.41h39.4v-4.75l-16.37-1.93c-10.11-1.17-12.24-5.64-14.99-11.28l-.69-1.38c-23.66-50.34-75.16-82.94-131.14-82.94s-107.49,32.6-131.14,83.07l-.69,1.38c-2.75,5.64-4.88,10.11-14.99,11.28l-16.37,1.93v4.75h39.34l.21-.55Z"/>
      <path class="cls-1" d="M379.73,298.67l-.14.41c-18.02,52.61-67.67,87.89-123.65,87.89s-105.7-35.35-123.65-87.96l-.14-.41h-39.34v4.75l16.37,1.93c10.11,1.17,12.24,5.64,14.99,11.28l.69,1.38c23.66,50.48,75.16,83.07,131.14,83.07s107.49-32.6,131.14-83l.69-1.38c2.75-5.64,4.88-10.11,14.99-11.28l16.37-1.93v-4.75h-39.47Z"/>
    </g>
  </g>
</svg>