<?xml version="1.0" encoding="UTF-8"?>
<svg xmlns="http://www.w3.org/2000/svg" xmlns:xlink="http://www.w3.org/1999/xlink" viewBox="0 0 512 512">
  <defs>
    <style>
      .cls-1 {
        fill: url(#linear-gradient-10);
      }

      .cls-1, .cls-2, .cls-3, .cls-4, .cls-5, .cls-6, .cls-7, .cls-8, .cls-9, .cls-10, .cls-11, .cls-12, .cls-13, .cls-14, .cls-15, .cls-16, .cls-17, .cls-18, .cls-19, .cls-20, .cls-21, .cls-22, .cls-23, .cls-24, .cls-25, .cls-26, .cls-27, .cls-28, .cls-29, .cls-30 {
        stroke-width: 0px;
      }

      .cls-1, .cls-2, .cls-17, .cls-18, .cls-19 {
        mix-blend-mode: multiply;
      }

      .cls-2 {
        fill: url(#linear-gradient-11);
      }

      .cls-3 {
        fill: url(#linear-gradient);
      }

      .cls-4 {
        fill: url(#radial-gradient);
      }

      .cls-5 {
        fill: url(#linear-gradient-12);
      }

      .cls-6 {
        fill: url(#linear-gradient-13);
      }

      .cls-7 {
        fill: url(#linear-gradient-17);
      }

      .cls-8 {
        fill: url(#linear-gradient-16);
      }

      .cls-9 {
        fill: url(#linear-gradient-19);
      }

      .cls-10 {
        fill: url(#linear-gradient-15);
      }

      .cls-11 {
        fill: url(#linear-gradient-23);
      }

      .cls-12 {
        fill: url(#linear-gradient-21);
      }

      .cls-13 {
        fill: url(#linear-gradient-18);
      }

      .cls-14 {
        fill: url(#linear-gradient-14);
      }

      .cls-15 {
        fill: url(#linear-gradient-22);
      }

      .cls-16 {
        fill: url(#linear-gradient-20);
      }

      .cls-17 {
        fill: url(#radial-gradient-2);
      }

      .cls-17, .cls-18, .cls-19 {
        opacity: .85;
      }

      .cls-18 {
        fill: url(#radial-gradient-3);
      }

      .cls-19 {
        fill: url(#radial-gradient-4);
      }

      .cls-20 {
        fill: #7f7f7e;
      }

      .cls-21 {
        fill: url(#linear-gradient-4);
      }

      .cls-22 {
        fill: url(#linear-gradient-2);
      }

      .cls-23 {
        fill: url(#linear-gradient-3);
      }

      .cls-24 {
        fill: url(#linear-gradient-8);
      }

      .cls-25 {
        fill: url(#linear-gradient-9);
      }

      .cls-26 {
        fill: url(#linear-gradient-7);
      }

      .cls-27 {
        fill: url(#linear-gradient-5);
      }

      .cls-28 {
        fill: url(#linear-gradient-6);
      }

      .cls-31 {
        isolation: isolate;
      }

      .cls-29 {
        fill: #202850;
      }

      .cls-30 {
        fill: #12100b;
      }
    </style>
    <linearGradient id="linear-gradient" x1="337.78" y1="137.74" x2="276.43" y2="231.7" gradientUnits="userSpaceOnUse">
      <stop offset=".2" stop-color="#d0cfce"/>
      <stop offset=".22" stop-color="#b2b1af"/>
      <stop offset=".26" stop-color="#898886"/>
      <stop offset=".29" stop-color="#6a6965"/>
      <stop offset=".32" stop-color="#53524e"/>
      <stop offset=".34" stop-color="#454440"/>
      <stop offset=".37" stop-color="#41403c"/>
      <stop offset=".44" stop-color="#464541"/>
      <stop offset=".54" stop-color="#575652"/>
      <stop offset=".65" stop-color="#72716e"/>
      <stop offset=".76" stop-color="#979694"/>
      <stop offset=".81" stop-color="#aaa9a7"/>
      <stop offset="1" stop-color="#12100b"/>
    </linearGradient>
    <linearGradient id="linear-gradient-2" x1="165.46" y1="205.95" x2="176.58" y2="180.49" gradientUnits="userSpaceOnUse">
      <stop offset=".03" stop-color="#acabaa"/>
      <stop offset=".2" stop-color="#acabaa"/>
      <stop offset=".99" stop-color="#595854"/>
    </linearGradient>
    <linearGradient id="linear-gradient-3" x1="317.26" y1="144.79" x2="303.56" y2="143.5" gradientUnits="userSpaceOnUse">
      <stop offset=".2" stop-color="#41403c"/>
      <stop offset=".26" stop-color="#42413d"/>
      <stop offset=".28" stop-color="#494844"/>
      <stop offset=".3" stop-color="#545450"/>
      <stop offset=".31" stop-color="#656461"/>
      <stop offset=".32" stop-color="#7a7a77"/>
      <stop offset=".33" stop-color="#959492"/>
      <stop offset=".34" stop-color="#b4b4b3"/>
      <stop offset=".35" stop-color="#d8d8d7"/>
      <stop offset=".36" stop-color="#fff"/>
      <stop offset=".82" stop-color="#41403c"/>
      <stop offset="1" stop-color="#2a2824"/>
    </linearGradient>
    <linearGradient id="linear-gradient-4" x1="194.05" y1="219.4" x2="205.32" y2="193.59" gradientUnits="userSpaceOnUse">
      <stop offset="0" stop-color="#d0cfce"/>
      <stop offset=".11" stop-color="#bebdbc"/>
      <stop offset=".25" stop-color="#b0afae"/>
      <stop offset=".37" stop-color="#acabaa"/>
      <stop offset=".99" stop-color="#12100b"/>
    </linearGradient>
    <linearGradient id="linear-gradient-5" x1="303.66" y1="341.04" x2="102.39" y2="136.28" gradientUnits="userSpaceOnUse">
      <stop offset=".08" stop-color="#888885"/>
      <stop offset=".12" stop-color="#949491"/>
      <stop offset=".17" stop-color="#71706d"/>
      <stop offset=".31" stop-color="#888885"/>
      <stop offset=".47" stop-color="#f3f3f3"/>
      <stop offset=".7" stop-color="#f3f3f3"/>
      <stop offset=".72" stop-color="#e4e4e3"/>
      <stop offset=".77" stop-color="#bcbcbb"/>
      <stop offset=".83" stop-color="#7e7e7b"/>
      <stop offset=".84" stop-color="#757572"/>
      <stop offset=".96" stop-color="#41403c"/>
    </linearGradient>
    <radialGradient id="radial-gradient" cx="216.56" cy="163" fx="216.56" fy="163" r="45.9" gradientUnits="userSpaceOnUse">
      <stop offset=".04" stop-color="#fff"/>
      <stop offset=".47" stop-color="#fff"/>
      <stop offset=".52" stop-color="#fafafa"/>
      <stop offset=".57" stop-color="#eee"/>
      <stop offset=".63" stop-color="#dadad9"/>
      <stop offset=".68" stop-color="#bebebc"/>
      <stop offset=".74" stop-color="#9a9a97"/>
      <stop offset=".75" stop-color="#949491"/>
      <stop offset=".85" stop-color="#71706d"/>
      <stop offset="1" stop-color="#41403c"/>
    </radialGradient>
    <radialGradient id="radial-gradient-2" cx="226.86" cy="165.71" fx="226.86" fy="165.71" r="16.21" gradientTransform="translate(0 -5.94) scale(1 .96)" gradientUnits="userSpaceOnUse">
      <stop offset=".04" stop-color="#fff"/>
      <stop offset=".23" stop-color="#fff"/>
      <stop offset=".3" stop-color="#f5f5f5"/>
      <stop offset=".41" stop-color="#dddcdc"/>
      <stop offset=".55" stop-color="#b5b4b2"/>
      <stop offset=".72" stop-color="#7d7c79"/>
      <stop offset=".91" stop-color="#373531"/>
      <stop offset="1" stop-color="#12100b"/>
    </radialGradient>
    <radialGradient id="radial-gradient-3" cx="216.73" cy="128.29" fx="216.73" fy="128.29" r="19.06" gradientUnits="userSpaceOnUse">
      <stop offset=".23" stop-color="#fff"/>
      <stop offset=".57" stop-color="#f6f5f5"/>
      <stop offset=".86" stop-color="#12100b"/>
    </radialGradient>
    <radialGradient id="radial-gradient-4" cx="248.67" cy="165.48" fx="248.67" fy="165.48" r="64.2" gradientUnits="userSpaceOnUse">
      <stop offset=".04" stop-color="#fff"/>
      <stop offset=".25" stop-color="#fff"/>
      <stop offset=".27" stop-color="#fafafa"/>
      <stop offset=".29" stop-color="#eee"/>
      <stop offset=".31" stop-color="#dadad9"/>
      <stop offset=".33" stop-color="#bebebc"/>
      <stop offset=".35" stop-color="#a0a09e"/>
      <stop offset=".41" stop-color="#71706d"/>
      <stop offset=".47" stop-color="#41403c"/>
      <stop offset=".86" stop-color="#41403c"/>
    </radialGradient>
    <linearGradient id="linear-gradient-6" x1="203.82" y1="202" x2="172.39" y2="209.86" gradientUnits="userSpaceOnUse">
      <stop offset="0" stop-color="#f3f3f3"/>
      <stop offset=".07" stop-color="#e1e1e0"/>
      <stop offset=".26" stop-color="#b8b7b6"/>
      <stop offset=".29" stop-color="#c8c7c6"/>
      <stop offset=".35" stop-color="#dbdada"/>
      <stop offset=".42" stop-color="#e8e8e8"/>
      <stop offset=".5" stop-color="#f0f0f0"/>
      <stop offset=".65" stop-color="#f3f3f3"/>
      <stop offset=".9" stop-color="#fff"/>
    </linearGradient>
    <linearGradient id="linear-gradient-7" x1="1022.86" y1="407.23" x2="1351.32" y2="807.42" gradientTransform="translate(-246.05 -55.5) scale(.44)" gradientUnits="userSpaceOnUse">
      <stop offset="0" stop-color="#fff"/>
      <stop offset=".07" stop-color="#e0e0df"/>
      <stop offset=".16" stop-color="#fff"/>
      <stop offset=".2" stop-color="#fff"/>
      <stop offset=".28" stop-color="#e1e0df"/>
      <stop offset=".33" stop-color="#d0cfce"/>
      <stop offset=".33" stop-color="#d3d2d1"/>
      <stop offset=".36" stop-color="#e6e6e5"/>
      <stop offset=".4" stop-color="#f4f4f3"/>
      <stop offset=".44" stop-color="#fcfcfc"/>
      <stop offset=".5" stop-color="#fff"/>
      <stop offset=".89" stop-color="#fff"/>
      <stop offset=".98" stop-color="#b5b5b3"/>
    </linearGradient>
    <linearGradient id="linear-gradient-8" x1="165.74" y1="157.03" x2="312.88" y2="296.78" gradientUnits="userSpaceOnUse">
      <stop offset="0" stop-color="#dbdbda"/>
      <stop offset=".03" stop-color="#cdcdcc"/>
      <stop offset=".15" stop-color="#9b9b99"/>
      <stop offset=".26" stop-color="#747370"/>
      <stop offset=".36" stop-color="#585753"/>
      <stop offset=".44" stop-color="#474642"/>
      <stop offset=".51" stop-color="#41403c"/>
      <stop offset=".57" stop-color="#454440"/>
      <stop offset=".65" stop-color="#53534f"/>
      <stop offset=".74" stop-color="#6b6a67"/>
      <stop offset=".83" stop-color="#8b8b88"/>
      <stop offset=".93" stop-color="#b5b5b3"/>
      <stop offset="1" stop-color="#dbdbda"/>
    </linearGradient>
    <linearGradient id="linear-gradient-9" x1="236.65" y1="224.66" x2="179.32" y2="310.37" gradientUnits="userSpaceOnUse">
      <stop offset="0" stop-color="#c4c3c2"/>
      <stop offset=".1" stop-color="#fff"/>
      <stop offset=".35" stop-color="#eee"/>
      <stop offset=".42" stop-color="#f5f5f5"/>
      <stop offset=".54" stop-color="#fff"/>
      <stop offset=".54" stop-color="#fefefe"/>
      <stop offset=".58" stop-color="#bebdbc"/>
      <stop offset=".61" stop-color="#898886"/>
      <stop offset=".64" stop-color="#605e5b"/>
      <stop offset=".67" stop-color="#42403d"/>
      <stop offset=".7" stop-color="#302e2a"/>
      <stop offset=".71" stop-color="#2a2824"/>
      <stop offset=".72" stop-color="#3c3a37"/>
      <stop offset=".74" stop-color="#6f6e6b"/>
      <stop offset=".76" stop-color="#9b9a98"/>
      <stop offset=".77" stop-color="#bfbebd"/>
      <stop offset=".79" stop-color="#dbdada"/>
      <stop offset=".81" stop-color="#efeeee"/>
      <stop offset=".82" stop-color="#fbfafa"/>
      <stop offset=".84" stop-color="#fff"/>
      <stop offset=".85" stop-color="#fafafa"/>
      <stop offset=".86" stop-color="#ededec"/>
      <stop offset=".87" stop-color="#d7d7d6"/>
      <stop offset=".88" stop-color="#b9b8b6"/>
      <stop offset=".89" stop-color="#91908e"/>
      <stop offset=".9" stop-color="#62605d"/>
      <stop offset=".91" stop-color="#44423e"/>
      <stop offset=".95" stop-color="#44423e"/>
      <stop offset="1" stop-color="#7d7c79"/>
    </linearGradient>
    <linearGradient id="linear-gradient-10" x1="230.25" y1="269.3" x2="245.38" y2="278.22" gradientUnits="userSpaceOnUse">
      <stop offset=".2" stop-color="#fff"/>
      <stop offset=".32" stop-color="#fcfcfc"/>
      <stop offset=".39" stop-color="#f4f4f4"/>
      <stop offset=".45" stop-color="#e6e6e6"/>
      <stop offset=".5" stop-color="#d3d2d2"/>
      <stop offset=".52" stop-color="#cbcac9"/>
      <stop offset=".83" stop-color="#41403c"/>
      <stop offset=".84" stop-color="#41403c"/>
      <stop offset=".94" stop-color="#33312d"/>
      <stop offset="1" stop-color="#2a2824"/>
    </linearGradient>
    <linearGradient id="linear-gradient-11" x1="238.74" y1="228.32" x2="254.66" y2="209.26" gradientUnits="userSpaceOnUse">
      <stop offset=".02" stop-color="#fff"/>
      <stop offset=".18" stop-color="#fff"/>
      <stop offset=".21" stop-color="#fff"/>
      <stop offset=".31" stop-color="#f7f7f7"/>
      <stop offset=".45" stop-color="#e2e2e1"/>
      <stop offset=".5" stop-color="#dbdbda"/>
      <stop offset=".58" stop-color="#cbcbca"/>
      <stop offset=".82" stop-color="#a3a3a0"/>
      <stop offset=".95" stop-color="#949491"/>
      <stop offset="1" stop-color="#8d8c8a"/>
    </linearGradient>
    <linearGradient id="linear-gradient-12" x1="273.88" y1="121.96" x2="294.61" y2="143.17" gradientUnits="userSpaceOnUse">
      <stop offset="0" stop-color="#12100b"/>
      <stop offset=".04" stop-color="#14120d"/>
      <stop offset=".07" stop-color="#1c1a15"/>
      <stop offset=".09" stop-color="#292823"/>
      <stop offset=".11" stop-color="#3d3b37"/>
      <stop offset=".12" stop-color="#565451"/>
      <stop offset=".14" stop-color="#747370"/>
      <stop offset=".15" stop-color="#999896"/>
      <stop offset=".17" stop-color="#c2c2c1"/>
      <stop offset=".18" stop-color="#f0f0f0"/>
      <stop offset=".18" stop-color="#f3f3f3"/>
      <stop offset=".18" stop-color="#eeeded"/>
      <stop offset=".24" stop-color="#bdbdbb"/>
      <stop offset=".29" stop-color="#939391"/>
      <stop offset=".35" stop-color="#71706d"/>
      <stop offset=".41" stop-color="#565652"/>
      <stop offset=".46" stop-color="#43433f"/>
      <stop offset=".52" stop-color="#383733"/>
      <stop offset=".58" stop-color="#353430"/>
      <stop offset=".72" stop-color="#2e2d28"/>
      <stop offset=".92" stop-color="#1b1914"/>
      <stop offset="1" stop-color="#12100b"/>
    </linearGradient>
    <linearGradient id="linear-gradient-13" x1="276.36" y1="210.1" x2="299.96" y2="194.61" xlink:href="#linear-gradient-12"/>
    <linearGradient id="linear-gradient-14" x1="295.3" y1="134.77" x2="326.28" y2="134.77" gradientUnits="userSpaceOnUse">
      <stop offset="0" stop-color="#595854"/>
      <stop offset=".29" stop-color="#d0cfce"/>
      <stop offset=".29" stop-color="#c9c8c7"/>
      <stop offset=".35" stop-color="#a1a09e"/>
      <stop offset=".4" stop-color="#81807d"/>
      <stop offset=".45" stop-color="#6b6a66"/>
      <stop offset=".49" stop-color="#5d5c58"/>
      <stop offset=".53" stop-color="#595854"/>
      <stop offset=".76" stop-color="#2a2824"/>
      <stop offset="1" stop-color="#12100b"/>
    </linearGradient>
    <linearGradient id="linear-gradient-15" x1="168.84" y1="295.9" x2="240.28" y2="295.9" gradientUnits="userSpaceOnUse">
      <stop offset="0" stop-color="#12100b"/>
      <stop offset=".05" stop-color="#14120d"/>
      <stop offset=".08" stop-color="#1c1a15"/>
      <stop offset=".11" stop-color="#292823"/>
      <stop offset=".13" stop-color="#3d3b37"/>
      <stop offset=".15" stop-color="#565451"/>
      <stop offset=".16" stop-color="#747370"/>
      <stop offset=".18" stop-color="#979694"/>
      <stop offset=".19" stop-color="#939290"/>
      <stop offset=".26" stop-color="#71706d"/>
      <stop offset=".34" stop-color="#575652"/>
      <stop offset=".42" stop-color="#44433f"/>
      <stop offset=".5" stop-color="#383733"/>
      <stop offset=".58" stop-color="#353430"/>
      <stop offset=".72" stop-color="#2e2d28"/>
      <stop offset=".92" stop-color="#1b1914"/>
      <stop offset="1" stop-color="#12100b"/>
    </linearGradient>
    <linearGradient id="linear-gradient-16" x1="259.74" y1="268.48" x2="291.7" y2="268.48" xlink:href="#linear-gradient-15"/>
    <linearGradient id="linear-gradient-17" x1="281.14" y1="272.77" x2="339.83" y2="272.77" xlink:href="#linear-gradient-15"/>
    <linearGradient id="linear-gradient-18" x1="165.7" y1="215.45" x2="226.88" y2="215.45" gradientUnits="userSpaceOnUse">
      <stop offset="0" stop-color="#71706d"/>
      <stop offset=".06" stop-color="#73726f"/>
      <stop offset=".09" stop-color="#7b7a77"/>
      <stop offset=".12" stop-color="#898885"/>
      <stop offset=".14" stop-color="#9c9b99"/>
      <stop offset=".16" stop-color="#b5b4b2"/>
      <stop offset=".18" stop-color="#d0cfce"/>
      <stop offset=".19" stop-color="#cbc9c8"/>
      <stop offset=".3" stop-color="#9a9996"/>
      <stop offset=".41" stop-color="#706f6c"/>
      <stop offset=".53" stop-color="#4e4c48"/>
      <stop offset=".64" stop-color="#33322d"/>
      <stop offset=".76" stop-color="#201f1a"/>
      <stop offset=".88" stop-color="#15130e"/>
      <stop offset="1" stop-color="#12100b"/>
    </linearGradient>
    <linearGradient id="linear-gradient-19" x1="167.05" y1="178.22" x2="188.82" y2="178.22" gradientUnits="userSpaceOnUse">
      <stop offset="0" stop-color="#353430"/>
      <stop offset=".05" stop-color="#373632"/>
      <stop offset=".08" stop-color="#3f3e3a"/>
      <stop offset=".1" stop-color="#4d4c48"/>
      <stop offset=".12" stop-color="#605f5c"/>
      <stop offset=".14" stop-color="#797876"/>
      <stop offset=".16" stop-color="#989795"/>
      <stop offset=".17" stop-color="#bcbbba"/>
      <stop offset=".18" stop-color="#d0cfce"/>
      <stop offset=".19" stop-color="#cbc9c8"/>
      <stop offset=".3" stop-color="#9a9996"/>
      <stop offset=".41" stop-color="#706f6c"/>
      <stop offset=".53" stop-color="#4e4c48"/>
      <stop offset=".64" stop-color="#33322d"/>
      <stop offset=".76" stop-color="#201f1a"/>
      <stop offset=".88" stop-color="#15130e"/>
      <stop offset="1" stop-color="#12100b"/>
    </linearGradient>
    <linearGradient id="linear-gradient-20" x1="148.45" y1="209.97" x2="162.78" y2="209.97" gradientUnits="userSpaceOnUse">
      <stop offset="0" stop-color="#71706d"/>
      <stop offset=".06" stop-color="#73726f"/>
      <stop offset=".1" stop-color="#7b7a77"/>
      <stop offset=".13" stop-color="#888785"/>
      <stop offset=".15" stop-color="#9c9b99"/>
      <stop offset=".18" stop-color="#b4b3b2"/>
      <stop offset=".18" stop-color="#b8b7b6"/>
      <stop offset=".3" stop-color="#939290"/>
      <stop offset=".43" stop-color="#71706d"/>
      <stop offset=".57" stop-color="#565552"/>
      <stop offset=".71" stop-color="#44433f"/>
      <stop offset=".85" stop-color="#383733"/>
      <stop offset="1" stop-color="#353430"/>
    </linearGradient>
    <linearGradient id="linear-gradient-21" x1="223.81" y1="121.14" x2="225.38" y2="124.6" gradientUnits="userSpaceOnUse">
      <stop offset="0" stop-color="#fff"/>
      <stop offset=".12" stop-color="#ececec"/>
      <stop offset=".91" stop-color="#4d4c48"/>
    </linearGradient>
    <linearGradient id="linear-gradient-22" x1="204.11" y1="156.79" x2="262" y2="156.79" gradientUnits="userSpaceOnUse">
      <stop offset=".69" stop-color="#fff"/>
      <stop offset=".72" stop-color="#f9f9f9"/>
      <stop offset=".75" stop-color="#eaeaea"/>
      <stop offset=".8" stop-color="#d2d1d0"/>
      <stop offset=".84" stop-color="#afaead"/>
      <stop offset=".89" stop-color="#83827f"/>
      <stop offset=".93" stop-color="#4d4c48"/>
      <stop offset=".98" stop-color="#12100b"/>
    </linearGradient>
    <linearGradient id="linear-gradient-23" x1="200.31" y1="300.1" x2="221.77" y2="224.2" gradientUnits="userSpaceOnUse">
      <stop offset="0" stop-color="#e7e7e7"/>
      <stop offset=".07" stop-color="#4d4c48"/>
      <stop offset=".26" stop-color="#777773"/>
      <stop offset=".35" stop-color="#888885"/>
      <stop offset=".49" stop-color="#a09f9d"/>
      <stop offset=".6" stop-color="#b1b0af"/>
      <stop offset=".72" stop-color="#939290"/>
      <stop offset=".88" stop-color="#71706e"/>
      <stop offset=".96" stop-color="#656461"/>
      <stop offset="1" stop-color="#acabaa"/>
    </linearGradient>
  </defs>
  <g class="cls-31">
    <g id="Warstwa_1" data-name="Warstwa 1">
      <g>
        <g>
          <path class="cls-30" d="M341.09,299.99c-3.79-11.34-19.12-39.79-31.16-55.81-2.61-3.49-1.64-5.28-.24-6.41,1.39-1.13,5.87-5,11.17-11.07,5.36-6.13,6.65-13.05,2.87-23.08-3.77-9.92-16.23-33.53-18.84-41.34-3-9.02-3.3-13.03-1.5-17.94,2.14-5.78,5.24-6.03,7.59-5.99,1.26.02,2.19,1.35,2.2,1.95.07,2.56.19,5.7,2.67,12.29,3.97,10.49,14.17,17.33,17.38,18.72,2.24.97,2.64-.76,2.44-1.6-.2-.83-3.52-13.83-6.01-23.6-2.6-10.24-3.91-12.46-6.23-14.63-3.7-3.5-9.3-5.38-14.04-5.2-10.58.41-15.26,10.64-15.84,11.59-.5.85-.7,1.44-1.78.7-3.03-2.12-11.85-9.5-12.67-14.12-.48-2.73-.96-3.11-3.69-4.17-10.62-4.14-19.81-7.78-29.99-9.58-4.09-.72-4.3-1.07-9.06-.18-8.09,1.51-13.04,3.37-19.13,6.56-3.34,1.78-3.74,2.96-4.39,3.81-.51.66-1.05,1.45-2.26,1.85-2.02.65-9.53,3.45-12.1,4.94-1.6.94-2.48,1.92-1.66,3.74,1.44,3.2,5.76,9.87,7.64,11.54,1.14,1.01,4.02,1.71,4.69,1.86.68.17,1.16.37,1.42-.15.28-.56.38-1.37,1.72-2.31,2.01-1.41,5.76-2.39,7.76-2.57,1.53-.13,2.46-.18,3.24.39.78.58,2.59,2.5,3.21,4.44.63,1.94.23,2.67-.85,3.12-1.09.45-4.34,1.19-8.11,1.5-3.76.3-4.82-.74-5.09-.97-.2-.21-.7-.53-1.08-.02-.64.88-1.58,1.45-3.05,2.18-.83.41-1.28,1.29-.49,2.68,2.4,4.14,5.55,8.79,8.48,9.67,2.32.72,3.57-.04,6.19-1.91,2.35-1.69,3.87-1.68,4.52-1.21.7.53,2.11,1.72,1.75,2.92-.62,2.08-4.81,7.03-5.62,8.05-.75.97-1.47,1.48-2.82.83-1.98-.95-32.05-16.55-36.06-18.11-4.38-1.68-7.25-2.09-11.56-2.29-3.48-.15-8.13.18-11.04.71-2.13.39-3.33,1.39-5.31,3.22-2.72,2.52-5.6,5.74-5.87,8.42-.2,1.93,1.95,5.87,2.18,6.14.24.3.63.84,1.8.71,1.19-.13,4.17-1.68,7.72-1.06,3.22.55,3.53,3.08,3.71,5.02.02.34.42,1.09,1.34,1.07,1.28-.01,3.29.03,5.6,1.14,2.85,1.36,8.5,5.73,9.37,6.7.7.79.66,1.5-.69,1.63-7.17.63-18.08,2.77-23.12,4.42-3.58,1.17-7.81,2.78-9.3,5.38-1.69,2.93-3.83,7.66-4.44,11.03-.61,3.35,2.97,7.51,3.94,8.43.65.63,1.08,1.02,2.23.4,1.75-1.01,5.99-3.62,10.05-3.86,2.46-.14,3.45,2.17,4.04,3.03.59.84,1.16.26,3.37-.34,3.91-1.05,25.72-.65,33.42-.29,3.52.15,8.43.67,12.03,2.66,3.58,1.97,10.08,8.1,10.08,8.1,0,0-8.63,14.45-13.26,23.02-4.3,7.92-7.44,13.86-8.98,17.3-1.43,3.15-2.59,7.61-2.33,11.13.39,5.14.52,7.79.46,10.12-.06,2.05-1.98,2.28-4.69,2.94-3.73.95-11.19,1.64-17.22,3.12-5.49,1.37-7.54,2.66-8.53,6.9-.77,3.3-1.9,11.51-2.03,15.32-.07,1.54-.09,2.29,1.85,1.89,1.12-.22,4.35-.69,8.46-.99,5.09-.39,10.61-.31,14.88-.32,7.84-.05,31.01,1.31,32.56,1.46,1.98.19,2.38-.05,2.24-1.43-.18-1.82-.51-7.65-.6-11.12-.1-3.48-.62-7.01,2.52-10.4,3.12-3.39,26.72-29.72,28.03-31.07,1.14-1.14,1.9-2.36,3.67-.76,1.77,1.63,21.2,15.64,25.14,18.5,3.96,2.86,7.62,3.84,12.12,3.9,3.21.05,4.1,5.65,1.37,6.17-2.79.54-7.06,1.41-10.04,2.09-4.6,1.07-6,2.58-7.39,5.68-1.17,2.62-2.48,15.48-2.52,16.59-.04.8-.09,1.96,1.17,1.7,5.67-1.15,14.67-1.48,24.27-1.17,11.04.34,21.76,1.25,23.27,1.34,1.61.12,1.77-.13,2.59-1.4,1.39-2.18,5.55-6.97,9.16-9.94,1.8-1.48,1.85-2.09,1.09-4.3ZM298.69,222.24c-2.8.92-4.63.13-5.99-1.18-1.37-1.3-12.51-14.7-16.08-18.8-1.8-2.07-3.16-6.78,2.27-8.8,4.45-1.61,12.45-4.19,14.67-5.35,2.21-1.17,3.38-2.38,3.59-4.65.17-2.29.19-4.85.2-5.7.02-.86,1.13-1.55,1.7-.54.39.71,2.39,4.61,4.83,9.12,3.64,6.77,8.24,15.24,9.75,18.88,1.41,3.48.72,6.13-1.44,8.8-2.92,3.61-11.45,7.54-13.5,8.21Z"/>
          <path class="cls-3" d="M310.18,128.38s-.05-.01-.1,0c-8.69-.04-17.49,10.03-15.82,25.05,1.05,9.19,2.45,13.38,5.17,19.33,1.35,2.94,16.19,31.18,16.87,34.17.93,4.28.1,6.95-3.18,9.94-3.62,3.28-9.63,7-13.68,8.4-.96.33-1.84.49-2.64.49-.92,0-3.21-.31-7.55-5.66l19.17,25.58c-2.45-3.27-3.71-5.74-3.26-7.91.44-2.13,3.93-4.46,7.94-7.63,4.03-3.13,8.48-7.08,10.52-12.42.6-1.52.85-3.1.85-4.75,0-5.1-2.47-10.88-5.44-17.14-3.83-8.13-14.71-25.85-18.01-38.28-.81-3.05-1.17-5.79-1.17-8.23,0-7.04,3-11.51,6.66-13.03,1.76-.71,3.33-.95,4.65-.95,2.01,0,3.41.56,3.99.87,1.03.58,1.18,1.81,1.18,2.77v.21c0,.22-.04.75-.04,1.52,0,2.9.39,9.27,3.77,15.45,4.26,7.85,11.42,12.23,14.23,13.41.24.1-6.58-25.19-7.81-29.97-1.41-5.56-5.34-11.13-16.31-11.24Z"/>
          <path class="cls-22" d="M190.78,184.59c1.67,1.68-1.24,1.58-10.08,2.35-9,.78-18.06,2.6-22.8,4.38-3.47,1.31-5.57,2.23-6.96,5.42,0,0-2.88,6.26-3.27,8.74-.18,1.17-.13,1.85.48,2.83.34.52,1.17-16.33,22.92-17.44,19.24-.98,23.98-3,20.22-6.68l-.52.41Z"/>
          <path class="cls-23" d="M300.97,149.99s.42-4.41,1.2-6.48c1.94-5.61,5.52-6.78,8-6.78,1.66,0,2.41.4,3.11,1.14.54.6.9,1.15.98,1.99.06,2.51.16,5.39,2.6,11.88.14.39.3.79.46,1.17-2.06-5.24-2.31-10.11-2.31-12.6,0-.8.03-1.72.03-1.72,0-1.91-2.08-2.46-3.96-2.46-1.18,0-2.59.21-4.19.87-3.04,1.23-5.82,5.03-5.95,11.51l.03,1.48Z"/>
          <path class="cls-21" d="M191.54,185.32c.65,1.78-1.95,1.36-10.79,2.13-9,.78-18.07,2.53-22.81,4.31-3.47,1.31-5.57,2.23-6.96,5.42,0,0-2.89,6.27-3.28,8.74-.18,1.17.11,1.85.72,2.82.92,1.46,1.51,1.77,2.86,1,1.09-.63,5.9-3.35,9.06-3.41,2.87-.06,4.14,1.69,4.56,3.19.26.93,1.53.45,1.75.39,1.26-.32,2.49-.7,6.98-1.02,5.34-.39,26.19-.22,33.84-.04,6.88.16,33.99,21.43,34.39,21.53l1.37-2.74c-9.21-7.61-43.42-34.74-51.69-42.83v.51Z"/>
          <path class="cls-27" d="M269.64,202.13c4.13,4.96,16.4,19.87,26.93,33.35,16.4,21.01,26.53,37.46,37.18,61.71,1.06,2.42.25,2.68-1.44,4.05-3.26,2.65-2.58,3.72-5,7.91-.28.48-.9,1.26-1.67,1.19-2.25-.18-19.69-1.65-31.15-1.25-6.81.23-8.57.73-10.07,1.08-1.21.3-1.63.18-1.61-1.41.02-.61,1.3-7.78,2.29-10.41.98-2.62,2.51-3.65,4.8-4.28,2.27-.63,8.75-1.83,11.36-2.48,2.63-.65,2.74-3.15,2.5-5.03-.25-1.88-1.74-4.41-3.46-4.72-2.27-.4-3.82-.73-6.36-1.83-2.48-1.12-38.1-29.8-41.35-32.44-.83-.68-1.47-1.18-1.73-.87-.26.3.42,1.16.73,1.5.61.64,5.99,6.19,7.17,7.32.85.83.4,1.24-.02,1.65-.63.58-17.48,17.19-24.47,24.44-6.97,7.22-12,11.46-11.94,17.24.07,5.78.31,10.3.33,11.3,0,.87-.9.86-1.64.79-2.17-.2-18.89-1.85-28.27-2.05-9.37-.18-16.19.71-20.6,1.82-1.04.26-1.36-.36-1.29-1.26.1-1.45,1.13-7.41,2.4-11.28.89-2.68,2.82-3.72,5.13-4.28,3.05-.75,15.07-2.91,20.47-3.74,2.95-.47,3.56-1.47,3.53-3.95-.04-2.53-.33-7.92-.46-10.62-.13-2.69.73-5.68,1.73-8.05,4.27-10,14.74-31.1,23.84-43.67,1.04-1.46,2.11-1.71,3.11-1.46,1.19.29,6.66,4.59,7.11,4.8.96.49,2.23.05,1.64-.54-3.18-3.19-12.81-9.04-18.67-13.71-11.6-9.25-23.7-22.7-33.43-31.68-5.02-4.63-10.41-8.03-14.41-8.91-1.42-.32-2.75-.32-3.98-.49-.6-.09-.69-.61-.7-.89-.04-.62.05-1.81-1.19-3.24-.93-1.05-2.94-1.41-4.33-1.43-1.97-.06-5.21.36-7.04.86-.89.24-1.32.06-1.65-.33-.3-.36-.81-1.53-1-2.63-.11-.78.12-1.38.57-2.24,1.19-2.26,4.24-4.49,6-6.13,1.79-1.66,2.95-1.75,4.65-1.97,4.09-.49,9.53-.83,15.05.43,4.03.91,7.22,2.5,11.17,4.45,3.94,1.96,26.83,13.67,29.76,15.07l49.5,28.31Z"/>
          <path class="cls-4" d="M231.62,160.46c.45,2.85-1.38,4.71-2.49,6.47-1.09,1.72-3.33,4.29-4.47,5.73-1.45,1.85-4.25,1.29-4.25,1.29,0,0,13.18,6.7,20.77,10.51,3,1.52,7.72.11,10.93-5.88.75-1.39,5.48-11.43,6.67-14.42,1.19-2.98,2.87-6.29.17-11.98-2.72-5.68-11.14-16.16-14.49-20.19-1.76-2.1-3.82-3.39-8.27-3.63-4.39-.24-9.83.41-16.83,2.29-7.12,1.92-16.23,5.63-16.56,5.82-.19.12-.16.3-.06.51.08.19,1.04,1.85,1.04,1.85,0,0,.48,1.12,1.85,1.89,1.36.77,2.7,1.1,3.05,1.17.35.08.51-.07.64-.26.11-.16,1.45-2.73,6.38-4.01,2.67-.67,4.37-.75,5.18-.75,1.28.03,3.28.67,4.39,1.74,1.8,1.78,3.38,4.72,3.65,6.13.29,1.36.06,3.07-1.3,3.78-1.36.7-5.35,1.64-7.84,1.89-2.59.25-5.11.13-6.6-.73-.24-.13-.41-.15-.64.03-.56.47-.9.85-2.01,1.51-.24.14-.4.45-.16.93.24.48,3.36,5.66,5.25,7.05,1.88,1.41,2.89.78,5.14-.47,2.26-1.25,3.79-2.78,6.13-2.7,2.38.07,4.39,2.08,4.76,4.43Z"/>
          <path class="cls-17" d="M227.4,149.04c-1.33.65-5.24,1.52-7.68,1.74-2.54.24-5.01.12-6.47-.67-.24-.12-.41-.14-.63.03-.55.43-.88.79-1.97,1.39-.24.13-.4.42-.17.86.24.44,3.05,5.18,4.97,6.54,1.92,1.38,2.94.76,5.23-.46,2.3-1.22,3.84-2.72,6.23-2.65l.47-6.78Z"/>
          <path class="cls-18" d="M218.99,131.43c-6.77,1.74-15.41,5.11-15.72,5.28-.18.11-.15.48-.06.68.08.18.98,1.67.98,1.67,0,0,.45,1.02,1.76,1.72,1.29.7,2.37,1.04,2.72,1.12.35.08.51-.07.64-.26.11-.16,1.45-2.73,6.38-4.01,2.67-.67,4.37-.75,5.18-.75l-1.87-5.45Z"/>
          <path class="cls-19" d="M231.67,160.87c.45,2.85-1.38,4.91-2.49,6.66-1.1,1.73-3.34,4.3-4.47,5.73-1.46,1.85-3.59,1.04-3.59,1.04,0,0,12.47,6.34,20.06,10.15,3,1.52,7.55.49,10.75-5.51.75-1.39,5.5-11.43,6.68-14.41l-26.94-3.67Z"/>
          <g>
            <path class="cls-28" d="M169.55,207.8c-.58-.23-.59-.92.19-1.74.46-.48,3.9-3.29,5.98-3.78,2.15-.49,9.64-1.17,12.83-1.36.91-.05,12.5-1.08,13.56-1.03,1.06.05,3.7,4.17,6.83,7.57-.37.03-10.47-.19-19.03-.17-8.1.02-15.25.24-17.89.46-.88.07-1.97.24-2.47.05Z"/>
            <path class="cls-20" d="M169.49,207.95l.06-.14-.06.14c-.32-.12-.53-.4-.52-.74h0c0-.38.22-.8.65-1.25h0c.49-.51,3.9-3.3,6.06-3.82h0c2.16-.49,9.65-1.18,12.85-1.36h0c.88-.05,11.97-1.04,13.49-1.04h0s.07,0,.09,0h0c.36.02.73.32,1.18.77h0c.45.46.98,1.08,1.57,1.82h0c1.19,1.47,2.63,3.34,4.18,5.04h0l.22.24-.33.02h-.17c-1.32,0-9.94-.18-17.73-.18h0c-.39,0-.77,0-1.14,0h0c-8.1.01-15.25.24-17.87.45h0c-.57.05-1.24.14-1.79.14h0c-.29,0-.54-.03-.75-.11h0ZM170.24,207.74c.52,0,1.18-.08,1.77-.14h0c2.64-.22,9.78-.45,17.9-.46h1.14c7.47,0,15.73.16,17.53.18h0c-2.25-2.49-4.24-5.3-5.52-6.58h0c-.42-.45-.79-.68-.97-.68h0s-.05,0-.08,0h0c-1.48,0-12.58.99-13.47,1.03h0c-3.18.19-10.68.87-12.79,1.36h0c-2.01.46-5.49,3.28-5.9,3.74h0c-.4.41-.56.79-.56,1.03h0c0,.22.1.35.32.45h0c.14.06.37.08.64.08h0Z"/>
          </g>
          <path class="cls-26" d="M336.6,298.17c-3.51-8.83-13.41-27.99-26.98-47.91-13.31-19.6-35.88-46.14-38.99-50.55-3.06-4.32-4.25-9.18,2.11-11.19,4.15-1.32,14.16-3.39,18.25-4.53,3.98-1.09,4.26-2.38,4.6-5.46.35-3.33-.56-19.5-2.57-29.13-.42-2-1.76-3.67-3.36-4.8-1.41-.99-6.91-5.78-9.95-9.25-3.48-3.98-5.07-7.74-5.64-10.62,0,0-.1-.62-.77-1.26-.26-.27-.46-.4-.89-.65-5.99-3.68-27.13-9.46-31.44-9.83-2.95-.27-13.42,1.08-22.95,6.81-2.8,1.7-2.92,3.78-4.88,4.92-1.95,1.14-6.44,2.16-11.15,4.27-2.6,1.16-2.61,1.35-1.99,2.81.25.62,1.94,3.69,2.8,3.69.85.03,1.88-.41,2.92-.84,1.39-.55,10.68-4.14,18.06-5.72,8.22-1.76,17.05-1.91,20.19,1.41,4.77,5.05,13.16,16.38,15.7,21.29,2.49,4.86,2.24,7.22.58,12.21-1.53,4.61-7.32,16.58-9.02,19.06-1.72,2.48-3.79,3.86-8.74,1.84-5.31-2.19-24.88-12.22-29.14-14.38-2.88-1.45-14.98-7.58-24.13-12.17-3.38-1.7-6.17-2.93-9.21-3.7-6.73-1.71-13.96-.94-17.3-.39-1.52.25-2.47,2.7-2.4,3.69.1,1.23,3.65.36,6.6.57,2.38.16,10.54,1.05,15.25,2.96,4.97,2.01,29.85,15.42,36.14,18.8,47.88,26.05,68.36,42.82,105.37,105,1.65,2.78,2.44,6.19-.16,6.97-3.79,1.11-19.58,4.11-24.35,5.67-4.02,1.33-4.55,1.64-5.14,3.62-.65,2.27-1.66,6.76-1.43,7.66.11.37-.22.85.6.85,4.44,0,20.36.02,32.64,1.18,1.48.15,1.55.11,2.49-1.3,1.07-1.65,5.32-6.51,8.12-8.57,1.17-.87.39-2.49.19-3.02Z"/>
          <path class="cls-24" d="M325.33,288.96c-.25-2.53-2.57-6.28-6.69-12.73-4.14-6.49-9.35-15.35-16.28-25.17-12.3-17.42-24.42-31.02-39.47-42.92-11.11-8.79-22.78-15.84-31.33-20.85-8.56-5.01-44.68-24.76-50.28-26.52-5.1-1.6-9.15-2.12-12.76-2.49-2.46-.25-4.52-.06-6.71-.06-2.07,0-1.34-1.68-1.05-2.34-.21.47-1.45,2.79.59,2.79,1.48,0,4.93-.11,7.26.15,4.46.48,10.08,1.72,13.62,3.09,5.03,1.95,28.6,16.01,34.7,19.41,18.36,10.41,32.33,19.98,45.43,30.54,20.03,16.13,37.32,34.84,59,72.81.86,1.47,1.31,2.6,1.31,3.97.08,2.12-1.75,2.88-2.36,3.06-3.73,1.12-19.03,4.56-23.57,6.13-3.85,1.36-4.56,2.21-5.11,4-.2.74-.85,4.35-1.61,5.31-.76.99-2.52,1.19-4.4,1.19-1.15,0-1.73.06-1.61-1.22.1-1.28.86-4.75,1.3-6.74.43-2.01,1.26-3.51,3.09-4.61,1.82-1.11,8.17-2.13,11.74-3.02,3.57-.87,3.76-2.52,3.7-5.22,0,2.86-.99,3.55-4.57,4.35-3.64.81-9.75,1.6-11.77,2.97-1.94,1.33-2.7,3.19-3.05,4.66-1.23,5.07-2.05,8.79-1.91,10.03.11,1.11.56,1.26,1.79,1.12,1.23-.14,4.31-.58,8.92-.75,1.37,0,1.27-1.65,1.25-3.48,0-.66.03-2.64.38-3.61.33-.97,1.07-1.86,2.24-2.21,2.57-.79,16.78-4.64,24.01-6.79,3.17-.94,4.48-1.95,4.2-4.83Z"/>
          <path class="cls-25" d="M230.44,222.32c.99.31,2.78,1.59,4.19,2.63,1.13.83,2.03,1.5,2.03,1.5-9.58,11.98-23.78,32.64-28.35,41.38-2.37,4.54-2.32,6.42-2.25,10.63.07,4.02.54,8.96.28,11.27-.26,2.33-1.75,3.33-4.07,3.97-2.33.64-16.11,2.85-19.15,3.75-3.04.9-3.74,2.61-4.25,4.8-.52,2.2-.69,3.63-.95,4.48-.27.95-.09,1.61-.99,1.67-.86.06-2.98.25-3.97.39-1.01.13-1.14-.08-1.11-1.15.04-1.09,1.03-5.88,1.72-8.41.67-2.54,1.75-4.25,5.2-5.09,3.45-.84,17.46-3.19,20.09-3.66,3.11-.56,3.87-1.88,3.72-4.87-.16-3.11-.6-7.45-.68-10.12-.09-2.69.07-4.88.95-7.26.97-2.61,5.96-13.41,10.12-21.02,5.74-10.51,12.82-21.76,14.21-23.44,1.11-1.36,1.89-1.89,3.25-1.47Z"/>
          <path class="cls-1" d="M222.34,299.24c-.12-2.48.79-4.75,2.37-7.02,2.12-3.05,5.39-6.16,9.4-10.32,7.03-7.29,24.16-24.06,24.78-24.68.39-.38.85-.92-.1-1.84-1.7-1.63-2.6-2.68-5.27-5.36-1.63-1.63-2.77-2.63-2.71-3.19,0-.08-19.14,21.45-25.41,37.37-2.58,5.68-3.32,8.91-3.32,11.74,0,2.45.25,3.31.25,3.31Z"/>
          <path class="cls-2" d="M161.62,158.65c2.67-.02,5.16-.09,7.46.19,4.55.56,10.11,1.77,13.63,3.23,1.83.76,6.15,3.12,11.21,5.97,8.75,4.95,19.69,11.4,23.57,13.57,13.52,7.69,24.69,14.94,34.86,22.48,3.67,2.72,7.19,5.52,10.66,8.33,20.1,16.23,36.6,34.2,58.64,72.71.85,1.49,1.11,2.68,1.02,3.98-.08,1.15-1.07,2.31-2.68,2.67l-158.36-133.13Z"/>
          <path class="cls-5" d="M292.84,140.61h-.08c-.76-.01-1.3-.33-1.76-.65-3.18-2.37-12.07-9.29-13.35-15.16-.8-2.75.21-1.49-2.65-2.94-.8-.31-1.57-.62-2.36-.92.28.15.53.29.77.42.42.25.81.51,1.12.83,1.07,1,1.3,1.98,1.33,2.19.52,2.6,1.96,6.09,5.26,9.85,2.85,3.28,8.72,8.14,9.95,8.99.78.53,1.54,1.06,2.21,1.79.38-1.97.99-4.14,1.87-6.26-.15.23-.28.53-.55.87-.3.4-.89.92-1.76.97Z"/>
          <path class="cls-6" d="M273.41,190.11c-2.97,1.07-3.34,2.01-3.44,3.49v.02c0,1.37.62,3.51,1.95,5.34,1.54,2.2,9.01,10.68,17.33,21.14.96,1.17,1.36,1.62,2.14,2.42-.3-.39-12.05-15.26-15.65-19.37-1.03-1.2-2.2-2.82-2.22-4.94,0-2.12,1.62-5.13,4.96-6.29,4.47-1.63,12.6-4.27,14.45-5.27,1.8-1.03,2.34-1.49,2.6-2.72-.93.76-2.13,1.25-3.65,1.67-4.19,1.15-14.5,3.25-18.48,4.49Z"/>
          <path class="cls-14" d="M295.3,141.39c1.61-5.63,6.74-12.29,14.87-12.29,10.36,0,14.67,3.91,16.12,9.74-1.86-8.27-9.09-10.84-16.14-10.68-7.94.18-13.29,6.93-14.85,13.23Z"/>
          <path class="cls-10" d="M227.87,291.55c1.38-1.49,6.73-7.44,12.41-13.75-1.86,1.87-3.55,3.59-4.86,4.95-8.01,8.2-11.66,10.75-11.49,15.85.09,3.01.33,10.42.34,11.52,0,.75.07,1.47-1.2,2.13-.62.34-1.7.33-2.24.33-2.18,0-23.32-2.06-30.73-2.06s-13.78.82-17.6,1.78c-.62.15-2.23.05-2.88-.92-.33-.5-.45-1.01-.48-1.44-.16,1.44-.3,3.13-.3,3.87,1.34-.26,4.48-.7,8.54-1,5.19-.41,11.07-.34,14.99-.34s33.01,1.51,33.12,1.51c-.19-2.24-.48-7.55-.56-10.88-.02-.85-.02-.84-.1-3.22,0-2.6.5-5.64,3.05-8.35Z"/>
          <path class="cls-8" d="M286.92,278.01c1.65,1.18,3.19,2.01,4.78,2.56-1.33-.93-3.3-2.43-5.87-4.4-3.75-2.9-8.54-6.67-13.35-10.49-4.06-3.23-8.14-6.49-11.61-9.29-.06,1.23-.82,1.88-1.13,2.07.82.12,1.53.58,2.17,1.17,1.5,1.4,21.1,15.58,25.01,18.39Z"/>
          <path class="cls-7" d="M338.9,303.01c.67-.54.93-.5.93-1.01,0-.37-.21-1.04-.53-1.94-3.96-11.33-19.04-39.29-30.77-54.84-1.11-1.49-1.87-3.48-1.87-4.86,0-1.79.94-3.11,1.9-3.85.82-.67,2.8-2.37,5.41-4.96-4.05,3.03-6.88,5.45-7.23,6.54-.21.51-.46,1.2-.46,2.18,0,1.22.4,2.91,1.96,5.17.93,1.32,1.85,2.63,2.72,3.89,13.62,20.05,23.11,39.44,26.7,48.49.78,2.19.63,3.27-.08,4.26,0,0-7.09,7.25-7.95,8.61-.37.54-.64,1.01-1.13,1.42-.48.44-1.73.73-2.92.63-10.48-.99-21.85-1.4-27.55-1.4-7.41,0-11.74.71-14.21.78-1.33.05-2.27-.27-2.43-.49,0-.03-.03-.07-.06-.1-.11,1.04-.17,1.82-.19,2.17,4.49-.81,10.54-1.16,17.27-1.16,2.13,0,4.32.04,6.58.1,11.06.34,23.91,1.36,23.95,1.36.02-.02,6.16-7.83,9.97-10.98Z"/>
          <path class="cls-13" d="M226.88,221.09c-3.33-2.34-6.85-4.72-10.03-6.67-4.2-2.63-8.2-4.45-9.4-4.42q-12.79-.19-20.32-.19c-5.87,0-11.44.22-13.65.39-4.46.32-6.63.87-7.07.97-.44.1-.69.07-.72.07.11.17.28.51.35.65.12-.04.3-.11.62-.21,2.68-.76,8.67-1.13,16.14-1.15,7.13,0,14.9.05,18.93.24,3.61.18,8.7.66,12.77,2.88,3.78,2.11,11.97,7.8,12.36,7.45Z"/>
          <path class="cls-9" d="M188.29,183.97c-4.85-4.5-12.19-9.7-15.63-10.41-1.22-.29-2.93-.41-4.31-.48-1.06-.06-.99-1.3-1.29-1.53.03.22.09,2.08.74,2.12.86.06,3.57-.32,5.95.83,3.25,1.61,11.53,7.72,12.79,9.05,1.57,1.8,3.14,1.63,1.75.42Z"/>
          <path class="cls-16" d="M160.69,208.46c1.01,0,1.3.02,2.09.35-.49-.84-1.04-1.21-2.6-1.19-2.29.05-8.07,2.93-8.96,3.51-1.35.75-1.93.77-2.77-.15.38.93,1.04,1.5,1.63,1.3.59-.21,7.54-3.82,10.61-3.82Z"/>
          <path class="cls-12" d="M228.01,120.38c1.06-.17,1.96-.4,2.07.47.04.43,0,.97-.16,1.37-.1.25-.3.49-.77.65-1.1.35-7.34,2.64-8.41,3.08-.78.33-1.28-.04-1.42-.54-.16-.48,0-1.74.36-2.31.35-.58.64-.76,1.19-.93.53-.18,5.57-1.54,7.15-1.79Z"/>
          <path class="cls-30" d="M227.83,120.92c.7-.13,1.04-.06,1.08.32.03.4,0,.64-.03.79-.03.22-.12.33-.47.46-.71.25-5.28,1.88-6.37,2.34-1.01.42-1.51.19-1.61-.24-.08-.43.07-1.11.25-1.41.18-.3.44-.51.82-.63.82-.29,5.05-1.4,6.34-1.63Z"/>
          <path class="cls-15" d="M253.31,180.46c.76-1.38,5.81-12.06,7.02-15.14.78-1.93,1.66-3.85,1.66-6.31,0-1.61-.44-4.08-1.54-6.37-2.78-5.86-11.58-17-15.09-21.21-2.97-3.51-5.66-4.06-10.73-3.93-12.92.34-24.2,5.82-30.52,8.4,4.51-1.54,15.47-6.03,27.69-6.77,6.72-.41,9.41.16,11.87,2.93,3.57,3.93,11.89,15.11,14.85,20.78,1.17,2.25,1.69,4.26,1.52,5.98-.23,2.6-1.16,4.51-1.9,6.23-1.29,2.96-6.04,12.62-6.87,14.03-3.47,6-6.78,5.79-10.32,4.97.19.1,1.8.87,3.29,1.47,4.12,1.69,6.73-.66,9.07-5.07Z"/>
          <path class="cls-11" d="M237.71,227.18c-.14-.07-.75-.53-1.58-1.13-1.95,2.19-10.66,13.08-16.75,22.78-4.58,7.3-11.2,18.2-12.24,20.6-.96,2.21-1.27,4.2-1.3,6.81,0,.03.38,11.78.38,11.85,0,1.45-.21,2.65-.99,3.57-.79.91-1.99,1.36-3.65,1.59-2.72.4-15.57,2.38-19.1,3.1-3.43.74-4.85,2.31-5.61,4.58-.55,1.64-1.19,4.42-1.18,5.64,0,0-.04.67,0,.67-.1,1.3.38,1.23.38,1.23,0,0,14.87-1.14,23.72-.61,8.85.52,21.07,1.67,21.07,1.67,0,0-12.85-2.41-21.6-2.96-8.75-.52-20.34.43-20.45-.09-.06-.37-.29-.92-.2-2,.15-.69.32-1.49.56-2.32.57-2.17,1.58-4.09,4.98-4.88,3.24-.82,15.72-2.89,18.1-3.47,2.34-.59,3.85-1.46,4.18-3.37.08-.58.16-1.9.16-3.11,0-2.51-.44-9.17-.43-9.58.08-4.09.26-6.27,2.94-10.69,4.15-6.9,19.77-30.64,27.54-38.89.49-.52.71-.96,1.58-.83-.17-.03-.34-.09-.5-.17Z"/>
        </g>
        <g>
          <path class="cls-29" d="M50.92,363.24v34.66h9.55v-10.66h8.55c18.34,0,27.67-5.89,27.67-12.39,0-6.99-10.03-11.61-26.85-11.61h-18.92ZM60.46,383.5v-16.39h7.51c7.76,0,17.99,1.31,17.99,7.74,0,4.36-3.32,8.64-19.24,8.64h-6.27Z"/>
          <path class="cls-29" d="M151.12,397.9v-4.37h-23.53c-5.04,0-6.51-2.28-6.51-6.16v-5.07h27.61v-4.35h-27.61v-10.36h28.86v-4.35h-38.4v24.34c0,6.51,2.7,10.32,11.48,10.32h28.1Z"/>
          <path class="cls-29" d="M212.2,363.24h-9.54v29.26c-2.63.91-6.15,1.74-11.28,1.74-7.33,0-14.61-1.87-14.61-8.31v-22.69h-9.54v23.38c0,9.55,9.54,12.38,20.06,12.38s18.2-2.08,24.91-4.9v-30.86Z"/>
          <path class="cls-29" d="M238.74,380.67c0-9.61,8.17-14.12,18.13-14.12,8.16,0,14.46,2.36,20.42,4.37v-5.81c-6.3-1.86-12.26-2.91-20.42-2.91-15.97,0-28.98,7.33-28.98,18.47,0,11.77,13.01,18.33,28.98,18.33,7.97,0,16.33-1.65,21.46-2.96v-13.74h-9.41v10.27c-3.46,1.17-5.95,2.08-11.35,2.08-10.87,0-18.83-5.39-18.83-13.99"/>
          <path class="cls-29" d="M335.29,397.9v-4.37h-23.53c-5.04,0-6.5-2.28-6.5-6.16v-5.07h27.61v-4.35h-27.61v-10.36h28.85v-4.35h-38.4v24.34c0,6.51,2.69,10.32,11.48,10.32h28.09Z"/>
          <path class="cls-29" d="M376.71,362.19c-15.98,0-29.05,7.47-29.05,18.65,0,11.73,13.06,18.15,29.05,18.15s28.99-6.42,28.99-18.15-13.01-18.65-28.99-18.65M376.71,395.13c-10.86,0-18.19-5.6-18.19-14.28,0-9.52,8.17-14.3,18.19-14.3s18.13,4.78,18.13,14.3c0,8.69-7.34,14.28-18.13,14.28"/>
          <polygon class="cls-29" points="413.54 368.22 432.57 368.22 432.57 397.9 442.11 397.9 442.11 368.22 461.15 368.22 461.15 363.24 413.54 363.24 413.54 368.22"/>
        </g>
      </g>
    </g>
  </g>
</svg>