<?xml version="1.0" encoding="UTF-8"?>
<svg id="Warstwa_1" data-name="Warstwa 1" xmlns="http://www.w3.org/2000/svg" xmlns:xlink="http://www.w3.org/1999/xlink" viewBox="0 0 512 512">
  <defs>
    <style>
      .cls-1 {
        fill: url(#Degradado_sin_nombre_61);
      }

      .cls-1, .cls-2, .cls-3, .cls-4, .cls-5, .cls-6, .cls-7, .cls-8, .cls-9, .cls-10, .cls-11, .cls-12, .cls-13, .cls-14, .cls-15, .cls-16, .cls-17, .cls-18, .cls-19, .cls-20, .cls-21, .cls-22, .cls-23 {
        stroke-width: 0px;
      }

      .cls-2 {
        fill: url(#Degradado_sin_nombre_27);
      }

      .cls-3 {
        fill: url(#Degradado_sin_nombre_20);
      }

      .cls-4 {
        fill: url(#Degradado_sin_nombre_21);
      }

      .cls-5 {
        fill: url(#Degradado_sin_nombre_19);
      }

      .cls-6 {
        fill: url(#Degradado_sin_nombre_33);
      }

      .cls-7 {
        fill: url(#Degradado_sin_nombre_60);
      }

      .cls-8 {
        fill: url(#Degradado_sin_nombre_62);
      }

      .cls-9 {
        fill: url(#Degradado_sin_nombre_64);
      }

      .cls-10 {
        fill: url(#Degradado_sin_nombre_51);
      }

      .cls-11 {
        fill: url(#Degradado_sin_nombre_63);
      }

      .cls-12 {
        fill: url(#Degradado_sin_nombre_65);
      }

      .cls-13 {
        fill: url(#Degradado_sin_nombre_53);
      }

      .cls-14 {
        fill: url(#Degradado_sin_nombre_56);
      }

      .cls-15 {
        fill: url(#Degradado_sin_nombre_58);
      }

      .cls-16 {
        fill: url(#Degradado_sin_nombre_59);
      }

      .cls-17 {
        fill: url(#Degradado_sin_nombre_54);
      }

      .cls-18 {
        fill: url(#Degradado_sin_nombre_52);
      }

      .cls-19 {
        fill: url(#Degradado_sin_nombre_55);
      }

      .cls-20 {
        fill: url(#Degradado_sin_nombre_57);
      }

      .cls-24 {
        clip-path: url(#clippath);
      }

      .cls-21 {
        fill: none;
      }

      .cls-25 {
        mask: url(#mask);
      }

      .cls-26 {
        clip-path: url(#clippath-1);
      }

      .cls-27 {
        clip-path: url(#clippath-3);
      }

      .cls-28 {
        clip-path: url(#clippath-2);
      }

      .cls-29 {
        clip-path: url(#clippath-7);
      }

      .cls-30 {
        clip-path: url(#clippath-8);
      }

      .cls-31 {
        clip-path: url(#clippath-6);
      }

      .cls-32 {
        clip-path: url(#clippath-9);
      }

      .cls-22 {
        fill: #000;
      }

      .cls-33 {
        clip-path: url(#clippath-20);
      }

      .cls-34 {
        clip-path: url(#clippath-21);
      }

      .cls-35 {
        clip-path: url(#clippath-22);
      }

      .cls-36 {
        clip-path: url(#clippath-14);
      }

      .cls-37 {
        clip-path: url(#clippath-13);
      }

      .cls-38 {
        clip-path: url(#clippath-12);
      }

      .cls-39 {
        clip-path: url(#clippath-10);
      }

      .cls-40 {
        clip-path: url(#clippath-15);
      }

      .cls-41 {
        clip-path: url(#clippath-17);
      }

      .cls-42 {
        clip-path: url(#clippath-16);
      }

      .cls-43 {
        clip-path: url(#clippath-19);
      }

      .cls-44 {
        clip-path: url(#clippath-11);
      }

      .cls-45 {
        clip-path: url(#clippath-18);
      }

      .cls-23 {
        fill: #010000;
      }

      .cls-46 {
        isolation: isolate;
      }

      .cls-47 {
        filter: url(#luminosity-invert-noclip);
      }

      .cls-48 {
        mask: url(#mask-3);
      }

      .cls-49 {
        mask: url(#mask-2);
      }

      .cls-50 {
        mask: url(#mask-1);
      }
    </style>
    <clipPath id="clippath">
      <path class="cls-21" d="M249.57,252.29c-7.78-14.96-13.03-25.28-20.42-41.85-.63-1.41-1.07-2.46-1.07-3.79.02-1.29.46-2.35,1.08-3.74,7.39-16.56,12.63-26.89,20.41-41.85.45-.86.81-1.42,1.32-1.43h.01c.52,0,.88.56,1.33,1.43,7.78,14.96,13.02,25.28,20.41,41.85.63,1.42,1.07,2.46,1.07,3.79s-.46,2.36-1.08,3.74c-7.39,16.56-12.63,26.89-20.41,41.85-.45.86-.82,1.43-1.32,1.44-.52,0-.87-.57-1.32-1.44M229.72,114.08c-.73.08-1,.21-1.28.34-.36.2-.73.39-1.31,1.26-1.68,2.51-19.03,31.02-30.06,51.09-7.83,14.23-15.56,29.32-18.85,36.29-.88,1.84-1,3.06-1,3.63,0,1,.34,2.22,1,3.63,3.29,6.96,11.02,22.05,18.85,36.29,11.03,20.07,28.32,48.64,30.09,51.09.28.38.52.69.76.93.4.43.77.68,1.18.8.44.14,1.32.06,2.04-.02.38-.04.87-.03,1.25-.01,4.44.15,11.27.31,18.51.31,8.97,0,19.46-.23,21.03-.41l.25-.03c.61-.07.95-.16,1.12-.25.37-.15.67-.44,1.41-1.46,1.78-2.45,18.97-30.88,30.01-50.95,7.83-14.23,15.56-29.32,18.85-36.29.87-1.84,1-3.3,1-3.86,0-1-.34-1.99-1-3.4-3.29-6.97-11.02-22.05-18.85-36.29-11.04-20.07-28.31-48.64-30.09-51.09-.48-.66-.87-1.1-1.26-1.39-.23-.16-.44-.28-.68-.35-.44-.13-1.42-.05-2.14.03-.39.04-.87.03-1.24.01-3.69-.15-11.1-.31-18.4-.31-8.97,0-19.78.28-21.18.41"/>
    </clipPath>
    <linearGradient id="Degradado_sin_nombre_65" data-name="Degradado sin nombre 65" x1="-117.19" y1="551.12" x2="-112.89" y2="551.12" gradientTransform="translate(24102.15 -4771.81) rotate(-90) scale(43.28 -43.28)" gradientUnits="userSpaceOnUse">
      <stop offset="0" stop-color="#ececef"/>
      <stop offset=".69" stop-color="#fff"/>
      <stop offset="1" stop-color="#abacb1"/>
    </linearGradient>
    <filter id="luminosity-invert-noclip" x="177.21" y="113.67" width="147.37" height="186.04" color-interpolation-filters="sRGB" filterUnits="userSpaceOnUse">
      <feColorMatrix result="cm" values="-1 0 0 0 1 0 -1 0 0 1 0 0 -1 0 1 0 0 0 1 0"/>
      <feFlood flood-color="#fff" result="bg"/>
      <feBlend in="cm" in2="bg"/>
    </filter>
    <linearGradient id="Degradado_sin_nombre_33" data-name="Degradado sin nombre 33" x1="-122.4" y1="555.06" x2="-118.1" y2="555.06" gradientTransform="translate(13790.54 -2672.73) rotate(-90) scale(24.39 -24.39)" gradientUnits="userSpaceOnUse">
      <stop offset="0" stop-color="#fff"/>
      <stop offset=".85" stop-color="#fff"/>
      <stop offset=".87" stop-color="#f9f9f9"/>
      <stop offset=".89" stop-color="#eaeaea"/>
      <stop offset=".91" stop-color="#d1d1d1"/>
      <stop offset=".93" stop-color="#afaeae"/>
      <stop offset=".95" stop-color="#828282"/>
      <stop offset=".97" stop-color="#4b4b4b"/>
      <stop offset="1" stop-color="#0c0b0b"/>
      <stop offset="1" stop-color="#010000"/>
    </linearGradient>
    <mask id="mask" x="177.21" y="113.67" width="147.37" height="186.04" maskUnits="userSpaceOnUse">
      <g class="cls-47">
        <g>
          <rect class="cls-22" x="177.21" y="113.67" width="147.37" height="186.04"/>
          <g class="cls-46">
            <rect class="cls-6" x="177.22" y="208.11" width="147.36" height="91.59"/>
          </g>
        </g>
      </g>
    </mask>
    <clipPath id="clippath-1">
      <rect class="cls-21" x="177.21" y="113.67" width="147.37" height="186.04"/>
    </clipPath>
    <clipPath id="clippath-2">
      <path class="cls-21" d="M250.9,159.63c.52,0,.88.56,1.33,1.44,7.78,14.96,13.02,25.28,20.41,41.85.63,1.42,1.07,2.46,1.07,3.79s-.46,2.36-1.08,3.74c-7.39,16.56-12.63,26.89-20.41,41.85-.45.86-.82,1.43-1.32,1.44-.52,0-.87-.57-1.32-1.44-7.78-14.96-13.03-25.28-20.42-41.85-.63-1.41-1.07-2.46-1.07-3.79.02-1.29.46-2.35,1.08-3.74,7.39-16.56,12.63-26.89,20.41-41.85.45-.86.81-1.42,1.32-1.43h.01ZM229.72,114.08c-.73.08-1,.21-1.28.34-.36.2-.73.39-1.31,1.26-1.68,2.51-19.03,31.02-30.06,51.09-7.83,14.23-15.56,29.32-18.85,36.29-.88,1.84-1,3.06-1,3.63,0,1,.34,2.22,1,3.63,3.29,6.96,11.02,22.05,18.85,36.29,11.03,20.07,28.32,48.64,30.09,51.09.28.38.52.69.76.94.4.42.77.68,1.18.8.44.14,1.32.06,2.03-.02.39-.04.87-.03,1.25-.01,4.38.15,11.09.31,18.21.31h.3c8.97,0,19.46-.23,21.03-.41l.25-.03c.6-.07.94-.16,1.12-.25.37-.15.67-.44,1.41-1.46,1.78-2.45,18.97-30.88,30.01-50.95,7.83-14.23,15.56-29.32,18.85-36.29.87-1.84,1-3.3,1-3.86,0-1-.34-1.99-1-3.4-3.29-6.97-11.02-22.05-18.85-36.29-11.04-20.07-28.31-48.64-30.09-51.09-.48-.66-.87-1.1-1.26-1.39-.23-.16-.44-.28-.68-.35-.44-.13-1.42-.05-2.14.03-.39.04-.87.03-1.24.01-3.69-.15-11.1-.31-18.4-.31-8.97,0-19.78.28-21.18.41"/>
    </clipPath>
    <radialGradient id="Degradado_sin_nombre_64" data-name="Degradado sin nombre 64" cx="-121.62" cy="538.53" fx="-121.62" fy="538.53" r="4.3" gradientTransform="translate(2865.65 11825.69) scale(21.58 -21.66)" gradientUnits="userSpaceOnUse">
      <stop offset="0" stop-color="#fff"/>
      <stop offset=".4" stop-color="#fff"/>
      <stop offset="1" stop-color="#abacb1"/>
    </radialGradient>
    <clipPath id="clippath-3">
      <path class="cls-21" d="M220.78,206.64c-.64.6-1.75,1.19-4.48,1.19-2.42,0-23.03-.03-32.85-.03-1.44,0-3.37-.11-3.37,2.17,0,1.34,1.16,4.04,3.54,8.7,13.03,25.49,27.5,50.94,43.02,75.82,0,0,2.37,3.82,2.61,4.12.24.3.53.43,1.11.43,0,0,9.84-18.03,17.79-37.67-8.84-16.32-17.01-32.45-24.64-48.66,0,0-2.17-4.06-2.26-5.66,0-.21-.02-.28,0-.49.02-.17,0-.25-.06-.25-.07,0-.21.13-.42.33"/>
    </clipPath>
    <linearGradient id="Degradado_sin_nombre_63" data-name="Degradado sin nombre 63" x1="-123.53" y1="557.72" x2="-119.23" y2="557.72" gradientTransform="translate(12104.19 -2334.63) rotate(-90) scale(21.32 -21.32)" gradientUnits="userSpaceOnUse">
      <stop offset="0" stop-color="#ececef"/>
      <stop offset=".01" stop-color="#ececef"/>
      <stop offset=".34" stop-color="#bcbdc2"/>
      <stop offset=".53" stop-color="#8a8a8f"/>
      <stop offset=".69" stop-color="#5b5a5f"/>
      <stop offset=".85" stop-color="#434144"/>
      <stop offset=".9" stop-color="#393639"/>
      <stop offset=".95" stop-color="#2d2a2b"/>
      <stop offset=".96" stop-color="#302d2e"/>
      <stop offset=".97" stop-color="#3a3839"/>
      <stop offset=".98" stop-color="#4c4a4c"/>
      <stop offset=".99" stop-color="#646367"/>
      <stop offset="1" stop-color="#848388"/>
      <stop offset="1" stop-color="#89898e"/>
    </linearGradient>
    <clipPath id="clippath-4">
      <path class="cls-21" d="M230.36,299.05h0,0ZM230.37,299.05h0,0Z"/>
    </clipPath>
    <clipPath id="clippath-6">
      <path class="cls-21" d="M322.76,206.92c-.35.36-1.35.9-3.57.9h-27.06c-12.41,0-11.15-.34-14.37,6.23-1.43,2.92-2.91,6.35-4.42,9.17-10.83,22.65-37.27,68.26-40.83,73.92-1.35,2.13-1.54,2.24-.56,2.24,0,0,8.97.33,18.95.33,15.59,0,21.17-.43,21.17-.43,9.04-14.07,30.61-49.75,46-80.66,3.55-7.12,5.33-10.21,5.15-11.74-.02-.12-.06-.16-.13-.16-.1,0-.24.1-.33.19"/>
    </clipPath>
    <linearGradient id="Degradado_sin_nombre_62" data-name="Degradado sin nombre 62" x1="-123.51" y1="555.45" x2="-119.21" y2="555.45" gradientTransform="translate(12129.11 -2336.69) rotate(-90) scale(21.34 -21.34)" gradientUnits="userSpaceOnUse">
      <stop offset="0" stop-color="#ececef"/>
      <stop offset=".01" stop-color="#ececef"/>
      <stop offset=".34" stop-color="#bcbdc2"/>
      <stop offset=".53" stop-color="#8a8a8f"/>
      <stop offset=".69" stop-color="#5b5a5f"/>
      <stop offset=".85" stop-color="#434144"/>
      <stop offset=".9" stop-color="#393639"/>
      <stop offset=".95" stop-color="#2d2a2b"/>
      <stop offset=".96" stop-color="#302d2e"/>
      <stop offset=".97" stop-color="#3a3839"/>
      <stop offset=".98" stop-color="#4c4a4c"/>
      <stop offset=".99" stop-color="#646367"/>
      <stop offset="1" stop-color="#848388"/>
      <stop offset="1" stop-color="#89898e"/>
    </linearGradient>
    <clipPath id="clippath-7">
      <path class="cls-21" d="M271.29,114.34c-.64,0-1.11.52-2,1.9-7.65,11.85-34.06,61.6-44.85,84.8-1.32,2.84-1.99,4.23-1.99,5.61h5.62s0,.01,0,0c.02-1.29.46-2.35,1.08-3.74,7.39-16.56,12.63-26.89,20.41-41.85.45-.86.81-1.42,1.32-1.43l2.19-6.37c7.61-18.97,18.27-38.93,18.27-38.93h-.06"/>
    </clipPath>
    <linearGradient id="Degradado_sin_nombre_61" data-name="Degradado sin nombre 61" x1="-120.12" y1="556.47" x2="-115.82" y2="556.47" gradientTransform="translate(12198.14 -2373.75) rotate(-90) scale(21.48 -21.48)" gradientUnits="userSpaceOnUse">
      <stop offset="0" stop-color="#5b5a5f"/>
      <stop offset="0" stop-color="#4f4e52"/>
      <stop offset=".02" stop-color="#464447"/>
      <stop offset=".04" stop-color="#434144"/>
      <stop offset=".11" stop-color="#403e41"/>
      <stop offset=".15" stop-color="#373638"/>
      <stop offset=".19" stop-color="#292729"/>
      <stop offset=".23" stop-color="#151415"/>
      <stop offset=".25" stop-color="#010000"/>
      <stop offset="1" stop-color="#010000"/>
    </linearGradient>
    <clipPath id="clippath-8">
      <path class="cls-21" d="M250.89,159.64,250.89,159.64h.01c.52,0,.88.56,1.33,1.43,7.78,14.96,13.02,25.28,20.41,41.85.63,1.42,1.07,2.46,1.07,3.79,0,0,0,0,0,0,0,0,0,0,0,0h5.61c0-1.38-.64-2.73-1.96-5.54-7.46-15.83-15.25-31.26-24.27-47.9l-2.19,6.37Z"/>
    </clipPath>
    <linearGradient id="Degradado_sin_nombre_60" data-name="Degradado sin nombre 60" x1="-126.79" y1="562.96" x2="-122.49" y2="562.96" gradientTransform="translate(7264.25 -1369.68) rotate(-90) scale(12.43 -12.43)" gradientUnits="userSpaceOnUse">
      <stop offset="0" stop-color="#949398"/>
      <stop offset=".16" stop-color="#8f8e93"/>
      <stop offset=".34" stop-color="#818084"/>
      <stop offset=".54" stop-color="#6a696d"/>
      <stop offset=".75" stop-color="#4b494c"/>
      <stop offset=".8" stop-color="#434144"/>
      <stop offset=".83" stop-color="#3e3d3f"/>
      <stop offset=".86" stop-color="#323133"/>
      <stop offset=".89" stop-color="#1e1d1e"/>
      <stop offset=".92" stop-color="#020101"/>
      <stop offset=".92" stop-color="#010000"/>
      <stop offset="1" stop-color="#010000"/>
    </linearGradient>
    <clipPath id="clippath-9">
      <path class="cls-21" d="M224.42,212.25c7.45,15.84,15.22,31.23,24.24,47.87l2.23-6.38c-.52,0-.87-.57-1.32-1.44-7.78-14.96-13.03-25.28-20.42-41.85-.63-1.41-1.07-2.46-1.07-3.79h-5.62c-.01,1.38.63,2.77,1.96,5.6"/>
    </clipPath>
    <linearGradient id="Degradado_sin_nombre_59" data-name="Degradado sin nombre 59" x1="-130.09" y1="564.7" x2="-125.79" y2="564.7" gradientTransform="translate(7261.08 -1357.94) rotate(-90) scale(12.44 -12.44)" gradientUnits="userSpaceOnUse">
      <stop offset="0" stop-color="#d0d0d4"/>
      <stop offset=".36" stop-color="#d0d0d4"/>
      <stop offset=".49" stop-color="#cbcbcf"/>
      <stop offset=".64" stop-color="#bdbdc1"/>
      <stop offset=".8" stop-color="#a7a7ab"/>
      <stop offset=".96" stop-color="#89898e"/>
      <stop offset="1" stop-color="#5b5a5f"/>
    </linearGradient>
    <clipPath id="clippath-10">
      <path class="cls-21" d="M224.42,212.25c7.45,15.84,15.22,31.23,24.24,47.87l2.23-6.38c-.52,0-.87-.57-1.32-1.44-7.78-14.96-13.03-25.28-20.42-41.85-.63-1.41-1.07-2.46-1.07-3.79h0s-5.62-.02-5.62-.02c-.01,1.39.63,2.79,1.96,5.61"/>
    </clipPath>
    <clipPath id="clippath-11">
      <rect class="cls-21" x="206.44" y="209.41" width="60.45" height="47.92" transform="translate(-73.38 353.14) rotate(-65.72)"/>
    </clipPath>
    <linearGradient id="Degradado_sin_nombre_27" data-name="Degradado sin nombre 27" x1="-102.48" y1="569.63" x2="-98.19" y2="569.63" gradientTransform="translate(7307.45 -1016.04) rotate(-90) scale(12.41 -12.41)" gradientUnits="userSpaceOnUse">
      <stop offset="0" stop-color="#ccc"/>
      <stop offset=".01" stop-color="#ccc"/>
      <stop offset=".11" stop-color="#000"/>
      <stop offset="1" stop-color="#000"/>
    </linearGradient>
    <mask id="mask-1" x="174.36" y="170.28" width="124.61" height="126.18" maskUnits="userSpaceOnUse">
      <g class="cls-44">
        <rect class="cls-2" x="188.48" y="186.76" width="96.37" height="93.23" transform="translate(-73.38 353.15) rotate(-65.72)"/>
      </g>
    </mask>
    <linearGradient id="Degradado_sin_nombre_58" data-name="Degradado sin nombre 58" x1="-102.48" y1="569.64" x2="-98.18" y2="569.64" gradientTransform="translate(7307.52 -1016.06) rotate(-90) scale(12.41 -12.41)" gradientUnits="userSpaceOnUse">
      <stop offset="0" stop-color="#f6f7f7"/>
      <stop offset=".01" stop-color="#f6f7f7"/>
      <stop offset=".11" stop-color="#f4f3f4"/>
      <stop offset="1" stop-color="#f4f3f4"/>
    </linearGradient>
    <clipPath id="clippath-12">
      <path class="cls-21" d="M273.71,206.71c0,1.34-.46,2.36-1.08,3.74-7.39,16.56-12.63,26.89-20.41,41.85-.45.86-.82,1.43-1.32,1.44l-2.23,6.38c-8.03,20.13-18.3,38.93-18.3,38.93.62.03,1.36-.73,2.22-2.03.23-.36.53-.86.9-1.47,5.76-9.81,33.55-61.09,43.82-83.19,1.32-2.84,2.01-4.26,2.01-5.64h-5.61s0,0,0,0"/>
    </clipPath>
    <linearGradient id="Degradado_sin_nombre_57" data-name="Degradado sin nombre 57" x1="-123.42" y1="556.18" x2="-119.12" y2="556.18" gradientTransform="translate(12202.24 -2352.7) rotate(-90) scale(21.48 -21.48)" gradientUnits="userSpaceOnUse">
      <stop offset="0" stop-color="#fff"/>
      <stop offset=".26" stop-color="#f8f8f9"/>
      <stop offset=".62" stop-color="#e7e7e9"/>
      <stop offset=".97" stop-color="#d0d0d4"/>
      <stop offset=".99" stop-color="#949398"/>
      <stop offset="1" stop-color="#949398"/>
    </linearGradient>
    <clipPath id="clippath-13">
      <path class="cls-21" d="M173.58,206.69c0,1.24.27,2.84,1.35,5.19,2.56,5.57,9.75,19.74,18.95,36.49,10.05,18.29,28.3,48.7,30.34,51.48.84,1.14,1.55,1.84,2.24,2.27l1.46-3.49c-.24-.25-.48-.55-.76-.93-1.78-2.45-19.06-31.02-30.09-51.09-7.84-14.23-15.56-29.32-18.85-36.29-.67-1.41-1-2.63-1-3.63h-3.64Z"/>
    </clipPath>
    <linearGradient id="Degradado_sin_nombre_56" data-name="Degradado sin nombre 56" x1="-123.14" y1="557.72" x2="-118.84" y2="557.72" gradientTransform="translate(12581.62 -2431.55) rotate(-90) scale(22.2 -22.2)" gradientUnits="userSpaceOnUse">
      <stop offset="0" stop-color="#89898e"/>
      <stop offset=".14" stop-color="#838388"/>
      <stop offset=".57" stop-color="#76767b"/>
      <stop offset=".97" stop-color="#727277"/>
      <stop offset=".99" stop-color="#96979c"/>
      <stop offset="1" stop-color="#a7a8ad"/>
    </linearGradient>
    <clipPath id="clippath-14">
      <path class="cls-21" d="M226.47,302.11c.98.62,1.89.7,2.99.8,2.71.24,14.6.44,21.44.44s19.68-.28,21.45-.44c.84-.08,1.6-.15,2.4-.5l-1.44-3.4c-.18.09-.52.18-1.12.25l-.25.03c-1.58.18-12.06.41-21.03.41-7.23,0-14.06-.15-18.51-.31-.38-.01-.86-.03-1.25.01-.72.08-1.6.16-2.04.02-.42-.12-.78-.38-1.18-.8l-1.46,3.49Z"/>
    </clipPath>
    <linearGradient id="Degradado_sin_nombre_55" data-name="Degradado sin nombre 55" x1="-118.52" y1="511.22" x2="-114.22" y2="511.22" gradientTransform="translate(-4795.77 1450.14) rotate(90) scale(9.87 -9.87)" gradientUnits="userSpaceOnUse">
      <stop offset="0" stop-color="#89898e"/>
      <stop offset=".02" stop-color="#89898e"/>
      <stop offset=".04" stop-color="#757479"/>
      <stop offset=".06" stop-color="#605e63"/>
      <stop offset=".08" stop-color="#535155"/>
      <stop offset=".1" stop-color="#4f4d51"/>
      <stop offset="1" stop-color="#4f4d51"/>
    </linearGradient>
    <clipPath id="clippath-15">
      <path class="cls-21" d="M273.37,114.29c.4.29.78.73,1.26,1.39,1.78,2.45,19.06,31.02,30.09,51.09,7.83,14.24,15.56,29.32,18.85,36.29.67,1.4,1,2.39,1,3.4l3.64.23h0c0-1.01-.22-2.83-1.35-5.2-2.75-5.73-11.54-23.04-18.96-36.48-9.92-17.99-28.22-48.62-30.34-51.48-1.12-1.5-1.96-2.21-2.81-2.57l-1.39,3.33Z"/>
    </clipPath>
    <linearGradient id="Degradado_sin_nombre_54" data-name="Degradado sin nombre 54" x1="-116.53" y1="535.45" x2="-112.23" y2="535.45" gradientTransform="translate(-11266.33 2630.35) rotate(90) scale(21.6 -21.6)" gradientUnits="userSpaceOnUse">
      <stop offset="0" stop-color="#7f7d82"/>
      <stop offset="1" stop-color="#949398"/>
    </linearGradient>
    <clipPath id="clippath-16">
      <path class="cls-21" d="M229.23,110.47c-.94.09-1.64.25-2.23.5l1.44,3.45c.28-.14.55-.27,1.28-.34,1.4-.14,12.21-.41,21.18-.41,7.3,0,14.71.15,18.4.31.37.02.86.03,1.24-.01.72-.08,1.7-.16,2.14-.03.24.07.45.18.68.35l1.39-3.33c-.81-.37-1.6-.41-2.51-.49-2.82-.26-14.98-.44-21.35-.44-5.61,0-18.62.15-21.67.46"/>
    </clipPath>
    <linearGradient id="Degradado_sin_nombre_53" data-name="Degradado sin nombre 53" x1="-95.88" y1="562.88" x2="-91.58" y2="562.88" gradientTransform="translate(6261.15 -888.91) rotate(-90) scale(10.68 -10.68)" gradientUnits="userSpaceOnUse">
      <stop offset="0" stop-color="#7f7d82"/>
      <stop offset="0" stop-color="#7f7d82"/>
      <stop offset=".02" stop-color="#908f94"/>
      <stop offset=".04" stop-color="#a8a8ad"/>
      <stop offset=".06" stop-color="#b7b7bc"/>
      <stop offset=".07" stop-color="#bcbdc2"/>
      <stop offset=".5" stop-color="#cfd0d3"/>
      <stop offset="1" stop-color="#d0d0d4"/>
    </linearGradient>
    <clipPath id="clippath-17">
      <path class="cls-21" d="M224.11,113.68c-2.1,2.74-20.38,33.6-30.22,51.33-6.92,12.48-17.92,34.11-18.96,36.48-1.04,2.38-1.35,3.96-1.35,5.2h3.64c0-.57.12-1.78,1-3.63,3.29-6.97,11.02-22.06,18.85-36.29,11.03-20.07,28.38-48.58,30.06-51.09.58-.86.95-1.06,1.31-1.26l-1.44-3.45c-1.15.49-1.83,1.32-2.89,2.7"/>
    </clipPath>
    <linearGradient id="Degradado_sin_nombre_52" data-name="Degradado sin nombre 52" x1="-127.96" y1="543.14" x2="-123.67" y2="543.14" gradientTransform="translate(2667.17 10807.67) scale(19.61 -19.61)" gradientUnits="userSpaceOnUse">
      <stop offset="0" stop-color="#a7a8ad"/>
      <stop offset=".99" stop-color="#949398"/>
      <stop offset="1" stop-color="#d0d0d4"/>
    </linearGradient>
    <clipPath id="clippath-18">
      <path class="cls-21" d="M273.3,299.01h0s0,0,0,0M323.58,210.32c-3.29,6.97-11.02,22.05-18.85,36.29-11.04,20.07-28.23,48.5-30.01,50.95-.74,1.02-1.04,1.31-1.41,1.46l1.44,3.4c.88-.39,1.78-1.12,2.82-2.57,1.97-2.74,21.64-35.58,30.34-51.48,8.7-15.9,17.95-34.23,18.96-36.49,1.26-2.81,1.35-4.19,1.35-5.19l-3.64-.23c0,.57-.13,2.02-1,3.86"/>
    </clipPath>
    <linearGradient id="Degradado_sin_nombre_51" data-name="Degradado sin nombre 51" x1="-123.09" y1="554.22" x2="-118.79" y2="554.22" gradientTransform="translate(12671.61 -2445.04) rotate(-90) scale(22.32 -22.32)" gradientUnits="userSpaceOnUse">
      <stop offset="0" stop-color="#4f4d51"/>
      <stop offset=".02" stop-color="#4f4d51"/>
      <stop offset=".23" stop-color="#58575b"/>
      <stop offset=".6" stop-color="#636367"/>
      <stop offset=".97" stop-color="#67676b"/>
      <stop offset=".99" stop-color="#828186"/>
      <stop offset="1" stop-color="#949398"/>
    </linearGradient>
    <clipPath id="clippath-19">
      <path class="cls-21" d="M251.39,161.7c.69,1.31,6.14,11.7,11.11,21.9,4.67,9.56,8.74,18.72,9.19,19.74.61,1.37.97,2.27.97,3.37s-.36,1.89-.96,3.25l-.03.08c-.04.09-4.3,9.7-9.23,19.8-4.41,9.04-9.21,18.27-11.07,21.82l-.09.17c-.18.34-.34.6-.4.6-.07,0-.22-.24-.4-.59-.03-.05-.12-.23-.28-.52-5.21-9.96-8.8-17.17-10.9-21.47-4.72-9.66-8.91-19.09-9.21-19.79l-.04-.1c-.53-1.25-.95-2.24-.95-3.29s.49-2.21.99-3.31c.03-.07.12-.26.24-.55,2.98-6.77,5.99-13.22,8.93-19.19,4.27-8.67,9.07-17.94,10.67-21-14.69,9.5-24.42,26.07-24.42,44.91,0,29.48,23.81,53.39,53.18,53.39,9.47,0,18.35-2.48,26.05-6.83,1.16-2.05,2.23-3.95,3.16-5.68,8.47-15.47,17.87-34.06,18.96-36.49,1.19-2.67,1.35-4.07,1.35-5.2,0-.89-.17-2.75-1.35-5.21-2.81-5.85-11.55-23.06-18.96-36.49-.58-1.05-1.17-2.13-1.8-3.24-8-4.84-17.39-7.63-27.42-7.63s-19.34,2.77-27.32,7.58"/>
    </clipPath>
    <clipPath id="clippath-20">
      <path class="cls-21" d="M263.34,207.51c0,8.79,7.12,15.91,15.91,15.91s15.92-7.13,15.92-15.91-7.13-15.91-15.92-15.91-15.91,7.13-15.91,15.91"/>
    </clipPath>
    <radialGradient id="Degradado_sin_nombre_21" data-name="Degradado sin nombre 21" cx="-165.07" cy="492.74" fx="-165.07" fy="492.74" r="4.3" gradientTransform="translate(890.36 2031.74) scale(3.7 -3.7)" gradientUnits="userSpaceOnUse">
      <stop offset="0" stop-color="#fff"/>
      <stop offset=".17" stop-color="#fff"/>
      <stop offset=".27" stop-color="#c3c3c3"/>
      <stop offset=".37" stop-color="#908f8f"/>
      <stop offset=".48" stop-color="#646363"/>
      <stop offset=".58" stop-color="#403f3f"/>
      <stop offset=".68" stop-color="#242323"/>
      <stop offset=".79" stop-color="#100f0f"/>
      <stop offset=".89" stop-color="#040303"/>
      <stop offset="1" stop-color="#010000"/>
    </radialGradient>
    <mask id="mask-2" x="225.71" y="154.13" width="106.75" height="106.75" maskUnits="userSpaceOnUse">
      <g>
        <rect class="cls-22" x="225.71" y="154.13" width="106.75" height="106.75"/>
        <g class="cls-46">
          <g class="cls-33">
            <rect class="cls-4" x="263.34" y="191.59" width="31.83" height="31.83"/>
          </g>
        </g>
      </g>
    </mask>
    <clipPath id="clippath-21">
      <rect class="cls-21" x="225.71" y="154.13" width="106.75" height="106.74"/>
    </clipPath>
    <clipPath id="clippath-22">
      <path class="cls-21" d="M225.71,207.51c0,29.48,23.9,53.37,53.38,53.37s53.37-23.89,53.37-53.37-23.89-53.38-53.37-53.38-53.38,23.9-53.38,53.38"/>
    </clipPath>
    <radialGradient id="Degradado_sin_nombre_20" data-name="Degradado sin nombre 20" cx="-127.15" cy="530.1" fx="-127.15" fy="530.1" r="4.3" gradientTransform="translate(1857.79 6789.55) scale(12.42 -12.42)" gradientUnits="userSpaceOnUse">
      <stop offset="0" stop-color="#fff"/>
      <stop offset=".19" stop-color="#a1a1a1"/>
      <stop offset=".39" stop-color="#4b4b4b"/>
      <stop offset=".52" stop-color="#141414"/>
      <stop offset=".59" stop-color="#000"/>
      <stop offset="1" stop-color="#000"/>
    </radialGradient>
    <mask id="mask-3" x="225.71" y="154.13" width="106.75" height="106.75" maskUnits="userSpaceOnUse">
      <rect class="cls-3" x="225.71" y="154.14" width="106.75" height="106.75"/>
    </mask>
    <radialGradient id="Degradado_sin_nombre_19" data-name="Degradado sin nombre 19" cx="-127.12" cy="530.14" fx="-127.12" fy="530.14" r="4.3" gradientTransform="translate(1857.43 6789.95) scale(12.42 -12.42)" gradientUnits="userSpaceOnUse">
      <stop offset="0" stop-color="#fff"/>
      <stop offset=".59" stop-color="#fff"/>
      <stop offset="1" stop-color="#fff"/>
    </radialGradient>
  </defs>
  <g>
    <g class="cls-24">
      <rect class="cls-12" x="177.22" y="113.67" width="147.36" height="186.04"/>
    </g>
    <g class="cls-25">
      <g class="cls-26">
        <g class="cls-28">
          <rect class="cls-9" x="177.22" y="113.67" width="147.36" height="186.03"/>
        </g>
      </g>
    </g>
    <g class="cls-27">
      <rect class="cls-11" x="180.08" y="206.31" width="68.08" height="92.74"/>
    </g>
    <g class="cls-31">
      <rect class="cls-8" x="230.96" y="206.72" width="92.43" height="92.98"/>
    </g>
    <g class="cls-29">
      <rect class="cls-1" x="222.45" y="114.34" width="48.9" height="92.32"/>
    </g>
    <g class="cls-30">
      <rect class="cls-7" x="250.89" y="153.27" width="28.43" height="53.45"/>
    </g>
    <g class="cls-32">
      <rect class="cls-16" x="222.44" y="206.65" width="28.45" height="53.47"/>
    </g>
    <g class="cls-39">
      <g class="cls-50">
        <rect class="cls-15" x="206.44" y="209.42" width="60.45" height="47.92" transform="translate(-73.38 353.15) rotate(-65.72)"/>
      </g>
    </g>
    <g class="cls-38">
      <rect class="cls-20" x="230.36" y="206.7" width="48.95" height="92.37"/>
    </g>
    <g class="cls-37">
      <rect class="cls-14" x="173.58" y="206.69" width="54.34" height="95.43"/>
    </g>
    <g class="cls-36">
      <rect class="cls-19" x="236.49" y="278.9" width="28.23" height="44.17" transform="translate(-135.36 367.52) rotate(-60)"/>
    </g>
    <g class="cls-40">
      <rect class="cls-17" x="245.64" y="111.78" width="110.31" height="94.09" transform="translate(17.04 346.39) rotate(-61.3)"/>
    </g>
    <g class="cls-42">
      <rect class="cls-13" x="242.18" y="88.66" width="17.4" height="47.12" transform="translate(73.86 322.45) rotate(-74)"/>
    </g>
    <g class="cls-41">
      <rect class="cls-18" x="158.25" y="104.32" width="85.52" height="109.02" transform="translate(-43.57 82.58) rotate(-21)"/>
    </g>
    <g class="cls-45">
      <rect class="cls-10" x="273.3" y="206.45" width="54.92" height="95.95"/>
    </g>
    <g class="cls-43">
      <g class="cls-49">
        <g class="cls-34">
          <g class="cls-35">
            <g class="cls-48">
              <rect class="cls-5" x="225.71" y="154.13" width="106.75" height="106.75"/>
            </g>
          </g>
        </g>
      </g>
    </g>
    <path class="cls-23" d="M272.64,202.92c-.3-.67-4.46-10.04-9.21-19.77-5.17-10.6-10.96-21.62-11.21-22.07-.46-.87-.83-1.44-1.33-1.44s-.83.5-1.33,1.44c-.24.46-6.17,11.82-11.22,22.07-5.04,10.23-8.93,19.21-9.19,19.77-.52,1.13-1.08,2.45-1.08,3.74s.49,2.41,1.07,3.79c.28.66,4.47,10.09,9.23,19.84,5.18,10.6,10.96,21.58,11.18,22.01.44.86.82,1.44,1.32,1.44s.87-.56,1.32-1.43c.24-.46,5.99-11.41,11.17-22.01,4.74-9.72,8.94-19.14,9.25-19.84.64-1.47,1.08-2.44,1.08-3.74s-.43-2.36-1.06-3.79M271.71,209.96l-.03.08c-.04.09-4.3,9.7-9.23,19.8-4.41,9.04-9.21,18.27-11.07,21.82l-.09.16c-.18.35-.34.6-.4.6s-.22-.25-.4-.6c-.03-.05-.12-.23-.28-.52-5.21-9.96-8.8-17.17-10.9-21.47-4.72-9.65-8.91-19.09-9.21-19.79l-.04-.09c-.53-1.26-.95-2.24-.95-3.29s.49-2.21.99-3.31c.03-.06.12-.25.24-.55,2.98-6.77,5.99-13.22,8.93-19.19,5.19-10.53,11.16-21.95,11.21-22.05.17-.32.31-.61.41-.61s.25.3.42.62c.05.09,5.88,11.18,11.19,22.04,4.67,9.56,8.74,18.73,9.19,19.74.61,1.37.97,2.27.97,3.37s-.36,1.89-.96,3.25"/>
    <path class="cls-23" d="M326.88,201.48c-2.81-5.86-11.55-23.06-18.95-36.49-10.15-18.41-28.29-48.71-30.34-51.48-2.03-2.73-3.17-2.85-5.06-3.05l-.27-.03c-2.74-.3-14.36-.44-21.35-.44-5.99,0-18.71.15-21.67.45-2.79.28-3.55,1.13-5.14,3.21-2.19,2.85-20.62,34.02-30.22,51.33-6.95,12.52-17.94,34.16-18.96,36.49-.92,2.1-1.35,3.76-1.35,5.21,0,1.54.43,3.19,1.35,5.2,2.3,5,9.25,18.84,18.96,36.49,10.12,18.41,28.4,48.83,30.34,51.48,2.05,2.8,3.39,2.91,5.24,3.08,2.81.25,14.95.44,21.45.44,7.01,0,19.7-.28,21.45-.44,1.73-.16,3.23-.29,5.24-3.08,1.84-2.55,21.51-35.33,30.34-51.48,8.47-15.47,17.87-34.06,18.95-36.49,1.19-2.67,1.36-4.07,1.36-5.21,0-.89-.18-2.74-1.36-5.2M325.92,211.46c-1.08,2.42-10.46,20.96-18.92,36.41-8.82,16.12-28.44,48.82-30.27,51.37-1.72,2.39-2.82,2.49-4.47,2.64-1.73.16-14.36.43-21.35.43-6.48,0-18.57-.18-21.36-.43-1.75-.15-2.71-.24-4.47-2.65-1.93-2.63-20.17-32.98-30.27-51.36-9.69-17.62-16.62-31.44-18.92-36.42-.86-1.86-1.26-3.37-1.26-4.76,0-1.3.4-2.82,1.26-4.78,1.02-2.32,11.98-23.9,18.92-36.4,9.59-17.29,27.96-48.37,30.13-51.2,1.52-1.99,2.06-2.57,4.4-2.8,2.93-.29,15.6-.45,21.57-.45,6.96,0,18.53.14,21.24.43l.28.03c1.76.19,2.56.27,4.32,2.63,2.05,2.75,20.13,32.98,30.27,51.36,7.39,13.41,16.12,30.59,18.93,36.43,1.09,2.27,1.25,3.95,1.25,4.75,0,1.01-.15,2.29-1.26,4.78"/>
  </g>
  <polygon class="cls-23" points="428.64 356.83 428.64 364.7 412.24 364.7 412.24 399.34 401.18 399.34 401.18 364.7 384.78 364.7 384.78 356.83 428.64 356.83"/>
  <polygon class="cls-23" points="389.5 391.46 389.5 399.34 354.36 399.34 354.36 356.83 365.41 356.83 365.41 391.46 389.5 391.46"/>
  <polygon class="cls-23" points="176.62 391.46 176.62 399.34 139.69 399.34 139.69 356.83 175.92 356.83 175.92 364.71 150.76 364.71 150.76 374.05 173.75 374.05 173.75 381.67 150.76 381.67 150.76 391.46 176.62 391.46"/>
  <path class="cls-23" d="M119.89,383.55c4.73-2.57,7.66-7.63,7.66-12.93,0-4.42-1.29-7.85-3.99-10.11-3.14-2.6-7.45-3.69-14.72-3.69h-25.36l-.45,2.56s.45.76.98,1.69c.79,1.35.72,1.75.72,2.65v35.61h11.06v-13.61h13.74l7.37,13.61h12.18l-9.19-15.79ZM114.29,376.65c-.85.83-1.86,1.23-3.43,1.23h-15.08v-12.96h11.92c3.55,0,5.44.4,6.72,1.44,1.25,1,1.85,2.53,1.85,4.78s-.62,4.2-1.98,5.51Z"/>
  <path class="cls-23" d="M222.92,356.82v28.2c-2.58-3.25-5.29-6.38-9.86-11.41-3.73-4.09-11.49-12.48-15.48-16.79h-10.67l-.45,2.56s.46.76.98,1.69c.59,1.01.71,1.49.73,2.04v36.23s9.93-.03,9.93-.03v-28.16c1.98,2.65,5.51,6.71,7.87,9.26,4.69,5.07,11.77,12.98,17.29,18.93h9.55v-42.51h-9.89Z"/>
  <path class="cls-23" d="M331.2,356.83v26c0,2.9-.58,4.63-1.99,5.95-1.79,1.66-4.75,2.46-9.02,2.46s-7.37-.8-9.15-2.46c-1.41-1.32-1.99-3.06-1.99-5.95v-26h-12.31l-.45,2.56s.46.76.97,1.69c.56.97.69,1.45.72,1.98v20.17c.01,11.11,7.54,16.77,22.06,16.77h.31c14.53,0,21.67-5.5,21.67-16.77v-26.4h-10.82Z"/>
  <path class="cls-23" d="M273.38,356.83h-13.82c-4.19,8.66-11.48,24.63-18.31,42.52h11.1c.88-2.42,1.82-4.89,2.77-7.36h22.69c.96,2.47,1.89,4.94,2.77,7.36h11.1c-6.83-17.89-14.12-33.86-18.31-42.52ZM258.29,383.97c2.91-7.24,5.82-14.09,8.17-19.41,2.35,5.31,5.27,12.16,8.18,19.41h-16.35Z"/>
</svg>