<?xml version="1.0" encoding="UTF-8"?>
<svg id="Warstwa_1" data-name="Warstwa 1" xmlns="http://www.w3.org/2000/svg" viewBox="0 0 512 512">
  <defs>
    <style>
      .cls-1 {
        fill: #19181b;
      }

      .cls-1, .cls-2, .cls-3 {
        stroke-width: 0px;
      }

      .cls-2 {
        fill: #19191b;
      }

      .cls-3 {
        fill: #fff;
      }
    </style>
  </defs>
  <path class="cls-3" d="M284.38,363.59c1.27-2.63,4.34-3.61,7.07-3.64,13.86-.05,27.73.05,41.6-.05.13,5.21.01,10.44.05,15.66-16.65.03-33.31.07-49.97-.02.19-3.97-.52-8.22,1.24-11.93h0Z"/>
  <path class="cls-2" d="M220.32,112.56c39.78-1.4,79.59,0,119.3,2.54,4.18.36,8.42.33,12.53,1.21,2.23.54,4.63,1.39,5.94,3.41,1.19,2.2,1.21,4.77,1.52,7.2.94,11.92,1.22,23.88,2.11,35.79-1.72.21-3.44-.05-5.16-.11-30.63-1.59-61.28-2.9-91.95-2.94-15.89.04-31.79-.11-47.67.66-3.85.57-8.2,1.85-10.42,5.28,12.01,2.13,23.99,4.43,36,6.61,39.79,7.45,79.6,14.73,119.39,22.16-.03,7.55-.02,15.09,0,22.64-22.37-3.7-44.71-7.7-67.07-11.52-48.1-8.29-96.19-16.7-144.31-24.91.09-8.38.45-16.75.63-25.13.3-6.64.11-13.36,1.62-19.88,1.01-4.6,2.88-9.22,6.36-12.51,6.01-5.96,14.71-7.63,22.81-8.47,12.76-1.18,25.57-1.57,38.37-2.04h0ZM150.3,191.6c68.92,12.72,137.81,25.64,206.71,38.43,1.51.37,3.12.4,4.56.95l.17.4c-.38,11.3-.6,22.62-1,33.92-.26,6.97-1,14.27-4.59,20.42-3.85,6.35-11.02,9.87-18.11,11.19-10.45,1.96-21.13,2.09-31.72,2.67-45.56,2.07-91.21.92-136.69-2.21-3.63-.25-7.33-.32-10.86-1.33-1.83-.58-3.72-1.51-4.75-3.2-1.11-2.22-1.18-4.75-1.45-7.16-.97-13.19-1.49-26.4-2.18-39.6,23.46,1.49,46.96,2.33,70.47,2.85,22.7.37,45.39.36,68.09.59,4.9.2,10.19-.73,13.9-4.17.54-.62,1.42-1.2,1.33-2.13-10.23-1.54-20.4-3.44-30.61-5.12-41.08-7.02-82.18-13.98-123.25-21.05-.05-8.49,0-16.97-.02-25.46h0ZM274.49,355.2c3.58-3.72,8.96-4.91,13.95-5.02,19.29,0,38.57-.03,57.86.01.03,16.6.06,33.21-.01,49.81h-13.14c-.09-4.83-.07-9.66-.02-14.49-16.58-.32-33.2,0-49.79-.16-.44,4.85-.03,9.77-.21,14.65h-13.13c-.18-10.43,0-20.88-.09-31.32-.01-4.8,1.07-9.97,4.58-13.48M284.38,363.59c-1.76,3.72-1.05,7.96-1.24,11.93,16.65.1,33.31.05,49.97.02-.03-5.22.08-10.44-.05-15.66-13.87.1-27.74,0-41.6.05-2.73.03-5.81,1.01-7.07,3.64h0ZM362.42,350.22c24.97-.13,49.95,0,74.93-.06.19,3.25.1,6.52.04,9.78-10.3,0-20.6,0-30.91,0,.04,13.36.05,26.71,0,40.07h-13.09c-.27-12.1-.04-24.21-.12-36.31-.14-1.28.45-2.76-.31-3.9-2.18.28-4.38.08-6.57.14-7.99-.02-15.98.04-23.96-.02-.03-3.23-.05-6.46,0-9.68h0Z"/>
  <path class="cls-1" d="M80.8,351.9c3.47-1.76,7.48-1.76,11.28-1.73,19.88.03,39.76-.06,59.64.04,0,3.17.02,6.33-.01,9.5-20.21.18-40.43-.02-60.63.09-1.64-.08-3.72.59-4.08,2.41-.17,1.4-.27,3.18.98,4.15,1.13.96,2.71.97,4.11,1.13,16.45,1.37,32.91,2.7,49.37,4.08,3.82.46,8.01,1.16,10.85,4.01,2.74,2.71,3.28,6.81,3.17,10.48-.04,3.75-.89,7.81-3.73,10.48-2.59,2.21-6.08,3.31-9.47,3.11-21.68-.05-43.38.06-65.06-.07-.09-3.14-.18-6.3.05-9.43,20.36.12,40.72.02,61.07.05,1.39.04,2.92-.1,3.98-1.1,1.24-1.5,1.3-3.74.5-5.46-.94-1.5-2.82-1.79-4.44-1.88-14.43-1.23-28.86-2.42-43.29-3.63-4.47-.44-9.09-.42-13.36-2.01-2.64-1-4.93-3.01-5.92-5.68-1.21-2.75-.59-5.8-.78-8.69-.25-4.02,2.07-8.14,5.76-9.83h0ZM172.44,350.19c25.43-.04,50.85,0,76.28-.01.23.02.68.08.91.11,0,3.16-.07,6.32.02,9.48-.79.27-1.63.13-2.44.16-20.5-.02-41,.02-61.5-.02-.09,3.23-.02,6.46-.03,9.69,15.05.09,30.1,0,45.15.04,5.41.09,10.85-.19,16.24.14-.04,3.09-.05,6.18,0,9.27-1.26.21-2.55.16-3.82.16-19.2,0-38.39,0-57.59,0,.09,2.72-.24,5.68,1.16,8.14,1.45,2.46,4.62,2.78,7.2,2.84,18.52.01,37.04.03,55.57,0,.06,3.11,0,6.23.02,9.34-7.57.28-15.18.04-22.77.13-13.08-.02-26.15,0-39.22,0-4.59-.33-9.38-2.12-12.19-5.93-2.46-3.32-3.14-7.57-3.03-11.6.04-10.65-.05-21.3.05-31.94Z"/>
</svg>