<?xml version="1.0" encoding="UTF-8"?>
<svg id="Warstwa_1" data-name="Warstwa 1" xmlns="http://www.w3.org/2000/svg" xmlns:xlink="http://www.w3.org/1999/xlink" viewBox="0 0 512 512">
  <defs>
    <style>
      .cls-1 {
        fill: url(#linear-gradient);
      }

      .cls-1, .cls-2, .cls-3, .cls-4, .cls-5 {
        stroke-width: 0px;
      }

      .cls-2 {
        fill: #a32523;
      }

      .cls-6 {
        fill: #4d4d4d;
        stroke: #4d4d4d;
      }

      .cls-6, .cls-7 {
        stroke-width: .45px;
      }

      .cls-3 {
        fill: #e20613;
      }

      .cls-4 {
        fill: url(#linear-gradient-2);
      }

      .cls-5 {
        fill: url(#linear-gradient-3);
      }

      .cls-7 {
        fill: #b3b3b3;
        stroke: #b3b3b3;
      }
    </style>
    <linearGradient id="linear-gradient" x1="513.03" y1="705.59" x2="741.4" y2="705.59" gradientTransform="translate(-308.14 -472.59) scale(.9)" gradientUnits="userSpaceOnUse">
      <stop offset="0" stop-color="#9c9b9b"/>
      <stop offset=".08" stop-color="#a1a1a1"/>
      <stop offset=".19" stop-color="#b2b2b2"/>
      <stop offset=".32" stop-color="#cecece"/>
      <stop offset=".46" stop-color="#f5f5f5"/>
      <stop offset=".49" stop-color="#fff"/>
      <stop offset=".58" stop-color="#f9f9f9"/>
      <stop offset=".69" stop-color="#eaeaea"/>
      <stop offset=".81" stop-color="#d1d0d0"/>
      <stop offset=".94" stop-color="#adadad"/>
      <stop offset="1" stop-color="#9c9b9b"/>
    </linearGradient>
    <linearGradient id="linear-gradient-2" x1="513.03" y1="756.1" x2="741.4" y2="756.1" xlink:href="#linear-gradient"/>
    <linearGradient id="linear-gradient-3" x1="513.03" y1="806.82" x2="741.53" y2="806.82" xlink:href="#linear-gradient"/>
  </defs>
  <path class="cls-2" d="M366.63,121.32c-21.81-5.45-84.54-10.99-151.34-6.81-65.45,4.09-66.81,34.77-69.53,56.58-2.73,21.81,2.04,133.61,2.04,133.61,0,0,66.13,9.08,107.71,8.63,41.59-.45,107.98,6.41,114.53-41.35,6.82-49.76-3.41-150.66-3.41-150.66Z"/>
  <g>
    <polygon class="cls-2" points="244.36 360.61 244.36 352.43 163.92 352.43 163.92 398.78 244.36 398.78 244.36 390.6 183.01 390.6 183.01 379.69 240.95 379.69 240.95 371.51 183.01 371.51 183.01 360.61 244.36 360.61"/>
    <path class="cls-2" d="M132.8,372.88s-37.15-1.36-42.61-1.36-9.2-1.36-9.2-6.81c0-3.74,5.09-4.08,9.54-4.09h0s52.94,0,52.94,0v-8.18h-62.29s-18.6-.68-18.6,12.95c0,11.25,6.48,13.97,16.7,13.97s36.13,1.71,40.9,1.71c0,0,6.48.63,6.48,5.11,0,2.73-1.7,4.43-4.77,4.43h-58.63v8.18h67.26c3.64,0,14.21-1.7,14.21-12.95,0-10.57-5.79-12.27-11.93-12.95Z"/>
    <polygon class="cls-2" points="450.51 352.53 367.48 352.53 367.48 362.21 399.82 362.21 399.82 398.78 417.47 398.78 417.47 362.21 450.51 362.21 450.51 352.53"/>
    <path class="cls-2" d="M282.78,352.43c-8.85,0-17.38,6.14-17.38,13.29v33.28s16.36,0,16.36,0v-17.6h49.18v17.38h16.36v-46.36h-64.52ZM281.75,373.22v-3.41c0-3.58,3.41-8.52,9.54-8.52h39.64v11.93h-49.18Z"/>
  </g>
  <path class="cls-3" d="M364.58,119.28c-21.81-5.45-84.54-10.99-151.34-6.81-65.44,4.09-66.81,34.77-69.53,56.58-2.73,21.81,2.05,133.62,2.05,133.62,0,0,66.13,9.07,107.71,8.63,41.58-.45,107.98,6.41,114.53-41.35,6.82-49.77-3.41-150.66-3.41-150.66Z"/>
  <g>
    <path class="cls-7" d="M151.88,169.73s-.63-29.25,15-38.18c19.09-10.9,68.85-20.45,188.84-5.45,0,0,1.36,38.17,1.36,40.9,0,0-89.33-7.66-105.66-6.36-11.59.91-6.14,7.05,0,7.94,0,0,89.99,14.78,105.66,18.19v15.68s-141.11-27.95-205.2-32.72Z"/>
    <path class="cls-7" d="M151.2,180.63s158.16,24.54,205.87,36.13v14.32s-160.88-36.13-205.2-40.22l-.68-10.23Z"/>
    <path class="cls-7" d="M151.88,202.45s154.75,23.86,205.2,43.63c0,0,4.09,32.72-12.27,42.95-23.41,14.63-111.8,14.32-190.88,4.77,0,0-2.05-37.49,0-55.9,0,0,87.3,6.48,106.35,8.87,10.9,1.36,10.91-4.09,4.09-8.18,0,0-84.53-23.18-111.8-26.59l-.68-9.54Z"/>
  </g>
  <g>
    <path class="cls-6" d="M155.98,173.82s-.63-29.25,15-38.18c19.09-10.9,68.85-20.45,188.83-5.45,0,0,1.36,38.17,1.36,40.9,0,0-89.33-7.66-105.66-6.37-11.59.91-6.14,7.05,0,7.94,0,0,89.99,14.78,105.66,18.19v15.68s-141.11-27.95-205.19-32.72Z"/>
    <path class="cls-6" d="M155.29,184.72s158.16,24.54,205.88,36.13v14.32s-160.88-36.13-205.19-40.22l-.68-10.23Z"/>
    <path class="cls-6" d="M155.98,206.54s154.75,23.86,205.19,43.63c0,0,4.09,32.72-12.27,42.95-23.41,14.63-111.8,14.32-190.88,4.77,0,0-2.04-37.49,0-55.9,0,0,87.3,6.48,106.35,8.86,10.9,1.36,10.91-4.09,4.09-8.18,0,0-84.53-23.18-111.8-26.59l-.68-9.54Z"/>
  </g>
  <g>
    <path class="cls-1" d="M153.93,171.77s-.63-29.25,15-38.18c19.09-10.9,68.85-20.45,188.84-5.45,0,0,1.36,38.17,1.36,40.9,0,0-89.33-7.66-105.66-6.37-11.59.91-6.14,7.05,0,7.94,0,0,89.99,14.78,105.66,18.19v15.68s-141.12-27.95-205.2-32.72Z"/>
    <path class="cls-4" d="M153.25,182.68s158.16,24.54,205.88,36.13v14.32s-160.88-36.14-205.2-40.22l-.68-10.23Z"/>
    <path class="cls-5" d="M153.93,204.5s154.75,23.86,205.2,43.63c0,0,4.09,32.72-12.27,42.95-23.41,14.63-111.8,14.32-190.88,4.77,0,0-2.05-37.49,0-55.9,0,0,87.3,6.48,106.35,8.86,10.9,1.36,10.91-4.09,4.09-8.18,0,0-84.53-23.18-111.8-26.59l-.68-9.54Z"/>
  </g>
  <g>
    <polygon class="cls-3" points="242.32 358.56 242.32 350.38 161.87 350.38 161.87 396.74 242.32 396.74 242.32 388.56 180.97 388.56 180.97 377.65 238.91 377.65 238.91 369.47 180.97 369.47 180.97 358.56 242.32 358.56"/>
    <path class="cls-3" d="M130.75,370.83s-37.16-1.36-42.61-1.36-9.2-1.36-9.2-6.82c0-3.73,5.09-4.08,9.54-4.09h0s52.94,0,52.94,0v-8.18h-62.29s-18.6-.68-18.6,12.95c0,11.25,6.48,13.98,16.7,13.98s36.13,1.7,40.9,1.7c0,0,6.48.63,6.48,5.11,0,2.73-1.7,4.43-4.77,4.43h-58.63v8.18h67.26c3.64,0,14.21-1.7,14.21-12.95,0-10.57-5.79-12.27-11.93-12.95Z"/>
    <polygon class="cls-3" points="448.47 350.49 365.44 350.49 365.44 360.17 397.78 360.17 397.78 396.74 415.43 396.74 415.43 360.17 448.47 360.17 448.47 350.49"/>
    <path class="cls-3" d="M280.73,350.38c-8.85,0-17.38,6.14-17.38,13.29v33.28s16.36,0,16.36,0v-17.6h49.18v17.38h16.36v-46.35h-64.52ZM279.71,371.17v-3.41c0-3.58,3.41-8.52,9.54-8.52h39.64v11.93h-49.18Z"/>
  </g>
</svg>