<?xml version="1.0" encoding="UTF-8"?>
<svg id="Warstwa_1" data-name="Warstwa 1" xmlns="http://www.w3.org/2000/svg" viewBox="0 0 512 512">
  <defs>
    <style>
      .cls-1 {
        fill: #1d1d1b;
      }

      .cls-1, .cls-2, .cls-3 {
        stroke-width: 0px;
      }

      .cls-2 {
        fill: #1d1d1b;
      }

      .cls-3 {
        fill: #fff;
      }
    </style>
  </defs>
  <g>
    <g>
      <path class="cls-2" d="M357.23,294.36c0,57.79-46.85,104.64-104.64,104.64s-104.64-46.85-104.64-104.64,46.85-104.64,104.64-104.64,104.64,46.85,104.64,104.64Z"/>
      <path class="cls-3" d="M354.6,294.36c0,56.34-45.67,102.01-102.01,102.01s-102.01-45.67-102.01-102.01,45.67-102.01,102.01-102.01,102.01,45.67,102.01,102.01Z"/>
      <path class="cls-2" d="M347.42,294.36c0,52.37-42.46,94.82-94.83,94.82s-94.83-42.45-94.83-94.82,42.46-94.82,94.83-94.82,94.83,42.45,94.83,94.82Z"/>
      <path class="cls-3" d="M339.02,294.36c0,47.74-38.69,86.43-86.43,86.43s-86.43-38.7-86.43-86.43,38.69-86.43,86.43-86.43,86.43,38.7,86.43,86.43Z"/>
    </g>
    <g>
      <path class="cls-2" d="M318.31,335.72c-6.46-6.06-14.6-10.11-23.46-11.53-1.27-.2-2.41.78-2.41,2.06v3.22c0,.96-.73,2.04-1.69,2.04-.7,0-1.39.02-2.09,0-2.48-.04-2.92-3.08-2.43-4.87,5.27-18.9,6.56-30.37,6.5-38.72-.06-8.88-.29-17.72-4.29-29.42-3.85-11.26-7.37-22.28-25.98-39.13-1.27-1.14-2.54-1.69-4.24-1.81-1.83-.13-3.33-.19-5.19-.19-7.73,0-15.18,1.14-22.23,3.25-2.64.8-2.24,2.63-.79,3.88,7.02,6.01,16.55,15.04,23.12,26.33-4.16.4-7.34-1.91-10.01-4.47-8.78-8.36-17.93-14.32-25.19-18.4-1.27-.71-2.51-1.01-3.76-.28-8.01,4.66-13.4,9.03-19.76,16.41-1.08,1.26-.38,2.23.68,2.79,6.95,3.68,17.83,10.67,27.81,19.75-2.03,1.71-5.26,1.15-9.93-1.3-8.98-4.72-17.61-7.43-24.2-9.13-1.41-.36-2.92.03-3.65,1.29-4.22,7.33-7.13,16.1-8.5,24.99-.26,1.71.9,3.22,2.6,3.51,15.35,2.69,42.72,9.91,47.27,41.44.39,2.76-2.12,5.19-5.43,3.63-4.62-2.16-9.23-4.32-13.84-6.48-.48-.22-1.03-.42-1.56-.42h-21.75c-3.09,0-4.36,2.96-2.35,5.26,5.23,6.02,10.02,12.52,14.13,19.41.36.61.78.85,1.49.85h9.49c.65,0,1.2-.15,1.75-.48,2.99-1.75,5.97-3.5,8.96-5.25.55-.33,1.11-.32,1.75-.32h71.56c.96,0,1.74.62,1.74,1.58v3.52c0,1.28,1.15,2.25,2.41,2.05,8.87-1.41,17.01-5.47,23.46-11.52,1.03-.96,1.03-2.59,0-3.54Z"/>
      <path class="cls-2" d="M311.87,337.48c-4.84-3.95-9.94-6.5-16.14-7.79-.56-.12-.83.1-.83.68v.31c0,1.52-1.52,3.3-3.05,3.3h-4.03c-3.4,0-6.43-2.8-5.18-7.29,14.55-51.91-1.71-84.02-22.23-101.99-5.58-4.87-6.08-5.14-11.63-4.93-4.38.17-9.51.7-13.85,1.76-.85.21-1.56.88-.44,1.83,10.53,8.88,24.62,24.18,31.36,48,.23.83-.26.77-.89.8-6.03.36-8.07-3.33-9.95-5.68-13.67-17.02-29.01-27.38-40.49-34.18-1.15-.68-1.33-.67-2.2-.17-4.61,2.67-9.79,6.92-13.44,10.79-.76.82-.57,1.2.27,1.65,10.38,5.56,26.17,16.53,40.85,35.12.91,1.15.97,1.68.46,1.98-2.82,1.68-7.53,1.66-12.7-1.56-13.99-8.72-28.2-14.9-39.31-18.11-1.18-.34-1.39-.28-1.87.74-2.71,5.7-5.67,13.11-6.73,19.53-.14.84-.21.9.57,1.06,30.59,6.21,47.38,23,49.29,45.43.33,3.89-4.07,7.64-8.45,6.26-4.76-1.51-9.38-3.21-14.14-4.71-.51-.17-1.03-.24-1.57-.24-6.58,0-13.16,0-19.74,0-.88,0-1.39.55-.52,1.65,4.97,6.28,7.85,9.84,11.36,15.72.36.61.77.85,1.49.85,2.42,0,4.84,0,7.26,0,.96,0,1.78-.22,2.62-.71,2.63-1.54,5.25-2.98,7.89-4.53.84-.49,1.55-.79,2.52-.79,23.89,0,49.49,0,73.37,0,1.52,0,3.1,1.78,3.1,3.32v.52c0,.58.27.79.83.68,6.2-1.29,11.3-4.26,16.14-8.21.44-.36.44-.71,0-1.07ZM265,325.42c-7.05,0-12.76-5.71-12.76-12.75s5.71-12.75,12.76-12.75,12.75,5.71,12.75,12.75-5.71,12.75-12.75,12.75Z"/>
      <path class="cls-2" d="M278.44,313.29c0,7.95-6.44,14.38-14.39,14.38s-14.38-6.44-14.38-14.38,6.44-14.39,14.38-14.39,14.39,6.44,14.39,14.39Z"/>
      <path class="cls-3" d="M276.2,312.93c0,5.32-4.32,9.64-9.65,9.64s-9.64-4.32-9.64-9.64,4.31-9.65,9.64-9.65,9.65,4.32,9.65,9.65Z"/>
    </g>
  </g>
  <path class="cls-1" d="M136.2,154.89c5.14.24,13.51.48,18.35.48,21.13,0,23.65-.04,23.65-11.53,0-9.06-2.66-9.79-13.85-10.12l-12.98-.39c-5.96-.2-6.06-.82-6.06-3.49s.73-2.76,15.02-2.76c2.71,0,11.33.14,15.89.24.48,0,.73-.24.73-.73v-5.91c0-.48-.25-.73-.68-.77-4.51-.25-11.87-.49-17.15-.49-20.73,0-24.07.39-24.07,11.09,0,9.16,2.03,10.37,15.3,10.81l11.92.39c5.57.19,5.67.87,5.67,2.95,0,2.86-.24,3.01-13.42,3.01-6.15,0-12.5-.24-18.26-.44-.48-.05-.73.2-.73.68v6.2c0,.48.24.73.68.78M359.78,142.05h-15.5l7.12-14.1h1.27l7.11,14.1ZM314.51,137.16v.49c0,8.96-.73,9.25-12.35,9.25h-9.59v-19h9.59c11.62,0,12.35.29,12.35,9.25M264.21,137.16v.49c0,9.79-.38,9.93-11.82,9.93s-11.82-.14-11.82-9.93v-.49c0-9.78.39-9.93,11.82-9.93s11.82.15,11.82,9.93M376.99,153.97l-16.72-33.48c-.14-.38-.44-.53-.83-.53h-14.82c-.39,0-.68.15-.82.53l-16.72,33.48c-.24.53-.04.87.54.87h9.64c.38,0,.68-.14.82-.53l2.52-4.94h22.86l2.52,4.94c.15.39.44.53.83.53h9.64c.58,0,.78-.34.54-.87M302.11,119.96h-19.33c-.48,0-.73.25-.73.73v33.43c0,.48.25.73.73.73h19.33c20.68,0,23.4-1.02,23.4-17.3v-.29c0-16.28-2.72-17.29-23.4-17.29M227.27,153.97l-19.28-18.85,18.11-14.29c.54-.38.34-.87-.34-.87h-11.82c-.34,0-.58.1-.87.34l-18.51,14.78v-14.39c0-.48-.24-.73-.73-.73h-9.01c-.49,0-.73.25-.73.73v33.43c0,.48.24.73.73.73h9.01c.48,0,.73-.24.73-.73v-8.43l5.48-4.32,13.27,13.08c.29.29.53.39.92.39h12.69c.63,0,.83-.43.34-.87M229.33,137.16v.49c0,16.9,2.77,17.93,23.07,17.93s23.06-1.02,23.06-17.98v-.43c0-16.9-2.76-17.92-23.06-17.92s-23.07,1.02-23.07,17.92M147.67,111.88l4.41,5.03c.24.29.49.39.87.39h9.25c.39,0,.63-.1.87-.39l4.41-5.03c.38-.44.24-.88-.39-.88h-6.24c-.39,0-.64.14-.88.43l-1.89,2.72h-1.02l-1.89-2.72c-.24-.29-.48-.43-.92-.43h-6.2c-.63,0-.77.43-.39.88"/>
</svg>