<?xml version="1.0" encoding="UTF-8"?>
<svg id="Warstwa_1" data-name="Warstwa 1" xmlns="http://www.w3.org/2000/svg" viewBox="0 0 512 512">
  <defs>
    <style>
      .cls-1 {
        fill: #000;
        stroke-width: 0px;
      }
    </style>
  </defs>
  <path class="cls-1" d="M222.95,171.93c2.22-7.25,7.84-3.55,7.84-3.55,0,0,14.56,11.09,54.5,36.5,39.94,25.42,89.73-9.86,89.73-9.86l-118.26-84.03c-51.87,54.98-118.26,74.69-118.26,74.69l.19.07,151.17,106c-2.22,7.25-7.84,3.55-7.84,3.55,0,0-14.56-11.09-54.5-36.51-39.94-25.41-89.73,9.86-89.73,9.86l118.26,84.03c51.87-54.98,118.26-74.69,118.26-74.69l-.19-.07-151.16-106h0Z"/>
  <g>
    <path class="cls-1" d="M136.61,386.05l18.19.1c.31,1.71-.18,1.71.78,2.6,1.5,1.4,3.82,1.71,5.77,1.37,1.6-.28,4.07-.77,4.19-2.75.13-2.15-1.36-2.91-3.23-3.15-2.59-.34-5.2-.43-7.77-.84-6.64-1.09-10.18-1.58-13-3.38-2.85-1.81-3.1-5.73-3.1-8.54,0-1.84.73-3.57,2.19-5.21,1.46-1.63,3.65-2.92,6.59-3.86,2.93-.93,6.95-1.4,12.05-1.4,6.26,0,11.04.85,14.33,2.54,3.29,1.7,5.24,5.48,5.87,9.18h-15.47c.11-.22-.3-1.21-.37-1.46-.59-2.14-2.66-2.77-4.65-3.21-1.63-.36-3.48-.39-4.95.51-.89.55-1.58,1.12-1.58,1.91,0,.57.37,1.08,1.11,1.54.72.47,2.41.91,5.09,1.31,6.62,1.05,11.36,2.1,14.23,3.16,2.86,1.07,4.95,2.39,6.25,3.96,1.3,1.58,1.96,3.34,1.96,5.29,0,2.29-.87,4.41-2.61,6.34s-4.17,3.4-7.28,4.4c-3.12,1-7.05,1.5-11.8,1.5-8.33,0-14.11-1.17-17.31-3.51-3.21-2.34-5.03-4.8-5.45-8.41h-.03Z"/>
    <path class="cls-1" d="M210.43,361.66h13.45v25.28c0,5.19-3.22,8.86-9.67,11.03-2.98.99-6.56,1.03-10.61,1.03-3.63,0-6.89.07-9.9-.72-7.1-2.84-10.64-6.62-10.64-11.34v-25.28h13.54v21.65c0,3.94.52,6.87,7,6.87s6.74-3.06,6.74-7l.09-21.52Z"/>
    <path class="cls-1" d="M298.34,361.66h13.45v25.28c0,5.19-3.22,8.86-9.67,11.03-2.98.99-6.56,1.03-10.61,1.03-3.63,0-6.89.07-9.9-.72-7.1-2.84-10.64-6.62-10.64-11.34v-25.28h13.54v21.65c0,3.94.52,6.87,7,6.87s6.74-3.06,6.74-7l.09-21.52Z"/>
    <path class="cls-1" d="M226.64,361.92h41.65v7.77l-20.35,18.28h20.35v10.18h-41.65v-8.75l19.88-18.03h-19.84l-.04-9.46h0Z"/>
    <path class="cls-1" d="M315.12,398.09v-36.23h13.35v13.41l14.39-13.41h16.71l-19.17,17.56,19.97,18.67h-18.02l-13.75-12.96.13,12.96h-13.61Z"/>
    <path class="cls-1" d="M375.6,361.85v36.23h-13.32v-36.23h13.32Z"/>
  </g>
</svg>