<?xml version="1.0" encoding="UTF-8"?>
<svg id="Warstwa_1" data-name="Warstwa 1" xmlns="http://www.w3.org/2000/svg" viewBox="0 0 512 512">
  <defs>
    <style>
      .cls-1 {
        fill: #1d1d1b;
        fill-rule: evenodd;
        stroke-width: 0px;
      }
    </style>
  </defs>
  <path class="cls-1" d="M417.02,399.31s0,.32,0-62.4h-25.75c0,62.71,0,62.4,0,62.4h25.75Z"/>
  <path class="cls-1" d="M280.69,373.4v-35.54h-24.96v27.17c0,7.9-.32,10.11-.79,12.16-1.74,5.69-7.74,8.21-13.9,8.21-8.53,0-12.48-3.32-14.06-8.53-.47-1.74-.63-3.63-.79-5.53-.16-2.05,0-4.26,0-6.63v-26.85h-25.27v35.7c0,8.06,2.69,14.06,7.11,18.17,7.58,7.42,20.38,9.64,32.22,9.64,14.38,0,25.43-2.05,33.33-9.79,4.11-3.95,7.11-9.16,7.11-18.17h0Z"/>
  <path class="cls-1" d="M158.11,368.98c-.79-.16-2.21-.32-3.79-.32h-28.43c-1.42,0-3,.16-3.79.32.47-.47,1.42-1.42,2.37-2.69l12.8-21.17c1.74-2.84,2.53-4.74,2.84-5.53.32.79,1.11,2.69,2.84,5.69l13.11,21.33c.63.95,1.58,1.9,2.05,2.37h0ZM205.82,399.31l-56.87-85.3h-31.91l8.37,9.95c.16.16.47.32.79.47-.32.16-.63.32-.79.47l-49.6,74.4h28.75l7.74-12.8c.32-.63.47-1.26.47-1.58.32,0,1.11.32,1.9.32h51.34c.79,0,1.42-.16,1.74-.32,0,.32,0,.79.32,1.26l8.06,13.11h29.7Z"/>
  <path class="cls-1" d="M384.32,367.24c0-6.95-2.84-15.01-11.69-26.22l-21.33-27.01h-29.7l16.9,18.96c2.84,3.16,6.48,6,6.48,6-4.11-2.37-9.32-3.32-13.43-3.32-9.79,0-19.75,2.05-28.59,6.95-9.48,5.21-15.8,13.9-15.8,25.43,0,8.85,3.95,15.64,9,20.85,11.37,11.37,32.07,12.48,39.65,12.48,11.22,0,28.75-2.53,38.7-11.53,5.84-5.37,9.79-12.8,9.79-22.59h0ZM359.68,368.03c0,6.48-4.26,11.37-9.64,14.06-4.42,2.37-9.64,3-14.22,3s-9.95-.95-14.38-3.16c-5.37-2.68-9.48-7.9-9.48-13.58,0-6.79,5.21-12.16,11.37-14.85,3.79-1.74,8.37-2.37,12.01-2.37s8.53.47,12.48,2.05c7.11,3,11.85,8.69,11.85,14.85h0Z"/>
  <path class="cls-1" d="M408.84,110.64c-19.25,0-36.93,6.61-50.94,17.7-14.01-11.09-31.69-17.7-50.95-17.7s-36.94,6.62-50.95,17.7c-14.01-11.09-31.69-17.7-50.94-17.7s-36.94,6.62-50.95,17.7c-14.01-11.09-31.7-17.7-50.95-17.7-45.39,0-82.16,36.78-82.16,82.16s36.78,82.16,82.16,82.16c19.25,0,36.94-6.61,50.95-17.7,14,11.08,31.7,17.7,50.95,17.7s36.94-6.61,50.94-17.7c14.01,11.08,31.7,17.7,50.95,17.7s36.94-6.61,50.95-17.7c14.01,11.09,31.69,17.7,50.94,17.7,45.39,0,82.16-36.78,82.16-82.16s-36.78-82.16-82.16-82.16h0ZM140.67,243.84c-10.47,7.64-23.55,12.3-37.5,12.3-35.01,0-63.34-28.33-63.34-63.34s28.33-63.34,63.34-63.34c13.95,0,27.02,4.66,37.5,12.3-11.14,14.02-17.77,31.73-17.77,51.04s6.71,37.04,17.77,51.04h0ZM154.11,230.44c-7.8-10.53-12.4-23.53-12.4-37.63s4.58-27.1,12.4-37.64c7.81,10.54,12.4,23.51,12.4,37.64s-4.6,27.1-12.4,37.63h0ZM242.56,243.84c-10.51,7.74-23.49,12.28-37.55,12.28s-26.95-4.55-37.46-12.28c11.07-14,17.77-31.81,17.77-51.04s-6.63-37.02-17.77-51.04c10.51-7.73,23.41-12.28,37.46-12.28s27.04,4.54,37.55,12.28c-11.14,14.02-17.77,31.73-17.77,51.04s6.71,37.04,17.77,51.04h0ZM256,230.44c-7.8-10.53-12.4-23.53-12.4-37.63s4.58-27.1,12.4-37.64c7.81,10.54,12.4,23.51,12.4,37.64s-4.6,27.1-12.4,37.63h0ZM344.45,243.84c-10.51,7.74-23.49,12.28-37.55,12.28s-26.95-4.55-37.46-12.28c11.07-14,17.77-31.81,17.77-51.04s-6.63-37.02-17.77-51.04c10.51-7.73,23.41-12.28,37.46-12.28s27.04,4.54,37.55,12.28c-11.14,14.02-17.77,31.73-17.77,51.04s6.71,37.04,17.77,51.04h0ZM357.89,230.44c-7.8-10.53-12.4-23.53-12.4-37.63s4.58-27.1,12.4-37.64c7.81,10.54,12.4,23.51,12.4,37.64s-4.6,27.1-12.4,37.63h0ZM408.84,256.15c-13.95,0-27.03-4.66-37.5-12.3,11.06-14,17.77-31.81,17.77-51.04s-6.63-37.02-17.77-51.04c10.48-7.64,23.55-12.3,37.5-12.3,35.01,0,63.34,28.33,63.34,63.34s-28.33,63.34-63.34,63.34h0Z"/>
</svg>