<?xml version="1.0" encoding="UTF-8"?>
<svg id="Warstwa_1" data-name="Warstwa 1" xmlns="http://www.w3.org/2000/svg" viewBox="0 0 512 512">
  <defs>
    <style>
      .cls-1 {
        stroke: #12100c;
      }

      .cls-1, .cls-2 {
        fill: #000;
        stroke-width: 0px;
      }

      .cls-2 {
        fill-rule: evenodd;
      }
    </style>
  </defs>
  <path class="cls-2" d="M255.26,369.73c-.06-17.29,13.87-31.23,31.27-31.27,16.99.04,30.94,13.98,31.27,31.27-.33,17.08-14.28,31.03-31.27,31.27-17.4-.24-31.33-14.19-31.27-31.27h0ZM286.53,389.48c9.39-.15,17.18-8.97,17.28-19.75-.1-10.99-7.88-19.83-17.28-19.75-9.79-.07-17.58,8.76-17.28,19.75-.3,10.77,7.49,19.6,17.28,19.75h0Z"/>
  <polygon class="cls-2" points="353.18 351.62 353.18 399.35 340.03 399.35 340.03 351.62 321.09 351.62 321.09 340.93 371.29 340.93 371.29 351.62 353.18 351.62 353.18 351.62"/>
  <path class="cls-2" d="M386.91,386.18l-4.92,13.18h-15.63l24.69-58.42h16.45l23.87,58.42h-15.63l-4.94-13.18h-23.89ZM399.27,376.31h8.22l-8.22-21.39-8.22,21.39h8.22Z"/>
  <polygon class="cls-2" points="111.26 351.62 111.26 399.35 98.09 399.35 98.09 351.62 79.99 351.62 79.99 340.93 129.36 340.93 129.36 351.62 111.26 351.62 111.26 351.62"/>
  <path class="cls-2" d="M132.65,369.73c.02-17.29,13.95-31.23,31.26-31.27,17.08.04,31.02,13.98,31.27,31.27-.25,17.08-14.19,31.03-31.27,31.27-17.31-.24-31.24-14.19-31.26-31.27h0ZM163.92,389.48c9.5-.15,17.28-8.97,17.28-19.75s-7.78-19.83-17.28-19.75c-9.71-.07-17.49,8.76-17.27,19.75-.22,10.77,7.56,19.6,17.27,19.75h0Z"/>
  <polygon class="cls-2" points="224.82 399.35 231.39 399.35 231.39 377.13 254.44 340.93 239.64 340.93 224.82 365.61 210.83 340.93 195.19 340.93 218.24 377.13 218.24 399.35 224.82 399.35 224.82 399.35"/>
  <g>
    <path class="cls-2" d="M251.6,112.21c-86.49,0-156.61,44.68-156.61,99.78s70.12,99.78,156.61,99.78,156.61-44.68,156.61-99.78-70.12-99.78-156.61-99.78h0ZM135.56,172.5c4.31,18.03,35.66,33,78.09,38.69,0,.85-.01,1.7-.01,2.55,0,42.76,12.3,78.63,28.89,88.38-68.82-3.29-123.11-41.26-123.11-87.61,0-15.22,5.85-29.53,16.15-42.01h0ZM229.21,212.82c7.24.55,14.73.84,22.39.84s15.14-.29,22.39-.84c-1.03,31.71-10.66,56.57-22.39,56.57s-21.36-24.86-22.39-56.57h0ZM289.56,211.19c43.39-5.82,75.19-21.34,78.34-39.92,10.94,12.77,17.18,27.52,17.18,43.24,0,46.66-55.02,84.83-124.5,87.67,16.64-9.66,29-45.59,29-88.44,0-.85,0-1.7-.01-2.55h0ZM265.17,128.73c43.38,2.21,76.63,14.83,76.63,30.08,0,12.45-22.18,23.16-53.93,27.86-3.46-26.64-11.89-48.04-22.69-57.94h0ZM273.03,188.37c-6.87.56-14.04.86-21.43.86s-14.56-.3-21.43-.86c2.88-25.14,11.39-43.37,21.43-43.37s18.55,18.22,21.43,43.37h0ZM215.34,186.67c-31.76-4.71-53.93-15.41-53.93-27.86,0-5.14,3.79-9.99,10.47-14.24,7.84-3.95,16.37-7.33,25.44-10.06,11.69-2.98,25.59-5.01,40.72-5.78-10.8,9.91-19.23,31.3-22.69,57.94h0Z"/>
    <path class="cls-1" d="M251.6,112.21c-86.49,0-156.61,44.68-156.61,99.78s70.12,99.78,156.61,99.78,156.61-44.68,156.61-99.78-70.12-99.78-156.61-99.78h0ZM135.56,172.5c4.31,18.03,35.66,33,78.09,38.69,0,.85-.01,1.7-.01,2.55,0,42.76,12.3,78.63,28.89,88.38-68.82-3.29-123.11-41.26-123.11-87.61,0-15.22,5.85-29.53,16.15-42.01h0ZM229.21,212.82c7.24.55,14.73.84,22.39.84s15.14-.29,22.39-.84c-1.03,31.71-10.66,56.57-22.39,56.57s-21.36-24.86-22.39-56.57h0ZM289.56,211.19c43.39-5.82,75.19-21.34,78.34-39.92,10.94,12.77,17.18,27.52,17.18,43.24,0,46.66-55.02,84.83-124.5,87.67,16.64-9.66,29-45.59,29-88.44,0-.85,0-1.7-.01-2.55h0ZM265.17,128.73c43.38,2.21,76.63,14.83,76.63,30.08,0,12.45-22.18,23.16-53.93,27.86-3.46-26.64-11.89-48.04-22.69-57.94h0ZM273.03,188.37c-6.87.56-14.04.86-21.43.86s-14.56-.3-21.43-.86c2.88-25.14,11.39-43.37,21.43-43.37s18.55,18.22,21.43,43.37h0ZM215.34,186.67c-31.76-4.71-53.93-15.41-53.93-27.86,0-5.14,3.79-9.99,10.47-14.24,7.84-3.95,16.37-7.33,25.44-10.06,11.69-2.98,25.59-5.01,40.72-5.78-10.8,9.91-19.23,31.3-22.69,57.94h0Z"/>
  </g>
</svg>