<?xml version="1.0" encoding="UTF-8"?>
<svg id="Warstwa_1" data-name="Warstwa 1" xmlns="http://www.w3.org/2000/svg" viewBox="0 0 512 512">
  <defs>
    <style>
      .cls-1 {
        fill: #1d1d1b;
        fill-rule: evenodd;
        stroke-width: 0px;
      }
    </style>
  </defs>
  <path class="cls-1" d="M255.74,111c-79.53,0-144,64.47-144,144s64.47,144,144,144,144-64.47,144-144-64.47-144-144-144h0ZM255.74,386.09c-72.4,0-131.09-58.69-131.09-131.09s58.69-131.09,131.09-131.09,131.09,58.69,131.09,131.09-58.69,131.09-131.09,131.09h0Z"/>
  <path class="cls-1" d="M227.04,157.06c9.1-2.66,18.73-4.09,28.7-4.09s19.57,1.42,28.67,4.08h0l-28.67,63.55-28.7-63.54h0Z"/>
  <path class="cls-1" d="M310.51,168.9c10.75,6.85,20.13,15.67,27.64,25.93h0l-47.05,104.12-18.16-40.37h-34.4l-18.16,40.37-46.98-104.22h0c7.5-10.23,16.85-19,27.57-25.83h0l37.57,83.35h34.52l37.45-83.35h0Z"/>
  <path class="cls-1" d="M157.16,228.59c-2.25,8.42-3.45,17.28-3.45,26.41,0,39.98,23,74.6,56.49,91.33h0l-53.04-117.74h0Z"/>
  <path class="cls-1" d="M227.51,353.08c8.96,2.58,18.43,3.96,28.23,3.96s19.24-1.38,28.19-3.94h0l-28.19-62.61-28.23,62.6h0Z"/>
  <path class="cls-1" d="M301.28,346.33c33.49-16.73,56.49-51.35,56.49-91.33,0-9.05-1.18-17.83-3.39-26.18h0l-53.1,117.51h0Z"/>
</svg>