<?xml version="1.0" encoding="UTF-8"?>
<svg id="Warstwa_1" data-name="Warstwa 1" xmlns="http://www.w3.org/2000/svg" xmlns:xlink="http://www.w3.org/1999/xlink" viewBox="0 0 512 512">
  <defs>
    <style>
      .cls-1 {
        fill: url(#linear-gradient);
      }

      .cls-1, .cls-2, .cls-3, .cls-4, .cls-5 {
        stroke-miterlimit: 3.86;
      }

      .cls-1, .cls-2, .cls-5 {
        stroke: #b1b1b1;
      }

      .cls-2, .cls-6, .cls-7, .cls-8 {
        fill-rule: evenodd;
      }

      .cls-2, .cls-4, .cls-5 {
        fill: none;
      }

      .cls-3 {
        fill: url(#linear-gradient-2);
        stroke: #fff;
      }

      .cls-6 {
        fill: #28367b;
      }

      .cls-6, .cls-9, .cls-7, .cls-8, .cls-10 {
        stroke-width: 0px;
      }

      .cls-4 {
        stroke: #575756;
      }

      .cls-9, .cls-7 {
        fill: gray;
      }

      .cls-8, .cls-10 {
        fill: #fff;
      }
    </style>
    <linearGradient id="linear-gradient" x1="112.69" y1="255.85" x2="398.98" y2="255.85" gradientTransform="translate(255.85 -105.97) rotate(45)" gradientUnits="userSpaceOnUse">
      <stop offset="0" stop-color="#ececec"/>
      <stop offset="1" stop-color="#6f6f6e"/>
    </linearGradient>
    <linearGradient id="linear-gradient-2" x1="275.43" y1="366.99" x2="236.24" y2="144.71" gradientUnits="userSpaceOnUse">
      <stop offset="0" stop-color="#d9d9d9"/>
      <stop offset="1" stop-color="#575756"/>
    </linearGradient>
  </defs>
  <circle class="cls-1" cx="255.84" cy="255.85" r="143.15" transform="translate(-105.98 255.84) rotate(-45)"/>
  <circle class="cls-3" cx="255.84" cy="255.85" r="112.84"/>
  <circle class="cls-10" cx="255.84" cy="255.85" r="91.06" transform="translate(-2.42 509.26) rotate(-89.46)"/>
  <polygon class="cls-9" points="372.77 116.56 402.42 146.22 356.33 192.31 326.67 162.65 372.77 116.56 372.77 116.56"/>
  <g>
    <line class="cls-9" x1="326.67" y1="162.65" x2="372.77" y2="116.56"/>
    <line class="cls-5" x1="326.67" y1="162.65" x2="372.77" y2="116.56"/>
  </g>
  <line class="cls-4" x1="402.42" y1="146.22" x2="356.33" y2="192.31"/>
  <g>
    <path class="cls-7" d="M404.72,188.97c-16.93-35.87-38.68-60.14-72.72-76.36l72.57.09.14,76.27Z"/>
    <path class="cls-2" d="M404.72,188.97c-16.93-35.87-38.68-60.14-72.72-76.36l72.57.09.14,76.27Z"/>
  </g>
  <path class="cls-6" d="M108.33,255.85c0-12.65,1.04-22.68,4.6-36.63l286.01.68c3.41,13.71,4.4,23.55,4.4,35.95,0,13.95-1.26,24.99-5.55,40.25l-283.97-.25c-4.25-15.16-5.49-26.13-5.49-40Z"/>
  <g>
    <path class="cls-8" d="M275.7,258.86c0,5.33-4.21,10.09-9.55,10.09h-6.1c-.57-.01-1.02-.47-1.02-1.04v-1.87s0-15.75,0-15.75l.02-2.12c0-.59.47-1.06,1.06-1.06l5.88.02v-6h-31.38v5.97h5.87s.34,0,.34,0c.72,0,1.31.59,1.31,1.3v19.79c0,.41-.33.74-.73.74h-6.79s0,5.96,0,5.96h47.13v-16.04h-6.05Z"/>
    <path class="cls-8" d="M280.77,247.35c-.14-.15-.35-.24-.57-.24h-7.02v-5.98h33.8v6h-6.13c-.4,0-.72.33-.72.72l10.1,17.06,9.5-17.27c0-.28-.22-.51-.51-.51h-5.54v-6h23.76v6h-6.83c-.2,0-.38.06-.55.14l-14.98,27.6h-18.54l-15.76-27.52h0Z"/>
    <path class="cls-8" d="M132.94,247.35c-.15-.15-.36-.24-.57-.24h-7.02v-5.98h33.8v6h-6.13c-.4,0-.72.33-.72.72l10.09,17.06,9.51-17.27c0-.28-.23-.51-.51-.51h-5.55v-6h23.75v6h-6.83c-.2,0-.39.06-.55.14l-14.98,27.6h-18.53l-15.76-27.52h0Z"/>
    <path class="cls-8" d="M185.6,258.11c0-9.37,10.65-16.97,23.79-16.97s23.78,7.6,23.78,16.97-10.65,16.97-23.78,16.97-23.79-7.6-23.79-16.97h0ZM213.89,267.78c1.99-2.14,3.38-5.72,3.38-9.67,0-3.38-.86-6.58-2.5-8.64-1.17-1.47-3.03-2.48-5.06-2.48-1.68,0-3.23.68-4.38,1.75-.24.23-.47.47-.67.72-1.64,2.06-2.5,5.26-2.5,8.64,0,3.68,1.43,7.29,3.2,9.46.91,1.11,2.81,1.75,4.36,1.75s3.07-.63,4.18-1.55h0Z"/>
    <path class="cls-8" d="M333.6,258.02c0-9.37,10.65-16.97,23.79-16.97s23.79,7.6,23.79,16.97-10.65,16.96-23.79,16.96-23.79-7.6-23.79-16.96h0ZM361.89,267.7c1.98-2.15,3.37-5.72,3.37-9.67,0-3.38-.86-6.58-2.5-8.64-1.17-1.47-3.03-2.48-5.05-2.48-1.68,0-3.23.68-4.39,1.75-.24.23-.47.47-.67.73-1.64,2.06-2.5,5.26-2.5,8.64,0,3.68,1.43,7.28,3.21,9.46.9,1.11,2.81,1.76,4.36,1.76s3.06-.62,4.18-1.55h0Z"/>
  </g>
</svg>