<?xml version="1.0" encoding="UTF-8"?>
<svg id="Warstwa_1" data-name="Warstwa 1" xmlns="http://www.w3.org/2000/svg" viewBox="0 0 512 512">
  <defs>
    <style>
      .cls-1 {
        fill: #000;
        stroke-width: 0px;
      }
    </style>
  </defs>
  <g id="Volvo_Iron_Mark" data-name="Volvo Iron Mark">
    <g>
      <path class="cls-1" d="M242.74,265.9h34.95v-11.67h-3.84c0,4.46-3.26,7.75-8.25,7.75h-5.38v-17.42h5.8v-3.86h-23.29v3.86h5.87v17.42s-5.87,0-5.87,0v3.91h0Z"/>
      <polygon class="cls-1" points="294.5 265.92 308.1 265.93 319.64 244.58 325.43 244.58 325.43 240.72 308.02 240.72 308.02 244.58 313.06 244.58 304.64 260.13 296.12 244.58 302.23 244.58 302.23 240.72 276.98 240.72 276.97 244.58 282.76 244.58 294.5 265.92"/>
      <polygon class="cls-1" points="173.14 240.72 147.89 240.72 147.88 244.58 153.66 244.58 165.41 265.92 179 265.93 190.54 244.58 196.33 244.58 196.33 240.72 178.93 240.72 178.93 244.58 183.95 244.58 175.55 260.13 167.03 244.58 173.14 244.58 173.14 240.72"/>
      <path class="cls-1" d="M199.71,253.34c0,7.42,5.98,13.33,17.97,13.33s17.9-5.9,17.9-13.33-6.27-13.16-17.98-13.16c-11.68,0-17.89,5.84-17.89,13.16ZM223.85,253.41c-.08,4.58-1.98,9.35-6.36,9.27-4.27-.08-6.15-4.79-6.07-9.49.09-4.86,2.41-9.09,6.41-9.03,4,.06,6.11,4.39,6.02,9.25Z"/>
      <path class="cls-1" d="M328.77,253.34c0,7.42,5.98,13.33,17.97,13.33s17.9-5.9,17.9-13.33-6.27-13.16-17.97-13.16c-11.69,0-17.9,5.84-17.9,13.16ZM346.89,244.16c3.99.08,6.11,4.39,6.02,9.25-.09,4.58-1.98,9.35-6.36,9.27-4.27-.08-6.15-4.79-6.07-9.49.09-4.87,2.41-9.11,6.41-9.03Z"/>
    </g>
    <path class="cls-1" d="M375.28,173.18l-14.63,14.63c12.54,19.35,19.83,42.41,19.83,67.19,0,68.31-55.38,123.7-123.7,123.7s-123.7-55.38-123.7-123.7,55.38-123.7,123.7-123.7c24.83,0,47.95,7.32,67.33,19.92l14.63-14.63c-23.26-16.13-51.51-25.59-81.96-25.59-79.52,0-144,64.46-144,144s64.46,144,144,144,144-64.46,144-144c-.01-30.4-9.44-58.58-25.5-81.82Z"/>
    <path class="cls-1" d="M329.21,116.66v4.04c8.74,4.73,16.95,10.32,24.56,16.59l-20.52,20.52c7.74,6.07,14.73,13.06,20.81,20.79l20.49-20.49c6.29,7.63,11.87,15.85,16.6,24.46h3.94v-65.9h-65.89Z"/>
  </g>
</svg>