<?xml version="1.0" encoding="UTF-8"?><svg xmlns="http://www.w3.org/2000/svg" xmlns:xlink="http://www.w3.org/1999/xlink" viewBox="0 0 1757.29 280.97"><defs><style>.cls-1{fill:url(#Gradient_bez_nazwy_7);}.cls-1,.cls-2,.cls-3,.cls-4,.cls-5,.cls-6,.cls-7,.cls-8,.cls-9,.cls-10,.cls-11,.cls-12,.cls-13,.cls-14,.cls-15,.cls-16,.cls-17,.cls-18,.cls-19,.cls-20,.cls-21,.cls-22,.cls-23,.cls-24,.cls-25,.cls-26,.cls-27,.cls-28,.cls-29,.cls-30,.cls-31,.cls-32,.cls-33,.cls-34,.cls-35,.cls-36,.cls-37,.cls-38,.cls-39{stroke-width:0px;}.cls-2{fill:url(#Gradient_bez_nazwy_7-8);}.cls-3{fill:url(#Gradient_bez_nazwy_7-3);}.cls-4{fill:url(#Gradient_bez_nazwy_7-29);}.cls-5{fill:url(#Gradient_bez_nazwy_7-13);}.cls-6{fill:url(#Gradient_bez_nazwy_7-2);}.cls-7{fill:url(#Gradient_bez_nazwy_7-9);}.cls-8{fill:#d6af70;}.cls-8,.cls-20,.cls-24,.cls-33{fill-rule:evenodd;}.cls-9{fill:url(#Gradient_bez_nazwy_7-26);}.cls-40{clip-path:url(#clippath-2);}.cls-10{fill:url(#Gradient_bez_nazwy_7-19);}.cls-11{fill:url(#Gradient_bez_nazwy_7-24);}.cls-12{fill:url(#Gradient_bez_nazwy_7-11);}.cls-13{fill:url(#Gradient_bez_nazwy_7-28);}.cls-15{fill:url(#Gradient_bez_nazwy_7-14);}.cls-41{clip-path:url(#clippath-6);}.cls-16{fill:url(#Gradient_bez_nazwy_7-18);}.cls-17{fill:url(#Gradient_bez_nazwy_7-10);}.cls-42{clip-path:url(#clippath-7);}.cls-43{clip-path:url(#clippath-1);}.cls-44{clip-path:url(#clippath-4);}.cls-18{clip-rule:evenodd;fill:none;}.cls-19{fill:url(#Gradient_bez_nazwy_4);}.cls-20{fill:#dfbc7a;}.cls-21{fill:url(#Gradient_bez_nazwy_7-5);}.cls-22{fill:url(#Gradient_bez_nazwy_7-20);}.cls-23{fill:url(#Gradient_bez_nazwy_7-22);}.cls-24{fill:#c9a663;}.cls-25{fill:url(#Gradient_bez_nazwy_7-23);}.cls-26{fill:url(#Gradient_bez_nazwy_7-7);}.cls-27{fill:url(#Gradient_bez_nazwy_7-21);}.cls-28{fill:url(#Gradient_bez_nazwy_7-25);}.cls-45{clip-path:url(#clippath);}.cls-29{fill:url(#Gradient_bez_nazwy_7-4);}.cls-30{fill:url(#Gradient_bez_nazwy_7-12);}.cls-46{clip-path:url(#clippath-3);}.cls-31{fill:url(#Gradient_bez_nazwy_7-17);}.cls-32{fill:url(#Gradient_bez_nazwy_2);}.cls-33{fill:#a4833b;}.cls-34{fill:url(#Gradient_bez_nazwy_7-6);}.cls-47{clip-path:url(#clippath-5);}.cls-35{fill:url(#Gradient_bez_nazwy_7-27);}.cls-36{fill:url(#Gradient_bez_nazwy_7-15);}.cls-37{fill:url(#Gradient_bez_nazwy_7-16);}.cls-38{fill:url(#Gradient_bez_nazwy_2-2);}.cls-39{fill:url(#Gradient_bez_nazwy_7-30);}</style><clipPath id="clippath"><path class="cls-18" d="M464.28,198.27c14.28,11.98,23.71,27.09,20.42,52.18l-7.73.32c1.2-3.97,1.85-8.19,1.85-12.56,0-17.13-9.96-31.91-24.34-38.73l9.8-1.22Z"/></clipPath><linearGradient id="Gradient_bez_nazwy_2" x1="458.22" y1="202.51" x2="484.35" y2="246.72" gradientUnits="userSpaceOnUse"><stop offset="0" stop-color="#a4833b"/><stop offset=".5" stop-color="#c9a663"/><stop offset="1" stop-color="#dfbc7a"/></linearGradient><clipPath id="clippath-1"><path class="cls-18" d="M412.59,201.26c-12.89,13.66-18.49,28.99-14.92,46.37h-159.33c.34-2.05.51-4.15.51-6.29,0-18.56-13.18-34.35-31.61-40.26l205.34.18Z"/></clipPath><linearGradient id="Gradient_bez_nazwy_2-2" x1="308.74" y1="200.64" x2="311.13" y2="248.67" xlink:href="#Gradient_bez_nazwy_2"/><clipPath id="clippath-2"><path class="cls-18" d="M47.75,233.63h41.81c2.9,0,5.28,2.38,5.28,5.28s-2.38,5.28-5.28,5.28h-41.81c-2.9,0-5.28-2.38-5.28-5.28s2.38-5.28,5.28-5.28M112.78,233.63h14.25v9.44h-14.25v-9.44ZM13.78,233.63h14.25v9.44h-14.25v-9.44ZM205.25,156.5v22.75c-36.32-1.06-51.06,27.74-51.56,70.25l-153.69.25.5-26.25,141.84.09c4.15-25.95,6.01-39.25,13.1-45.71,7.55-6.89,20.94-9,49.81-21.38Z"/></clipPath><linearGradient id="Gradient_bez_nazwy_7" x1="204.99" y1="208.58" x2=".26" y2="197.67" gradientUnits="userSpaceOnUse"><stop offset="0" stop-color="#a4833b"/><stop offset="1" stop-color="#dfbc7a"/></linearGradient><clipPath id="clippath-3"><path class="cls-18" d="M499.92,187.15l-258.92-1.06-.25-186.1c-25.69,4.79-49.33,7.85-72.12,11.75-56.98,9.74-91.82,12.56-127.13,56.25l113-2.87c13.18-18.37,28.57-34.29,47.75-46l.25,48,13.66-.11-.6,122.25-26.34.09c-6.19,2.35-10,6.71-11.35,11.84l54.06.45h267.99v-14.49Z"/></clipPath><linearGradient id="Gradient_bez_nazwy_4" x1="498.95" y1="120.88" x2="38.99" y2="80.45" gradientUnits="userSpaceOnUse"><stop offset="0" stop-color="#a4833b"/><stop offset=".35" stop-color="#dfbc7a"/><stop offset=".63" stop-color="#a4833b"/><stop offset="1" stop-color="#dfbc7a"/></linearGradient><clipPath id="clippath-4"><path class="cls-18" d="M20.62,189.75l76.25.12c-1.08,12.27-3.75,24.83-11.5,26l-58,.25c-5.64-1.5-6.83-13.34-6.75-26.38"/></clipPath><clipPath id="clippath-5"><path class="cls-18" d="M165.87,83.75h35.38c2.85.08,3.47,3.02,3,6.62l-6.12,42.88-38.88,15.38c-3.22,1.2-6.46-.87-5.88-4.88l9.12-53.13c.79-2.44,1.21-6.21,3.38-6.87"/></clipPath><linearGradient id="Gradient_bez_nazwy_7-2" x1="204.38" y1="117.28" x2="153.3" y2="116.31" xlink:href="#Gradient_bez_nazwy_7"/><clipPath id="clippath-6"><path class="cls-18" d="M24.35,97.61L6.28,163.88l104.5-1.37c10.74-.33,21.16-1.96,22.75-7.88l10.97-61-120.15,3.98Z"/></clipPath><linearGradient id="Gradient_bez_nazwy_7-3" x1="144.36" y1="132.03" x2="6.41" y2="125.47" xlink:href="#Gradient_bez_nazwy_7"/><clipPath id="clippath-7"><path class="cls-18" d="M18.31,152.67c66.95,8.7,99.96-15.66,112.96-59.5l-98.77.79-14.19,58.71Z"/></clipPath><linearGradient id="Gradient_bez_nazwy_7-4" x1="60.15" y1="91.43" x2="86.99" y2="157.15" xlink:href="#Gradient_bez_nazwy_7"/><linearGradient id="Gradient_bez_nazwy_7-5" x1="610.59" y1="198.78" x2="1388.37" y2="114.33" xlink:href="#Gradient_bez_nazwy_7"/><linearGradient id="Gradient_bez_nazwy_7-6" x1="611.18" y1="204.22" x2="1388.96" y2="119.78" xlink:href="#Gradient_bez_nazwy_7"/><linearGradient id="Gradient_bez_nazwy_7-7" x1="611.59" y1="207.97" x2="1389.37" y2="123.53" xlink:href="#Gradient_bez_nazwy_7"/><linearGradient id="Gradient_bez_nazwy_7-8" x1="612.08" y1="212.48" x2="1389.86" y2="128.03" xlink:href="#Gradient_bez_nazwy_7"/><linearGradient id="Gradient_bez_nazwy_7-9" x1="612.61" y1="217.36" x2="1390.39" y2="132.92" xlink:href="#Gradient_bez_nazwy_7"/><linearGradient id="Gradient_bez_nazwy_7-10" x1="613.11" y1="221.94" x2="1390.88" y2="137.5" xlink:href="#Gradient_bez_nazwy_7"/><linearGradient id="Gradient_bez_nazwy_7-11" x1="613.67" y1="227.16" x2="1391.45" y2="142.71" xlink:href="#Gradient_bez_nazwy_7"/><linearGradient id="Gradient_bez_nazwy_7-12" x1="614.3" y1="232.89" x2="1392.07" y2="148.45" xlink:href="#Gradient_bez_nazwy_7"/><linearGradient id="Gradient_bez_nazwy_7-13" x1="614.7" y1="236.63" x2="1392.48" y2="152.19" xlink:href="#Gradient_bez_nazwy_7"/><linearGradient id="Gradient_bez_nazwy_7-14" x1="615.06" y1="239.96" x2="1392.84" y2="155.52" xlink:href="#Gradient_bez_nazwy_7"/><linearGradient id="Gradient_bez_nazwy_7-15" x1="615.43" y1="243.32" x2="1393.2" y2="158.87" xlink:href="#Gradient_bez_nazwy_7"/><linearGradient id="Gradient_bez_nazwy_7-16" x1="616.19" y1="250.35" x2="1393.97" y2="165.91" xlink:href="#Gradient_bez_nazwy_7"/><linearGradient id="Gradient_bez_nazwy_7-17" x1="616.71" y1="255.13" x2="1394.49" y2="170.69" xlink:href="#Gradient_bez_nazwy_7"/><linearGradient id="Gradient_bez_nazwy_7-18" x1="617.11" y1="258.78" x2="1394.88" y2="174.34" xlink:href="#Gradient_bez_nazwy_7"/><linearGradient id="Gradient_bez_nazwy_7-19" x1="617.49" y1="262.3" x2="1395.27" y2="177.86" xlink:href="#Gradient_bez_nazwy_7"/><linearGradient id="Gradient_bez_nazwy_7-20" x1="618.42" y1="270.85" x2="1396.19" y2="186.41" xlink:href="#Gradient_bez_nazwy_7"/><linearGradient id="Gradient_bez_nazwy_7-21" x1="618.31" y1="269.9" x2="1396.09" y2="185.46" xlink:href="#Gradient_bez_nazwy_7"/><linearGradient id="Gradient_bez_nazwy_7-22" x1="618.87" y1="275.02" x2="1396.65" y2="190.57" xlink:href="#Gradient_bez_nazwy_7"/><linearGradient id="Gradient_bez_nazwy_7-23" x1="619.32" y1="279.21" x2="1397.1" y2="194.76" xlink:href="#Gradient_bez_nazwy_7"/><linearGradient id="Gradient_bez_nazwy_7-24" x1="619.76" y1="283.2" x2="1397.53" y2="198.75" xlink:href="#Gradient_bez_nazwy_7"/><linearGradient id="Gradient_bez_nazwy_7-25" x1="1397.92" y1="97.85" x2="1470.61" y2="97.85" xlink:href="#Gradient_bez_nazwy_7"/><linearGradient id="Gradient_bez_nazwy_7-26" x1="1479.1" y1="97.85" x2="1501.81" y2="97.85" xlink:href="#Gradient_bez_nazwy_7"/><linearGradient id="Gradient_bez_nazwy_7-27" x1="1512.59" y1="97.85" x2="1582.5" y2="97.85" xlink:href="#Gradient_bez_nazwy_7"/><linearGradient id="Gradient_bez_nazwy_7-28" x1="1590.51" y1="129.62" x2="1613.38" y2="129.62" xlink:href="#Gradient_bez_nazwy_7"/><linearGradient id="Gradient_bez_nazwy_7-29" x1="1625.3" y1="97.85" x2="1692.44" y2="97.85" xlink:href="#Gradient_bez_nazwy_7"/><linearGradient id="Gradient_bez_nazwy_7-30" x1="1700.77" y1="97.85" x2="1757.29" y2="97.85" xlink:href="#Gradient_bez_nazwy_7"/></defs><g id="Warstwa_1"><path class="cls-33" d="M381.18,195.47c18.12,0,33.54,11.78,39.35,28.26-2.53,4.25-4.04,9.52-4.04,15.24s1.37,10.51,3.7,14.65c-6.05,16-21.23,27.35-39.01,27.35-23.09,0-41.81-19.14-41.81-42.75s18.72-42.75,41.81-42.75"/><g class="cls-45"><rect class="cls-32" x="454.48" y="198.27" width="33.5" height="52.51"/></g><g class="cls-43"><rect class="cls-38" x="207.25" y="201.09" width="205.34" height="46.55"/></g><path class="cls-24" d="M436.87,213.47c11.25,0,20.38,11.42,20.38,25.5s-9.12,25.5-20.38,25.5-20.38-11.42-20.38-25.5,9.12-25.5,20.38-25.5M430.1,195.47c23.33,0,42.25,19.14,42.25,42.75s-18.91,42.75-42.25,42.75-42.25-19.14-42.25-42.75,18.91-42.75,42.25-42.75Z"/><path class="cls-33" d="M508.49,136.09c-.01-4.4.04-9.13.05-13.66,0-2.22.17-4.96.09-7.09-.21-5.59.61-3.41-2.19-6.31-11.93.96-62.66-16.22-75.16-20.61-23.67-8.31-45.38-18.44-67.33-28.67-21.49-10.01-43.02-21.42-63.52-32.5-7.33-3.96-24.33-15.67-33.85-13.54-13.21,2.95-9.83,24.49-10.3,38.12,2.04-1.43-.16.14,1.85-1.47,4.04-3.24,7.74-5.65,14.06-4.95,4.88.53,38.15,18.84,44.29,21.85,9.79,4.8,19.22,9.53,29.23,14.74,9.39,4.88,19.51,8.96,29.4,13.62,30.84,14.53,94.43,36.81,133.36,40.47"/><path class="cls-24" d="M507.94,175.94c1.44-7.43.77-15.84.65-23.51-.23-.18-.57-.75-.68-.54l-2.38-1.86c-12.07,1.26-63.43-13.71-76.02-17.84-24.53-8.05-45.09-16.85-67.52-26.46l-62.94-31.05c-6.74-3.72-25.02-15.61-34.23-11.76-11.07,4.63-8.18,25.13-8.44,37.79,3.6-2.67,7.57-7.22,14.73-6.82,5.23.29,37.04,17.35,43.33,20.4,64.96,31.49,117.17,51.23,193.5,61.65"/><path class="cls-20" d="M256.44,160.46c6.75-13.94,6.58-24.35,31.5-12.68,29.57,13.85,50.68,25.9,84.33,26.32,14.9.19,41.71,1.65,55.35-.27-10.85.66-88.72-32.01-103.07-38.68l-47.78-23.25c-11.87-3.55-18.45,2.25-19.85,13.23-1.1,8.59-1.06,26.28-.48,35.33"/><path class="cls-24" d="M205.87,213.47c11.25,0,20.38,11.42,20.38,25.5s-9.12,25.5-20.38,25.5-20.38-11.42-20.38-25.5,9.12-25.5,20.38-25.5M196.47,195.47c24.51,0,44.38,19.14,44.38,42.75s-19.87,42.75-44.38,42.75c-16.66,0-31.17-8.85-38.76-21.93h1.71c8.95.17.72-37.74,15.27-54.49,2.32-2.67,4.67-4.86,7.02-6.66,4.62-1.57,9.58-2.42,14.76-2.42Z"/><path class="cls-33" d="M114.16,259.27c-7.62,12.96-22.07,21.7-38.63,21.7s-30.71-8.57-38.4-21.31l77.03-.39Z"/><g class="cls-40"><rect class="cls-1" y="156.5" width="205.25" height="93.25"/></g><g class="cls-46"><rect class="cls-19" x="41.5" width="458.42" height="201.64"/></g><path class="cls-20" d="M20.62,189.75l76.25.12c-1.08,12.27-3.75,24.83-11.5,26l-58,.25c-5.64-1.5-6.83-13.34-6.75-26.38"/><g class="cls-44"><path class="cls-24" d="M89.51,188.13c-7.18,15.28-20.09,25.68-39.94,30.12l44.06,2.75,11.88-21.38,2.69-14.94-18.69,3.44Z"/></g><g class="cls-47"><rect class="cls-6" x="152.79" y="83.75" width="51.94" height="66.08"/></g><g class="cls-41"><rect class="cls-3" x="6.28" y="93.63" width="138.22" height="70.25"/></g><g class="cls-42"><rect class="cls-29" x="18.31" y="93.17" width="112.96" height="68.2"/></g><path class="cls-33" d="M145.66,88.5c.74-3.95-1.43-7.04-6.41-7.12l-127.09,4.26c1.13,3.63,4.91,5.7,12.88,5.32l-.69,6.65,119.57-1.46,1.74-7.65Z"/><polygon class="cls-8" points="101.25 172.25 98.5 182.75 20 182.75 19.38 172.38 101.25 172.25"/></g><g id="Warstwa_3"><path class="cls-14" d="M588.02,139.67v-12.58l39.53-52.76h-39.37v-18.3h68.28v12.58l-39.53,52.76h39.37v18.3h-68.28Z"/><path class="cls-14" d="M689.3,139.67h-24.5l27.61-83.64h31.04l27.61,83.64h-24.5l-18.3-60.6h-.65l-18.3,60.6ZM684.73,106.67h46.07v16.99h-46.07v-16.99Z"/><path class="cls-14" d="M800.87,82.17c-.22-2.72-1.23-4.85-3.04-6.37-1.81-1.52-4.55-2.29-8.23-2.29-2.34,0-4.25.28-5.74.84-1.48.56-2.58,1.31-3.29,2.27-.71.95-1.08,2.04-1.1,3.27-.05,1.01.13,1.91.55,2.72.42.8,1.1,1.52,2.02,2.16.93.64,2.11,1.22,3.55,1.74,1.44.52,3.16.98,5.15,1.39l6.86,1.47c4.63.98,8.59,2.27,11.88,3.88,3.29,1.61,5.99,3.49,8.09,5.66,2.1,2.16,3.64,4.59,4.64,7.29.99,2.7,1.5,5.64,1.53,8.82-.03,5.5-1.4,10.16-4.12,13.97-2.72,3.81-6.61,6.71-11.66,8.7-5.05,1.99-11.11,2.98-18.19,2.98s-13.61-1.08-19.01-3.23c-5.4-2.15-9.6-5.47-12.58-9.94-2.98-4.48-4.49-10.22-4.51-17.21h21.56c.14,2.56.78,4.71,1.92,6.45,1.14,1.74,2.76,3.06,4.84,3.96,2.08.9,4.57,1.35,7.45,1.35,2.42,0,4.45-.3,6.08-.9,1.63-.6,2.87-1.43,3.72-2.49.84-1.06,1.28-2.27,1.31-3.63-.03-1.28-.44-2.4-1.25-3.37-.8-.97-2.12-1.84-3.94-2.61-1.82-.78-4.29-1.5-7.39-2.19l-8.33-1.8c-7.41-1.61-13.24-4.29-17.5-8.07-4.26-3.77-6.38-8.92-6.35-15.46-.03-5.31,1.4-9.96,4.27-13.95,2.87-3.99,6.86-7.1,11.97-9.33,5.1-2.23,10.97-3.35,17.58-3.35s12.59,1.13,17.52,3.39c4.93,2.26,8.73,5.44,11.41,9.54,2.68,4.1,4.04,8.88,4.06,14.35h-21.73Z"/><path class="cls-14" d="M830.11,74.33v-18.3h72.69v18.3h-25.16v65.34h-22.38v-65.34h-25.16Z"/><path class="cls-14" d="M911.3,139.67V56.03h60.28v18.3h-37.57v14.38h34.47v18.3h-34.47v14.38h37.41v18.3h-60.11Z"/><path class="cls-14" d="M982.84,139.67V56.03h36.1c6.21,0,11.64,1.23,16.29,3.68,4.66,2.45,8.28,5.89,10.86,10.33,2.59,4.44,3.88,9.62,3.88,15.56s-1.33,11.18-3.98,15.56c-2.65,4.38-6.37,7.76-11.15,10.13-4.78,2.37-10.35,3.55-16.72,3.55h-21.56v-17.64h16.99c2.67,0,4.95-.47,6.84-1.41,1.89-.94,3.35-2.28,4.37-4.02,1.02-1.74,1.53-3.8,1.53-6.17s-.51-4.44-1.53-6.15c-1.02-1.7-2.48-3.01-4.37-3.92-1.89-.91-4.17-1.37-6.84-1.37h-8v65.5h-22.71Z"/><path class="cls-14" d="M1136.39,87.4h-23.03c-.16-1.91-.59-3.63-1.29-5.19-.69-1.55-1.65-2.89-2.86-4.02-1.21-1.13-2.67-2-4.39-2.61-1.71-.61-3.66-.92-5.84-.92-3.81,0-7.03.93-9.66,2.78-2.63,1.85-4.62,4.51-5.96,7.96-1.35,3.46-2.02,7.61-2.02,12.46,0,5.12.69,9.4,2.06,12.84,1.38,3.44,3.37,6.03,5.98,7.76,2.61,1.73,5.76,2.59,9.43,2.59,2.1,0,3.97-.27,5.64-.8,1.66-.53,3.1-1.3,4.33-2.31,1.23-1.01,2.23-2.23,3-3.65.78-1.43,1.3-3.04,1.57-4.84l23.03.16c-.27,3.54-1.27,7.14-2.98,10.8-1.72,3.66-4.15,7.04-7.29,10.13-3.14,3.09-7.03,5.57-11.66,7.45-4.63,1.88-10,2.82-16.13,2.82-7.68,0-14.56-1.65-20.64-4.94-6.08-3.29-10.89-8.14-14.42-14.54-3.53-6.4-5.29-14.23-5.29-23.48s1.8-17.16,5.39-23.54c3.59-6.38,8.44-11.22,14.54-14.5,6.1-3.28,12.9-4.92,20.42-4.92,5.28,0,10.14.72,14.58,2.16,4.44,1.44,8.33,3.55,11.68,6.31,3.35,2.76,6.04,6.16,8.09,10.19s3.28,8.64,3.72,13.84Z"/><path class="cls-14" d="M1147.01,139.67v-12.58l39.53-52.76h-39.37v-18.3h68.28v12.58l-39.53,52.76h39.37v18.3h-68.28Z"/><path class="cls-14" d="M1248.29,139.67h-24.5l27.61-83.64h31.04l27.61,83.64h-24.5l-18.29-60.6h-.65l-18.3,60.6ZM1243.72,106.67h46.07v16.99h-46.07v-16.99Z"/><path class="cls-14" d="M1318.04,139.67V56.03h22.71v33.81h1.14l25.16-33.81h26.46l-28.26,37.24,28.91,46.39h-27.12l-18.79-31.36-7.51,9.8v21.56h-22.71Z"/><path class="cls-21" d="M604.35,214.85h-10.1v-29.82h10.31c2.96,0,5.51.59,7.64,1.78,2.13,1.19,3.77,2.89,4.91,5.12,1.15,2.22,1.72,4.88,1.72,7.98s-.57,5.78-1.73,8.01-2.81,3.95-4.96,5.14c-2.16,1.19-4.75,1.79-7.78,1.79ZM599.65,210.18h4.44c2.08,0,3.81-.38,5.2-1.14,1.39-.76,2.43-1.9,3.13-3.42.7-1.52,1.05-3.42,1.05-5.7s-.35-4.18-1.05-5.69c-.7-1.51-1.73-2.64-3.09-3.39-1.36-.75-3.06-1.13-5.07-1.13h-4.6v20.47Z"/><path class="cls-34" d="M637.26,214.85h-5.77l10.5-29.82h6.67l10.51,29.82h-5.77l-7.96-23.7h-.23l-7.95,23.7ZM637.45,203.16h15.72v4.34h-15.72v-4.34Z"/><path class="cls-26" d="M674.18,214.85v-29.82h11.18c2.29,0,4.21.4,5.77,1.19,1.56.8,2.74,1.91,3.54,3.34s1.2,3.1,1.2,5-.41,3.57-1.22,4.97c-.81,1.4-2,2.49-3.57,3.25-1.57.76-3.5,1.14-5.79,1.14h-7.96v-4.48h7.24c1.34,0,2.44-.19,3.29-.56.85-.37,1.49-.92,1.9-1.65s.62-1.61.62-2.67-.21-1.96-.63-2.72c-.42-.75-1.05-1.32-1.91-1.72-.85-.39-1.96-.59-3.31-.59h-4.95v25.3h-5.4ZM689.58,201.34l7.38,13.51h-6.03l-7.25-13.51h5.9Z"/><path class="cls-2" d="M711.92,185.03h6.61l8.85,21.61h.35l8.85-21.61h6.61v29.82h-5.18v-20.49h-.28l-8.24,20.4h-3.87l-8.24-20.44h-.28v20.53h-5.18v-29.82Z"/><path class="cls-7" d="M786.79,199.94c0,3.21-.6,5.96-1.8,8.25-1.2,2.29-2.83,4.04-4.89,5.25-2.06,1.21-4.4,1.82-7.01,1.82s-4.95-.61-7.01-1.83-3.69-2.97-4.89-5.26c-1.2-2.29-1.8-5.03-1.8-8.23s.6-5.96,1.8-8.25c1.2-2.29,2.83-4.04,4.89-5.25s4.4-1.82,7.01-1.82,4.95.61,7.01,1.82,3.69,2.96,4.89,5.25c1.2,2.29,1.8,5.04,1.8,8.25ZM781.36,199.94c0-2.26-.35-4.17-1.06-5.73-.7-1.56-1.68-2.74-2.92-3.54-1.24-.8-2.67-1.2-4.29-1.2s-3.05.4-4.3,1.2-2.22,1.98-2.92,3.54c-.7,1.56-1.06,3.47-1.06,5.73s.35,4.17,1.06,5.73c.7,1.56,1.68,2.74,2.92,3.54s2.67,1.2,4.3,1.2,3.05-.4,4.29-1.2c1.24-.8,2.22-1.98,2.92-3.54.7-1.56,1.06-3.47,1.06-5.73Z"/><path class="cls-17" d="M808.52,214.85l-8.42-29.82h5.81l5.37,21.91h.28l5.74-21.91h5.29l5.75,21.93h.26l5.37-21.93h5.81l-8.42,29.82h-5.33l-5.97-20.92h-.23l-5.98,20.92h-5.33Z"/><path class="cls-12" d="M854.59,214.85v-29.82h19.39v4.53h-13.99v8.1h12.99v4.53h-12.99v8.14h14.11v4.53h-19.51Z"/><path class="cls-30" d="M910.51,189.56v-4.53h23.79v4.53h-9.22v25.29h-5.36v-25.29h-9.22Z"/><path class="cls-5" d="M955.34,185.03v29.82h-5.4v-29.82h5.4Z"/><path class="cls-15" d="M972.28,214.85v-29.82h11.18c2.29,0,4.21.4,5.77,1.19,1.56.8,2.74,1.91,3.54,3.34s1.2,3.1,1.2,5-.41,3.57-1.22,4.97c-.81,1.4-2,2.49-3.57,3.25-1.57.76-3.5,1.14-5.79,1.14h-7.96v-4.48h7.24c1.34,0,2.44-.19,3.29-.56.85-.37,1.49-.92,1.9-1.65.41-.72.62-1.61.62-2.67s-.21-1.96-.63-2.72c-.42-.75-1.05-1.32-1.91-1.72-.85-.39-1.96-.59-3.3-.59h-4.95v25.3h-5.4ZM987.68,201.34l7.38,13.51h-6.03l-7.25-13.51h5.9Z"/><path class="cls-36" d="M1006.83,185.03h6.1l7.29,13.19h.29l7.29-13.19h6.1l-10.85,18.69v11.12h-5.39v-11.12l-10.85-18.69Z"/><path class="cls-37" d="M1069.52,214.85v-3.36l15.29-21.93h-15.38v-4.53h22.07v3.36l-15.27,21.93h15.36v4.53h-22.07Z"/><path class="cls-31" d="M1111.73,214.85h-5.77l10.5-29.82h6.67l10.51,29.82h-5.77l-7.96-23.7h-.23l-7.95,23.7ZM1111.92,203.16h15.72v4.34h-15.72v-4.34Z"/><path class="cls-16" d="M1164.38,193.23c-.14-1.27-.71-2.26-1.71-2.97-1-.71-2.31-1.06-3.91-1.06-1.13,0-2.09.17-2.9.51s-1.42.8-1.85,1.38-.65,1.25-.66,1.99c0,.62.14,1.16.43,1.62.29.46.68.84,1.17,1.16.5.32,1.04.58,1.65.79s1.21.39,1.82.54l2.79.7c1.13.26,2.21.62,3.25,1.06,1.04.45,1.98,1.01,2.81,1.69s1.49,1.5,1.97,2.46.73,2.09.73,3.38c0,1.75-.45,3.28-1.34,4.61-.89,1.32-2.18,2.36-3.87,3.1-1.68.74-3.72,1.11-6.11,1.11s-4.33-.36-6.04-1.08c-1.7-.72-3.03-1.77-3.99-3.14-.96-1.38-1.47-3.06-1.55-5.04h5.31c.08,1.04.4,1.9.96,2.59.56.69,1.3,1.2,2.21,1.54.91.34,1.92.51,3.05.51s2.21-.18,3.09-.53c.89-.36,1.58-.85,2.09-1.49.5-.63.76-1.38.77-2.23,0-.78-.24-1.42-.68-1.93-.45-.51-1.07-.94-1.87-1.28-.8-.34-1.74-.65-2.8-.92l-3.39-.87c-2.46-.63-4.39-1.59-5.82-2.88-1.42-1.29-2.13-3-2.13-5.13,0-1.76.48-3.3,1.43-4.62.96-1.32,2.26-2.35,3.91-3.08s3.52-1.1,5.61-1.1,3.97.37,5.57,1.1,2.85,1.75,3.76,3.04c.91,1.3,1.38,2.78,1.41,4.46h-5.2Z"/><path class="cls-10" d="M1184.56,189.56v-4.53h23.79v4.53h-9.22v25.29h-5.36v-25.29h-9.22Z"/><path class="cls-22" d="M1223.99,214.85v-29.82h19.39v4.53h-13.99v8.1h12.99v4.53h-12.99v8.14h14.11v4.53h-19.51ZM1240.67,223.32c-1.25,0-2.3-.33-3.14-.99-.84-.66-1.33-1.61-1.48-2.85-.11-.76-.04-1.52.19-2.3.23-.78.65-1.5,1.25-2.17s1.4-1.23,2.39-1.69l3.6,1.53c-.9.5-1.66,1.04-2.27,1.6-.61.56-.92,1.22-.92,1.98,0,.47.11.83.34,1.08.23.25.59.38,1.1.38.37,0,.69-.05.97-.15.28-.1.51-.18.71-.26l.52,2.97c-.35.2-.8.4-1.34.59-.54.19-1.18.28-1.92.28Z"/><path class="cls-27" d="M1259.97,214.85v-29.82h11.18c2.29,0,4.21.43,5.77,1.28,1.56.85,2.74,2.03,3.54,3.52s1.2,3.18,1.2,5.07-.4,3.61-1.21,5.1c-.81,1.49-2,2.65-3.57,3.5s-3.51,1.27-5.81,1.27h-7.41v-4.44h6.68c1.34,0,2.44-.23,3.29-.7.85-.47,1.49-1.11,1.9-1.92.41-.82.62-1.75.62-2.81s-.21-1.99-.62-2.79c-.41-.81-1.05-1.43-1.91-1.89-.86-.45-1.96-.68-3.31-.68h-4.95v25.3h-5.4Z"/><path class="cls-23" d="M1322.94,195.09h-5.45c-.16-.89-.44-1.69-.86-2.38-.42-.69-.94-1.28-1.56-1.77s-1.33-.85-2.12-1.1-1.64-.37-2.55-.37c-1.62,0-3.06.41-4.31,1.22-1.25.81-2.23,1.99-2.94,3.55-.71,1.56-1.06,3.46-1.06,5.7s.36,4.2,1.07,5.76c.71,1.56,1.69,2.73,2.94,3.52,1.25.79,2.68,1.19,4.29,1.19.89,0,1.73-.12,2.51-.36s1.49-.59,2.11-1.06,1.16-1.04,1.59-1.72c.43-.68.73-1.46.9-2.33l5.45.03c-.2,1.42-.64,2.75-1.32,3.99s-1.56,2.34-2.64,3.28c-1.09.95-2.36,1.68-3.81,2.21-1.46.53-3.07.79-4.85.79-2.62,0-4.96-.61-7.02-1.82-2.06-1.21-3.68-2.97-4.86-5.26-1.18-2.29-1.78-5.04-1.78-8.24s.6-5.96,1.79-8.25c1.19-2.29,2.82-4.04,4.88-5.25,2.06-1.21,4.39-1.82,6.99-1.82,1.66,0,3.2.23,4.63.7s2.7,1.15,3.81,2.04c1.12.9,2.04,2,2.76,3.29.72,1.3,1.2,2.77,1.42,4.43Z"/><path class="cls-25" d="M1338.42,214.85v-3.36l15.29-21.93h-15.38v-4.53h22.07v3.36l-15.27,21.93h15.36v4.53h-22.07Z"/><path class="cls-11" d="M1376.81,214.85v-29.82h19.39v4.53h-13.99v8.1h12.99v4.53h-12.99v8.14h14.11v4.53h-19.51Z"/><path class="cls-28" d="M1397.92,74.33v-18.3h72.69v18.3h-25.16v65.34h-22.38v-65.34h-25.16Z"/><path class="cls-9" d="M1501.81,56.03v83.64h-22.71V56.03h22.71Z"/><path class="cls-35" d="M1512.59,139.67V56.03h36.1c6.21,0,11.64,1.13,16.29,3.39,4.66,2.26,8.28,5.51,10.86,9.76,2.59,4.25,3.88,9.34,3.88,15.27s-1.33,11.04-3.98,15.15c-2.65,4.11-6.37,7.21-11.15,9.31-4.78,2.1-10.35,3.14-16.72,3.14h-21.56v-17.64h16.99c2.67,0,4.95-.33,6.84-1,1.89-.67,3.35-1.74,4.37-3.21,1.02-1.47,1.53-3.39,1.53-5.76s-.51-4.35-1.53-5.86c-1.02-1.51-2.48-2.63-4.37-3.35-1.89-.72-4.17-1.08-6.84-1.08h-8v65.5h-22.71ZM1561.59,101.28l20.91,38.39h-24.67l-20.42-38.39h24.18Z"/><path class="cls-13" d="M1601.94,140.97c-3.16,0-5.86-1.11-8.11-3.33s-3.36-4.92-3.33-8.11c-.03-3.1,1.08-5.76,3.33-7.96s4.95-3.31,8.11-3.31c2.99,0,5.64,1.1,7.94,3.31,2.3,2.21,3.46,4.86,3.49,7.96-.03,2.12-.58,4.05-1.65,5.78-1.08,1.73-2.47,3.1-4.19,4.12s-3.58,1.53-5.59,1.53Z"/><path class="cls-4" d="M1625.3,139.67V56.03h36.1c6.21,0,11.64,1.23,16.29,3.68,4.66,2.45,8.28,5.89,10.86,10.33,2.59,4.44,3.88,9.62,3.88,15.56s-1.33,11.18-3.98,15.56c-2.65,4.38-6.37,7.76-11.15,10.13-4.78,2.37-10.35,3.55-16.72,3.55h-21.56v-17.64h16.99c2.67,0,4.95-.47,6.84-1.41,1.89-.94,3.35-2.28,4.37-4.02,1.02-1.74,1.53-3.8,1.53-6.17s-.51-4.44-1.53-6.15c-1.02-1.7-2.48-3.01-4.37-3.92-1.89-.91-4.17-1.37-6.84-1.37h-8v65.5h-22.71Z"/><path class="cls-39" d="M1700.77,139.67V56.03h22.71v65.34h33.81v18.3h-56.52Z"/></g></svg>